{
.appVersion = "3151";
.formatVersion = 3;
DisplayStrings = (
"/css_comment_start",
"/calc"
);
customParameters = (
{
name = vendorID;
value = ADBO;
},
{
name = panose;
value = (
2,
11,
5,
3,
3,
4,
3,
9,
2,
4
);
},
{
name = unicodeRanges;
value = (
0,
1,
2,
4,
5,
6,
29,
32,
33
);
},
{
name = codePageRanges;
value = (
"1252",
"1250",
"1254",
"1257",
"1258",
"bit 29"
);
},
{
name = fsType;
value = (
);
},
{
name = glyphOrder;
value = (
.notdef,
space,
A,
B,
C,
D,
E,
F,
G,
H,
I,
J,
K,
L,
M,
N,
O,
P,
Q,
R,
S,
T,
U,
V,
W,
X,
Y,
Z,
a,
b,
c,
d,
e,
f,
g,
h,
i,
j,
k,
l,
m,
n,
o,
p,
q,
r,
s,
t,
u,
v,
w,
x,
y,
z,
Agrave,
Aacute,
Acircumflex,
Atilde,
Adieresis,
Amacron,
Abreve,
Aring,
uni01CD,
uni1EA0,
uni1EA2,
uni1EA4,
uni1EA6,
uni1EA8,
uni1EAA,
uni1EAC,
uni1EAE,
uni1EB0,
uni1EB2,
uni1EB4,
uni1EB6,
Aogonek,
Aogonek.d,
uni01040301,
AE,
uni01FC,
uni01E2,
uni0243,
uni1E02,
uni1E06,
Ccedilla,
Cacute,
Ccircumflex,
Ccaron,
Cdotaccent,
Dcaron,
uni1E0A,
uni1E0C,
uni1E0E,
Dcroat,
Egrave,
Eacute,
Ecircumflex,
Ecaron,
Edieresis,
Emacron,
Ebreve,
Edotaccent,
uni1EB8,
uni1EBA,
uni1EBC,
uni1EBE,
uni1EC0,
uni1EC2,
uni1EC4,
uni1EC6,
Eogonek,
Eogonek.d,
uni01180301,
uni1E16,
uni1E1E,
uni01F4,
Gcircumflex,
Gbreve,
Gdotaccent,
uni0122,
Gcaron,
uni1E20,
uni00470303,
uni0193,
Hcircumflex,
uni1E24,
uni1E2A,
uni1E96.c,
Hbar,
Igrave,
Iacute,
Icircumflex,
Itilde,
Idieresis,
Imacron,
Idotaccent,
uni01CF,
uni1EC8,
uni1ECA,
Iogonek,
uni012E0301,
uni012C,
Jcircumflex,
uni0136,
uni1E32,
uni1E34,
Lacute,
Lcaron,
uni013B,
Ldot,
uni1E36,
uni1E38,
uni1E3A,
Lslash,
uni1E3E,
uni1E40,
uni1E42,
Nacute,
uni01F8,
Ncaron,
Ntilde,
uni0145,
uni1E44,
uni1E46,
uni1E48,
Ograve,
Oacute,
Ocircumflex,
Otilde,
Odieresis,
Omacron,
Ohungarumlaut,
uni01D1,
uni1ECC,
uni1ECE,
uni1ED0,
uni1ED2,
uni1ED4,
uni1ED6,
uni1ED8,
uni014E,
uni1E52,
Oslash,
OE,
Ohorn,
uni1EDA,
uni1EDC,
uni1EDE,
uni1EE0,
uni1EE2,
uni01EA,
uni01EA0301,
uni1E56,
Racute,
Rcaron,
uni1E58,
uni0156,
uni1E5A,
uni1E5C,
uni1E5E,
Sacute,
Scircumflex,
Scaron,
uni015E,

glyphs = (
{
glyphname = .notdef;
layers = (
{
layerId = m01;
shapes = (
{
closed = 1;
nodes = (
(622,660,l),
(166,660,l),
(36,0,l),
(492,0,l)
);
},
{
closed = 1;
nodes = (
(270,604,l),
(499,604,l),
(409,477,l),
(342,384,l),
(338,384,l),
(310,477,l)
);
},
{
closed = 1;
nodes = (
(320,293,l),
(324,293,l),
(355,192,l),
(399,56,l),
(150,56,l),
(249,192,l)
);
},
{
closed = 1;
nodes = (
(289,340,l),
(120,105,l),
(214,575,l)
);
},
{
closed = 1;
nodes = (
(546,575,l),
(450,105,l),
(375,340,l)
);
}
);
width = 628;
}
);
note = ".notdef";
},
{
glyphname = A;
kernLeft = A;
kernRight = A;
layers = (
{
layerId = m01;
shapes = (
{
closed = 1;
nodes = (
(306,534,o),
(332,591,q),
(336,591,l),
(340,535,o),
(350,429,o),
(354,377,qs),
(364,265,l),
(169,265,l),
(227,377,ls),
(255,431,o)
);
},
{
closed = 1;
nodes = (
(138,205,l),
(370,205,l),
(388,0,l),
(469,0,l),
(393,656,l),
(303,656,l),
(-53,0,l),
(33,0,l)
);
}
);
width = 510;
}
);
note = A;
unicode = 65;
},
{
glyphname = B;
kernRight = B;
layers = (
{
layerId = m01;
shapes = (
{
closed = 1;
nodes = (
(323,0,o),
(447,44,o),
(518,137,o),
(518,210,qs),
(518,266,o),
(448,331,o),
(397,343,q),
(398,347,l),
(434,355,o),
(501,399,o),
(544,467,o),
(544,511,qs),
(544,582,o),
(436,656,o),
(341,656,qs),
(166,656,l),
(35,0,l),
(245,0,ls)
);
},
{
closed = 1;
nodes = (
(322,595,ls),
(396,595,o),
(465,545,o),
(465,500,qs),
(465,445,o),
(375,374,o),
(281,374,qs),
(187,374,l),
(231,595,l)
);
},
{
closed = 1;
nodes = (
(292,317,ls),
(365,317,o),
(442,256,o),
(442,206,qs),
(442,130,o),
(332,61,o),
(238,61,qs),
(124,61,l),
(176,317,l)
);
}
);
width = 583;
}
);
note = B;
unicode = 66;
},
{
glyphname = C;
kernLeft = C;
kernRight = C;
layers = (
{
layerId = m01;
shapes = (
{
closed = 1;
nodes = (
(442,33,o),
(478,64,q),
(443,114,l),
(411,87,o),
(344,55,o),
(304,55,qs),
(245,55,o),
(171,108,o),
(137,201,o),
(137,260,qs),
(137,320,o),
(173,440,o),
(239,540,o),
(334,601,o),
(392,601,qs),
(430,601,o),
(484,562,o),
(503,530,q),
(557,571,l),
(533,613,o),
(452,668,o),
(396,668,qs),
(320,668,o),
(195,597,o),
(105,478,o),
(57,330,o),
(57,253,qs),
(57,175,o),
(111,55,o),
(215,-12,o),
(290,-12,qs),
(349,-12,o)
);
}
);
width = 550;
}
);
note = C;
unicode = 67;
},
{
glyphname = D;
kernRight = D;
layers = (
{
layerId = m01;
shapes = (
{
closed = 1;
nodes = (
(322,0,o),
(481,101,o),
(566,281,o),
(566,400,qs),
(566,521,o),
(425,656,o),
(288,656,qs),
(166,656,l),
(35,0,l),
(211,0,ls)
);
},
{
closed = 1;
nodes = (
(285,593,ls),
(384,593,o),
(487,488,o),
(487,395,qs),
(487,298,o),
(420,148,o),
(296,64,o),
(211,64,qs),
(125,64,l),
(231,593,l)
);
}
);
width = 592;
}
);
note = D;
unicode = 68;
},
{
glyphname = E;
layers = (
{
layerId = m01;
shapes = (
{
closed = 1;
nodes = (
(419,66,l),
(125,66,l),
(176,312,l),
(415,312,l),
(429,378,l),
(188,378,l),
(230,591,l),
(515,591,l),
(528,656,l),
(166,656,l),
(35,0,l),
(405,0,l)
);
}
);
width = 503;
}
);
note = E;
unicode = 69;
},
{
glyphname = F;
kernRight = F;
layers = (
{
layerId = m01;
shapes = (
{
closed = 1;
nodes = (
(173,297,l),
(413,297,l),
(426,363,l),
(185,363,l),
(230,591,l),
(515,591,l),
(528,656,l),
(166,656,l),
(35,0,l),
(113,0,l)
);
}
);
width = 473;
}
);
note = F;
unicode = 70;
},
{
glyphname = G;
kernLeft = C;
kernRight = G;
layers = (
{
layerId = m01;
shapes = (
{
closed = 1;
nodes = (
(450,25,o),
(486,55,q),
(543,339,l),
(337,339,l),
(324,275,l),
(460,275,l),
(423,94,l),
(404,78,o),
(347,54,o),
(311,54,qs),
(248,54,o),
(172,108,o),
(137,202,o),
(137,260,qs),
(137,320,o),
(173,440,o),
(242,540,o),
(340,601,o),
(402,601,qs),
(442,601,o),
(497,562,o),
(516,530,q),
(571,571,l),
(546,613,o),
(465,668,o),
(406,668,qs),
(325,668,o),
(196,598,o),
(105,479,o),
(57,331,o),
(57,253,qs),
(57,133,o),
(182,-12,o),
(300,-12,qs),
(356,-12,o)
);
}
);
width = 588;
}
);
note = G;
unicode = 71;
},
{
glyphname = H;
layers = (
{
layerId = m01;
shapes = (
{
closed = 1;
nodes = (
(175,312,l),
(471,312,l),
(408,0,l),
(486,0,l),
(617,656,l),
(540,656,l),
(484,379,l),
(188,379,l),
(244,656,l),
(166,656,l),
(35,0,l),
(113,0,l)
);
}
);
width = 622;
}
);
note = H;
unicode = 72;
},
{
glyphname = I;
layers = (
{
layerId = m01;
shapes = (
{
closed = 1;
nodes = (
(244,656,l),
(166,656,l),
(35,0,l),
(113,0,l)
);
}
);
width = 252;
}
);
note = I;
unicode = 73;
},
{
glyphname = J;
kernLeft = J;
kernRight = J;
layers = (
{
layerId = m01;
shapes = (
{
closed = 1;
nodes = (
(346,99,o),
(362,184,qs),
(456,656,l),
(378,656,l),
(286,195,ls),
(273,130,o),
(211,55,o),
(161,55,qs),
(120,55,o),
(63,96,o),
(49,132,q),
(-2,89,l),
(19,43,o),
(101,-12,o),
(159,-12,qs),
(245,-12,o)
);
}
);
width = 456;
}
);
note = J;
unicode = 74;
},
{
glyphname = K;
kernRight = K;
layers = (
{
layerId = m01;
shapes = (
{
closed = 1;
nodes = (
(158,220,l),
(295,354,l),
(421,0,l),
(502,0,l),
(353,404,l),
(599,656,l),
(511,656,l),
(182,332,l),
(179,332,l),
(244,656,l),
(166,656,l),
(35,0,l),
(113,0,l)
);
}
);
width = 559;
}
);
note = K;
unicode = 75;
},
{
glyphname = L;
kernRight = L;
layers = (
{
layerId = m01;
shapes = (
{
closed = 1;
nodes = (
(402,66,l),
(126,66,l),
(244,656,l),
(166,656,l),
(35,0,l),
(389,0,l)
);
}
);
width = 462;
}
);
note = L;
unicode = 76;
},
{
glyphname = M;
layers = (
{
layerId = m01;
shapes = (
{
closed = 1;
nodes = (
(182,370,ls),
(190,414,o),
(204,519,o),
(210,563,q),
(214,563,l),
(236,417,l),
(297,69,l),
(341,69,l),
(534,417,l),
(613,563,l),
(617,563,l),
(605,520,o),
(579,414,o),
(570,370,qs),
(494,0,l),
(569,0,l),
(700,656,l),
(607,656,l),
(412,302,l),
(342,166,l),
(338,166,l),
(316,302,l),
(259,656,l),
(166,656,l),
(35,0,l),
(108,0,l)
);
}
);
width = 705;
}
);
note = M;
unicode = 77;
},
{
glyphname = N;
layers = (
{
layerId = m01;
shapes = (
{
closed = 1;
nodes = (
(180,353,ls),
(190,403,o),
(205,509,o),
(211,560,q),
(215,560,l),
(258,419,l),
(406,0,l),
(483,0,l),
(614,656,l),
(539,656,l),
(470,308,ls),
(460,257,o),
(446,148,o),
(440,99,q),
(436,99,l),
(394,236,l),
(244,656,l),
(166,656,l),
(35,0,l),
(110,0,l)
);
}
);
width = 619;
}
);
note = N;
unicode = 78;
},
{
glyphname = O;
kernLeft = C;
kernRight = D;
layers = (
{
layerId = m01;
shapes = (
{
closed = 1;
nodes = (
(474,57,o),
(560,174,o),
(606,319,o),
(606,394,qs),
(606,477,o),
(554,600,o),
(453,668,o),
(379,668,qs),
(309,668,o),
(192,599,o),
(106,482,o),
(60,338,o),
(60,263,qs),
(60,139,o),
(177,-12,o),
(287,-12,qs),
(358,-12,o)
);
},
{
closed = 1;
nodes = (
(139,173,o),
(139,269,qs),
(139,327,o),
(173,444,o),
(235,542,o),
(322,601,o),
(375,601,qs),
(453,601,o),
(527,484,o),
(527,387,qs),
(527,330,o),
(493,213,o),
(431,115,o),
(344,55,o),
(291,55,qs),
(212,55,o)
);
}
);
width = 633;
}
);
note = O;
unicode = 79;
},
{
glyphname = P;
kernRight = P;
layers = (
{
layerId = m01;
shapes = (
{
closed = 1;
nodes = (
(165,264,l),
(270,264,ls),
(354,264,o),
(483,313,o),
(557,416,o),
(557,496,qs),
(557,582,o),
(443,656,o),
(351,656,qs),
(166,656,l),
(35,0,l),
(113,0,l)
);
},
{
closed = 1;
nodes = (
(332,594,ls),
(404,594,o),
(480,543,o),
(480,486,qs),
(480,407,o),
(374,327,o),
(273,327,qs),
(178,327,l),
(231,594,l)
);
}
);
width = 550;
}
);
note = P;
unicode = 80;
},
{
glyphname = Q;
kernLeft = C;
kernRight = D;
layers = (
{
layerId = m01;
shapes = (
{
closed = 1;
nodes = (
(139,171,o),
(139,269,qs),
(139,327,o),
(173,444,o),
(235,542,o),
(322,601,o),
(375,601,qs),
(453,601,o),
(527,484,o),
(527,387,qs),
(527,329,o),
(493,211,o),
(431,112,o),
(344,53,o),
(291,53,qs),
(212,53,o)
);
},
{
closed = 1;
nodes = (
(524,-151,q),
(519,-90,l),
(506,-93,o),
(479,-97,o),
(464,-97,qs),
(412,-97,o),
(327,-54,o),
(310,-11,q),
(376,-5,o),
(485,68,o),
(563,182,o),
(606,322,o),
(606,394,qs),
(606,477,o),
(554,600,o),
(453,668,o),
(379,668,qs),
(309,668,o),
(192,599,o),
(106,482,o),
(60,338,o),
(60,263,qs),
(60,156,o),
(147,13,o),
(230,-6,q),
(255,-86,o),
(376,-162,o),
(459,-162,qs),
(491,-162,o)
);
}
);
width = 633;
}
);
note = Q;
unicode = 81;
},
{
glyphname = R;
kernRight = R;
layers = (
{
layerId = m01;
shapes = (
{
closed = 1;
nodes = (
(168,278,l),
(282,278,l),
(390,0,l),
(473,0,l),
(358,285,l),
(441,302,o),
(551,412,o),
(551,503,qs),
(551,586,o),
(438,656,o),
(346,656,qs),
(166,656,l),
(35,0,l),
(113,0,l)
);
},
{
closed = 1;
nodes = (
(327,594,ls),
(399,594,o),
(474,547,o),
(474,493,qs),
(474,423,o),
(374,341,o),
(280,341,qs),
(181,341,l),
(231,594,l)
);
}
);
width = 555;
}
);
note = R;
unicode = 82;
},
{
glyphname = S;
kernLeft = S;
kernRight = S;
layers = (
{
layerId = m01;
shapes = (
{
closed = 1;
nodes = (
(400,40,o),
(459,131,o),
(459,189,qs),
(459,244,o),
(407,315,o),
(360,343,qs),
(284,388,ls),
(248,410,o),
(199,457,o),
(199,495,qs),
(199,522,o),
(228,570,o),
(281,601,o),
(318,601,qs),
(364,601,o),
(434,560,o),
(459,530,q),
(510,576,l),
(479,616,o),
(383,668,o),
(324,668,qs),
(265,668,o),
(173,618,o),
(120,536,o),
(120,486,qs),
(120,431,o),
(179,358,o),
(221,332,qs),
(297,286,ls),
(334,264,o),
(379,214,o),
(379,178,qs),
(379,122,o),
(298,54,o),
(238,54,qs),
(183,54,o),
(98,104,o),
(69,147,q),
(12,104,l),
(52,46,o),
(164,-12,o),
(231,-12,qs),
(298,-12,o)
);
}
);
width = 506;
}
);
note = S;
unicode = 83;
},
{
glyphname = T;
kernLeft = T;
kernRight = T;
layers = (
{
layerId = m01;
shapes = (
{
closed = 1;
nodes = (
(361,589,l),
(552,589,l),
(565,656,l),
(106,656,l),
(93,589,l),
(283,589,l),
(166,0,l),
(244,0,l)
);
}
);
width = 510;
}
);
note = T;
unicode = 84;
},
{
glyphname = U;
kernLeft = U;
kernRight = U;
layers = (
{
layerId = m01;
shapes = (
{
closed = 1;
nodes = (
(504,109,o),
(532,251,qs),
(614,656,l),
(538,656,l),
(457,254,ls),
(436,147,o),
(346,55,o),
(290,55,qs),
(221,55,o),
(157,132,o),
(157,202,qs),
(157,236,o),
(166,281,qs),
(241,656,l),
(163,656,l),
(89,288,ls),
(85,263,o),
(79,216,o),
(79,195,qs),
(79,93,o),
(186,-12,o),
(286,-12,qs),
(374,-12,o)
);
}
);
width = 616;
}
);
note = U;
unicode = 85;
},
{
glyphname = V;
kernLeft = V;
kernRight = V;
layers = (
{
layerId = m01;
shapes = (
{
closed = 1;
nodes = (
(577,656,l),
(493,656,l),
(312,292,ls),
(286,240,o),
(233,129,o),
(208,76,q),
(204,76,l),
(201,130,o),
(193,239,o),
(188,292,qs),
(161,656,l),
(82,656,l),
(141,0,l),
(234,0,l)
);
}
);
width = 496;
}
);
note = V;
unicode = 86;
},
{
glyphname = W;
kernLeft = W;
kernRight = W;
layers = (
{
layerId = m01;
shapes = (
{
closed = 1;
nodes = (
(371,401,ls),
(388,440,o),
(421,516,o),
(435,555,q),
(439,555,l),
(438,516,o),
(436,437,o),
(436,401,qs),
(443,0,l),
(542,0,l),
(812,656,l),
(735,656,l),
(593,295,ls),
(573,243,o),
(530,136,o),
(510,82,q),
(506,82,l),
(506,136,o),
(506,243,o),
(505,295,qs),
(496,656,l),
(425,656,l),
(261,295,ls),
(239,243,o),
(191,135,o),
(168,82,q),
(164,82,l),
(168,135,o),
(171,243,o),
(174,295,qs),
(184,656,l),
(104,656,l),
(95,0,l),
(192,0,l)
);
}
);
width = 756;
}
);
note = W;
unicode = 87;
},
{
glyphname = X;
kernLeft = X;
kernRight = X;
layers = (
{
layerId = m01;
shapes = (
{
closed = 1;
nodes = (
(175,180,ls),
(192,205,o),
(229,260,o),
(248,286,q),
(251,286,l),
(259,260,o),
(275,209,o),
(282,184,qs),
(342,0,l),
(426,0,l),
(309,334,l),
(546,656,l),
(464,656,l),
(344,485,ls),
(329,463,o),
(295,414,o),
(278,390,q),
(275,390,l),
(267,416,o),
(255,460,o),
(248,482,qs),
(192,656,l),
(108,656,l),
(216,340,l),
(-36,0,l),
(47,0,l)
);
}
);
width = 494;
}
);
note = X;
unicode = 88;
},
{
glyphname = Y;
kernLeft = Y;
kernRight = Y;
layers = (
{
layerId = m01;
shapes = (
{
closed = 1;
nodes = (
(268,256,l),
(542,656,l),
(459,656,l),
(335,468,ls),
(311,432,o),
(267,361,o),
(244,324,q),
(241,324,l),
(232,362,o),
(217,431,o),
(208,467,qs),
(163,656,l),
(83,656,l),
(190,256,l),
(139,0,l),
(216,0,l)
);
}
);
width = 461;
}
);
note = Y;
unicode = 89;
},
{
glyphname = Z;
kernLeft = Z;
kernRight = Z;
layers = (
{
layerId = m01;
shapes = (
{
closed = 1;
nodes = (
(440,66,l),
(109,66,l),
(531,610,l),
(541,656,l),
(148,656,l),
(134,591,l),
(434,591,l),
(9,47,l),
(-1,0,l),
(425,0,l)
);
}
);
width = 512;
}
);
note = Z;
unicode = 90;
},
{
glyphname = a;
kernLeft = a;
kernRight = a;
layers = (
{
layerId = m01;
shapes = (
{
closed = 1;
nodes = (
(313,35,o),
(348,72,q),
(352,72,l),
(344,0,l),
(407,0,l),
(504,486,l),
(442,486,l),
(423,425,l),
(419,425,l),
(402,458,o),
(341,498,o),
(302,498,qs),
(251,498,o),
(157,447,o),
(83,355,o),
(39,234,o),
(39,164,qs),
(39,79,o),
(115,-12,o),
(179,-12,qs),
(225,-12,o)
);
},
{
closed = 1;
nodes = (
(118,113,o),
(118,176,qs),
(118,226,o),
(149,319,o),
(202,392,o),
(269,434,o),
(305,434,qs),
(333,434,o),
(383,400,o),
(404,362,q),
(360,145,l),
(324,98,o),
(245,52,o),
(207,52,qs),
(167,52,o)
);
}
);
width = 537;
}
);
note = a;
unicode = 97;
},
{
glyphname = b;
kernRight = b;
layers = (
{
layerId = m01;
shapes = (
{
closed = 1;
nodes = (
(378,39,o),
(452,131,o),
(496,252,o),
(496,322,qs),
(496,408,o),
(420,498,o),
(356,498,qs),
(311,498,o),
(227,455,o),
(191,426,q),
(189,426,l),
(211,522,l),
(250,712,l),
(173,712,l),
(31,0,l),
(94,0,l),
(114,61,l),
(117,61,l),
(134,28,o),
(195,-12,o),
(234,-12,qs),
(284,-12,o)
);
},
{
closed = 1;
nodes = (
(152,86,o),
(132,124,q),
(178,355,l),
(213,392,o),
(294,434,o),
(328,434,qs),
(369,434,o),
(417,373,o),
(417,311,qs),
(417,260,o),
(387,167,o),
(334,94,o),
(267,52,o),
(231,52,qs),
(203,52,o)
);
}
);
width = 536;
}
);
note = b;
unicode = 98;
},
{
glyphname = c;
kernLeft = a;
kernRight = c;
layers = (
{
layerId = m01;
shapes = (
{
closed = 1;
nodes = (
(346,25,o),
(372,45,q),
(338,95,l),
(316,78,o),
(262,52,o),
(230,52,qs),
(172,52,o),
(115,122,o),
(115,188,qs),
(115,255,o),
(169,367,o),
(255,435,o),
(303,435,qs),
(332,435,o),
(370,414,o),
(389,391,q),
(434,439,l),
(412,464,o),
(352,498,o),
(308,498,qs),
(255,498,o),
(158,451,o),
(81,366,o),
(37,251,o),
(37,183,qs),
(37,90,o),
(137,-12,o),
(216,-12,qs),
(269,-12,o)
);
}
);
width = 435;
}
);
note = c;
unicode = 99;
},
{
glyphname = d;
kernLeft = a;
layers = (
{
layerId = m01;
shapes = (
{
closed = 1;
nodes = (
(313,35,o),
(348,72,q),
(352,72,l),
(344,0,l),
(407,0,l),
(551,712,l),
(474,712,l),
(436,522,l),
(420,427,l),
(417,427,l),
(399,459,o),
(341,498,o),
(302,498,qs),
(251,498,o),
(157,447,o),
(83,355,o),
(39,234,o),
(39,164,qs),
(39,79,o),
(115,-12,o),
(179,-12,qs),
(225,-12,o)
);
},
{
closed = 1;
nodes = (
(118,113,o),
(118,176,qs),
(118,226,o),
(149,319,o),
(202,392,o),
(269,434,o),
(305,434,qs),
(333,434,o),
(383,400,o),
(404,362,q),
(360,145,l),
(323,98,o),
(245,52,o),
(207,52,qs),
(167,52,o)
);
}
);
width = 535;
}
);
note = d;
unicode = 100;
},
{
glyphname = e;
kernLeft = a;
kernRight = e;
layers = (
{
layerId = m01;
shapes = (
{
closed = 1;
nodes = (
(356,19,o),
(385,40,q),
(355,91,l),
(332,74,o),
(275,49,o),
(246,49,qs),
(204,49,o),
(137,86,o),
(105,166,o),
(114,229,q),
(430,229,l),
(435,243,o),
(447,294,o),
(447,322,qs),
(447,372,o),
(417,452,o),
(352,498,o),
(297,498,qs),
(249,498,o),
(157,454,o),
(82,372,o),
(37,260,o),
(37,191,qs),
(37,94,o),
(142,-12,o),
(228,-12,qs),
(275,-12,o)
);
},
{
closed = 1;
nodes = (
(235,437,o),
(288,437,qs),
(323,437,o),
(364,406,o),
(382,357,o),
(382,329,qs),
(382,316,o),
(379,292,o),
(377,281,q),
(122,281,l),
(141,352,o)
);
}
);
width = 481;
}
);
note = e;
unicode = 101;
},
{
glyphname = f;
kernLeft = f;
kernRight = f;
layers = (
{
layerId = m01;
shapes = (
{
closed = 1;
nodes = (
(204,424,l),
(303,424,l),
(315,486,l),
(217,486,l),
(234,569,ls),
(242,612,o),
(283,662,o),
(316,662,qs),
(333,662,o),
(360,652,o),
(370,645,q),
(397,700,l),
(379,711,o),
(337,724,o),
(311,724,qs),
(250,724,o),
(172,641,o),
(157,567,qs),
(141,486,l),
(76,481,l),
(65,424,l),
(128,424,l),
(43,0,l),
(119,0,l)
);
}
);
width = 282;
}
);
note = f;
unicode = 102;
},
{
glyphname = g;
kernLeft = a;
kernRight = g;
layers = (
{
layerId = m01;
shapes = (
{
closed = 1;
nodes = (
(377,-118,o),
(396,-23,qs),
(498,486,l),
(435,486,l),
(416,425,l),
(413,425,l),
(396,458,o),
(334,498,o),
(296,498,qs),
(247,498,o),
(155,448,o),
(82,359,o),
(39,243,o),
(39,176,qs),
(39,91,o),
(119,5,o),
(180,5,qs),
(227,5,o),
(311,49,o),
(349,87,q),
(324,-17,ls),
(310,-81,o),
(236,-157,o),
(174,-157,qs),
(134,-157,o),
(65,-123,o),
(37,-100,q),
(1,-153,l),
(36,-182,o),
(122,-220,o),
(171,-220,qs),
(262,-220,o)
);
},
{
closed = 1;
nodes = (
(118,128,o),
(118,187,qs),
(118,235,o),
(148,323,o),
(199,393,o),
(264,434,o),
(299,434,qs),
(327,434,o),
(376,400,o),
(398,362,q),
(355,154,l),
(321,112,o),
(240,69,o),
(205,69,qs),
(165,69,o)
);
}
);
width = 531;
}
);
note = g;
unicode = 103;
},
{
glyphname = h;
kernRight = h;
layers = (
{
layerId = m01;
shapes = (
{
closed = 1;
nodes = (
(176,344,l),
(222,390,o),
(294,432,o),
(322,432,qs),
(394,432,o),
(394,357,qs),
(394,344,o),
(390,320,o),
(386,300,qs),
(326,0,l),
(402,0,l),
(464,310,ls),
(472,346,o),
(472,377,qs),
(472,433,o),
(419,498,o),
(357,498,qs),
(313,498,o),
(231,451,o),
(190,416,q),
(186,416,l),
(202,477,l),
(250,712,l),
(173,712,l),
(31,0,l),
(107,0,l)
);
}
);
width = 523;
}
);
note = h;
unicode = 104;
},
{
glyphname = k;
kernRight = k;
layers = (
{
layerId = m01;
shapes = (
{
closed = 1;
nodes = (
(133,123,l),
(245,237,l),
(338,0,l),
(416,0,l),
(299,283,l),
(493,486,l),
(405,486,l),
(156,229,l),
(154,229,l),
(250,712,l),
(173,712,l),
(31,0,l),
(107,0,l)
);
}
);
width = 476;
}
);
note = k;
unicode = 107;
},
{
glyphname = l;
layers = (
{
layerId = m01;
shapes = (
{
closed = 1;
nodes = (
(147,-8,o),
(157,-4,q),
(156,55,l),
(149,53,o),
(143,52,o),
(140,52,qs),
(123,52,o),
(123,70,qs),
(123,73,o),
(124,82,o),
(125,89,qs),
(250,712,l),
(173,712,l),
(50,93,ls),
(44,68,o),
(44,51,qs),
(44,-12,o),
(109,-12,qs),
(125,-12,o)
);
}
);
width = 248;
}
);
note = l;
unicode = 108;
},
{
glyphname = m;
kernLeft = m;
kernRight = h;
layers = (
{
layerId = m01;
shapes = (
{
closed = 1;
nodes = (
(176,344,l),
(219,390,o),
(291,432,o),
(313,432,qs),
(383,432,o),
(383,357,qs),
(383,344,o),
(379,320,o),
(375,300,qs),
(315,0,l),
(391,0,l),
(460,344,l),
(504,390,o),
(576,432,o),
(597,432,qs),
(668,432,o),
(668,357,qs),
(668,344,o),
(664,320,o),
(660,300,qs),
(599,0,l),
(676,0,l),
(738,310,ls),
(742,330,o),
(746,360,o),
(746,377,qs),
(746,433,o),
(692,498,o),
(631,498,qs),
(594,498,o),
(506,447,o),
(459,403,q),
(454,443,o),
(405,498,o),
(347,498,qs),
(309,498,o),
(226,449,o),
(188,413,q),
(184,413,l),
(191,486,l),
(128,486,l),
(31,0,l),
(107,0,l)
);
}
);
width = 799;
}
);
note = m;
unicode = 109;
},
{
glyphname = n;
kernLeft = m;
kernRight = h;
layers = (
{
layerId = m01;
shapes = (
{
closed = 1;
nodes = (
(176,344,l),
(222,390,o),
(294,432,o),
(322,432,qs),
(394,432,o),
(394,357,qs),
(394,344,o),
(390,320,o),
(386,300,qs),
(326,0,l),
(402,0,l),
(464,310,ls),
(472,346,o),
(472,377,qs),
(472,433,o),
(419,498,o),
(357,498,qs),
(311,498,o),
(229,449,o),
(188,413,q),
(184,413,l),
(191,486,l),
(128,486,l),
(31,0,l),
(107,0,l)
);
}
);
width = 525;
}
);
note = n;
unicode = 110;
},
{
glyphname = o;
kernLeft = a;
kernRight = b;
layers = (
{
layerId = m01;
shapes = (
{
closed = 1;
nodes = (
(356,34,o),
(431,119,o),
(475,234,o),
(475,303,qs),
(475,394,o),
(380,498,o),
(301,498,qs),
(251,498,o),
(157,452,o),
(83,367,o),
(39,252,o),
(39,183,qs),
(39,92,o),
(133,-12,o),
(212,-12,qs),
(262,-12,o)
);
},
{
closed = 1;
nodes = (
(116,122,o),
(116,188,qs),
(116,256,o),
(167,368,o),
(248,435,o),
(293,435,qs),
(343,435,o),
(397,364,o),
(397,298,qs),
(397,230,o),
(346,118,o),
(265,52,o),
(220,52,qs),
(170,52,o)
);
}
);
width = 515;
}
);
note = o;
unicode = 111;
},
{
glyphname = p;
kernLeft = m;
kernRight = b;
layers = (
{
layerId = m01;
shapes = (
{
closed = 1;
nodes = (
(97,-46,l),
(115,58,l),
(117,58,l),
(136,27,o),
(196,-12,o),
(234,-12,qs),
(284,-12,o),
(378,39,o),
(452,131,o),
(496,252,o),
(496,322,qs),
(496,407,o),
(420,498,o),
(356,498,qs),
(310,498,o),
(225,453,o),
(188,422,q),
(185,422,l),
(191,486,l),
(128,486,l),
(-10,-205,l),
(66,-205,l)
);
},
{
closed = 1;
nodes = (
(152,85,o),
(132,122,q),
(178,354,l),
(213,392,o),
(294,434,o),
(328,434,qs),
(369,434,o),
(417,373,o),
(417,311,qs),
(417,260,o),
(387,167,o),
(334,94,o),
(267,52,o),
(231,52,qs),
(203,52,o)
);
}
);
width = 535;
}
);
note = p;
unicode = 112;
},
{
glyphname = q;
kernLeft = a;
kernRight = q;
layers = (
{
layerId = m01;
shapes = (
{
closed = 1;
nodes = (
(504,486,l),
(442,486,l),
(423,425,l),
(419,425,l),
(402,458,o),
(341,498,o),
(302,498,qs),
(251,498,o),
(157,447,o),
(83,355,o),
(39,234,o),
(39,164,qs),
(39,79,o),
(115,-12,o),
(179,-12,qs),
(225,-12,o),
(313,35,o),
(350,73,q),
(352,73,l),
(322,-46,l),
(289,-205,l),
(366,-205,l)
);
},
{
closed = 1;
nodes = (
(118,113,o),
(118,176,qs),
(118,226,o),
(149,319,o),
(202,392,o),
(269,434,o),
(305,434,qs),
(333,434,o),
(383,400,o),
(404,362,q),
(360,145,l),
(323,98,o),
(245,52,o),
(207,52,qs),
(167,52,o)
);
}
);
width = 537;
}
);
note = q;
unicode = 113;
},
{
glyphname = r;
kernLeft = m;
kernRight = r;
layers = (
{
layerId = m01;
shapes = (
{
closed = 1;
nodes = (
(168,307,l),
(199,366,o),
(275,429,o),
(311,429,qs),
(337,429,o),
(353,421,q),
(380,489,l),
(359,498,o),
(334,498,qs),
(289,498,o),
(213,437,o),
(184,393,q),
(180,393,l),
(191,486,l),
(128,486,l),
(31,0,l),
(107,0,l)
);
}
);
width = 342;
}
);
note = r;
unicode = 114;
},
{
glyphname = s;
kernLeft = s;
kernRight = s;
layers = (
{
layerId = m01;
shapes = (
{
closed = 1;
nodes = (
(297,25,o),
(345,93,o),
(345,138,qs),
(345,182,o),
(293,242,o),
(231,276,qs),
(199,294,o),
(145,332,o),
(145,362,qs),
(145,393,o),
(194,438,o),
(232,438,qs),
(265,438,o),
(316,412,o),
(335,392,q),
(381,432,l),
(353,462,o),
(279,498,o),
(233,498,qs),
(189,498,o),
(116,461,o),
(72,396,o),
(72,353,qs),
(72,312,o),
(129,250,o),
(175,224,qs),
(231,193,o),
(272,154,o),
(272,128,qs),
(272,93,o),
(211,47,o),
(169,47,qs),
(131,47,o),
(67,87,o),
(44,118,q),
(-4,80,l),
(21,40,o),
(114,-12,o),
(163,-12,qs),
(215,-12,o)
);
}
);
width = 402;
}
);
note = s;
unicode = 115;
},
{
glyphname = t;
kernLeft = t;
kernRight = t;
layers = (
{
layerId = m01;
shapes = (
{
closed = 1;
nodes = (
(261,3,o),
(277,10,q),
(260,65,l),
(249,60,o),
(223,50,o),
(209,50,qs),
(175,50,o),
(147,80,o),
(147,110,qs),
(147,128,o),
(150,146,qs),
(207,424,l),
(332,424,l),
(344,486,l),
(221,486,l),
(248,620,l),
(183,620,l),
(147,486,l),
(71,481,l),
(60,424,l),
(131,424,l),
(74,150,l),
(73,137,o),
(69,111,o),
(69,96,qs),
(69,51,o),
(121,-12,o),
(185,-12,qs),
(214,-12,o)
);
}
);
width = 325;
}
);
note = t;
unicode = 116;
},
{
glyphname = u;
kernLeft = u;
kernRight = a;
layers = (
{
layerId = m01;
shapes = (
{
closed = 1;
nodes = (
(299,39,o),
(339,74,q),
(343,74,l),
(335,0,l),
(398,0,l),
(495,486,l),
(419,486,l),
(350,142,l),
(306,96,o),
(235,54,o),
(206,54,qs),
(134,54,o),
(134,129,qs),
(134,142,o),
(138,167,o),
(142,186,qs),
(203,486,l),
(126,486,l),
(64,176,ls),
(60,157,o),
(56,126,o),
(56,109,qs),
(56,54,o),
(110,-12,o),
(171,-12,qs),
(215,-12,o)
);
}
);
width = 528;
}
);
note = u;
unicode = 117;
},
{
glyphname = v;
kernLeft = v;
kernRight = v;
layers = (
{
layerId = m01;
shapes = (
{
closed = 1;
nodes = (
(481,486,l),
(404,486,l),
(261,205,ls),
(242,169,o),
(206,96,o),
(189,60,q),
(185,60,l),
(181,95,o),
(175,170,o),
(171,205,qs),
(135,486,l),
(59,486,l),
(130,0,l),
(222,0,l)
);
}
);
width = 448;
}
);
note = v;
unicode = 118;
},
{
glyphname = w;
kernLeft = w;
kernRight = w;
layers = (
{
layerId = m01;
shapes = (
{
closed = 1;
nodes = (
(315,266,ls),
(330,301,o),
(359,373,o),
(374,409,q),
(378,409,l),
(379,373,o),
(380,301,o),
(381,266,qs),
(395,0,l),
(490,0,l),
(711,486,l),
(639,486,l),
(512,200,ls),
(496,166,o),
(470,98,o),
(456,64,q),
(452,64,l),
(451,98,o),
(449,166,o),
(447,200,qs),
(430,486,l),
(355,486,l),
(227,200,ls),
(211,166,o),
(184,98,o),
(169,64,q),
(165,64,l),
(164,98,o),
(163,166,o),
(162,200,qs),
(146,486,l),
(70,486,l),
(105,0,l),
(197,0,l)
);
}
);
width = 707;
}
);
note = w;
unicode = 119;
},
{
glyphname = x;
kernLeft = x;
kernRight = x;
layers = (
{
layerId = m01;
shapes = (
{
closed = 1;
nodes = (
(134,115,ls),
(153,138,o),
(187,182,o),
(203,204,q),
(207,204,l),
(217,182,o),
(234,136,o),
(242,114,qs),
(286,0,l),
(365,0,l),
(266,241,l),
(466,486,l),
(383,486,l),
(298,378,ls),
(283,357,o),
(251,316,o),
(236,296,q),
(232,296,l),
(225,317,o),
(211,356,o),
(203,378,qs),
(161,486,l),
(83,486,l),
(174,258,l),
(-44,0,l),
(40,0,l)
);
}
);
width = 429;
}
);
note = x;
unicode = 120;
},
{
glyphname = y;
kernLeft = y;
kernRight = y;
layers = (
{
layerId = m01;
shapes = (
{
closed = 1;
nodes = (
(113,-165,o),
(172,-88,o),
(197,-41,qs),
(483,486,l),
(407,486,l),
(267,213,ls),
(249,179,o),
(212,103,o),
(195,68,q),
(191,68,l),
(188,103,o),
(180,180,o),
(175,213,qs),
(137,486,l),
(61,486,l),
(144,-1,l),
(126,-36,ls),
(101,-86,o),
(36,-147,o),
(-1,-147,qs),
(-19,-147,o),
(-37,-138,q),
(-62,-195,l),
(-48,-202,o),
(-16,-209,o),
(-6,-209,qs),
(41,-209,o)
);
}
);
width = 448;
}
);
note = y;
unicode = 121;
},
{
glyphname = z;
kernLeft = z;
kernRight = z;
layers = (
{
layerId = m01;
shapes = (
{
closed = 1;
nodes = (
(353,62,l),
(99,62,l),
(422,441,l),
(430,486,l),
(113,486,l),
(100,424,l),
(321,424,l),
(-2,44,l),
(-10,0,l),
(341,0,l)
);
}
);
width = 410;
}
);
note = z;
unicode = 122;
},
{
glyphname = Aogonek;
kernLeft = A;
kernRight = A;
layers = (
{
layerId = m01;
shapes = (
{
closed = 1;
nodes = (
(306,534,o),
(332,591,q),
(336,591,l),
(340,535,o),
(350,429,o),
(354,377,qs),
(364,265,l),
(169,265,l),
(227,377,ls),
(255,431,o)
);
},
{
closed = 1;
nodes = (
(444,-198,o),
(460,-188,q),
(443,-146,l),
(425,-157,o),
(407,-157,qs),
(392,-157,o),
(371,-137,o),
(371,-119,qs),
(371,-90,o),
(421,-27,o),
(469,0,q),
(393,656,l),
(303,656,l),
(-53,0,l),
(33,0,l),
(138,205,l),
(370,205,l),
(388,0,l),
(401,0,l),
(380,-15,o),
(336,-60,o),
(306,-113,o),
(306,-142,qs),
(306,-176,o),
(350,-211,o),
(384,-211,qs),
(401,-211,o)
);
}
);
width = 510;
}
);
note = Aogonek;
unicode = 260;
},
{
glyphname = Aogonek.d;
kernLeft = A;
kernRight = A;
layers = (
{
layerId = m01;
shapes = (
{
closed = 1;
nodes = (
(278,-188,q),
(260,-146,l),
(244,-157,o),
(225,-157,qs),
(210,-157,o),
(189,-137,o),
(189,-119,qs),
(189,-93,o),
(226,-37,o),
(260,-15,q),
(236,14,l),
(189,-15,o),
(124,-101,o),
(124,-142,qs),
(124,-176,o),
(168,-211,o),
(202,-211,qs),
(240,-211,o)
);
},
{
closed = 1;
nodes = (
(306,534,o),
(332,591,q),
(336,591,l),
(340,535,o),
(350,429,o),
(354,377,qs),
(364,265,l),
(169,265,l),
(227,377,ls),
(255,431,o)
);
},
{
closed = 1;
nodes = (
(138,205,l),
(370,205,l),
(388,0,l),
(469,0,l),
(393,656,l),
(303,656,l),
(-53,0,l),
(33,0,l)
);
}
);
width = 510;
}
);
note = Aogonek.d;
},
{
glyphname = AE;
layers = (
{
layerId = m01;
shapes = (
{
closed = 1;
nodes = (
(425,542,o),
(462,597,q),
(465,597,l),
(397,256,l),
(229,256,l),
(313,380,ls),
(351,435,o)
);
},
{
closed = 1;
nodes = (
(187,194,l),
(385,194,l),
(346,0,l),
(705,0,l),
(718,66,l),
(436,66,l),
(487,312,l),
(715,312,l),
(728,378,l),
(499,378,l),
(541,591,l),
(814,591,l),
(828,656,l),
(426,656,l),
(-33,0,l),
(56,0,l)
);
}
);
width = 803;
}
);
note = AE;
unicode = 198;
},
{
glyphname = uni0243;
kernLeft = uni0243;
kernRight = B;
layers = (
{
layerId = m01;
shapes = (
{
closed = 1;
nodes = (
(341,0,o),
(465,45,o),
(536,139,o),
(536,213,qs),
(536,271,o),
(466,338,o),
(415,350,q),
(416,354,l),
(452,362,o),
(519,405,o),
(562,472,o),
(562,515,qs),
(562,584,o),
(454,656,o),
(359,656,qs),
(184,656,l),
(98,227,l),
(21,223,l),
(10,175,l),
(88,175,l),
(53,0,l),
(263,0,ls)
);
},
{
closed = 1;
nodes = (
(315,175,l),
(325,227,l),
(176,227,l),
(196,326,l),
(311,326,ls),
(383,326,o),
(460,263,o),
(460,213,qs),
(460,132,o),
(348,58,o),
(256,58,qs),
(141,58,l),
(165,175,l)
);
},
{
closed = 1;
nodes = (
(340,598,ls),
(414,598,o),
(483,549,o),
(483,503,qs),
(483,448,o),
(392,379,o),
(299,379,qs),
(206,379,l),
(250,598,l)
);
}
);
width = 605;
}
);
note = uni0243;
unicode = 579;
},
{
glyphname = Eogonek;
layers = (
{
layerId = m01;
shapes = (
{
closed = 1;
nodes = (
(382,-188,q),
(365,-146,l),
(347,-157,o),
(330,-157,qs),
(314,-157,o),
(293,-137,o),
(293,-119,qs),
(293,-98,o),
(324,-45,o),
(375,-3,o),
(405,0,q),
(419,66,l),
(125,66,l),
(176,312,l),
(415,312,l),
(429,378,l),
(188,378,l),
(230,591,l),
(515,591,l),
(528,656,l),
(166,656,l),
(35,0,l),
(322,0,l),
(303,-13,o),
(259,-58,o),
(228,-113,o),
(228,-142,qs),
(228,-176,o),
(272,-211,o),
(306,-211,qs),
(346,-211,o)
);
}
);
width = 503;
}
);
note = Eogonek;
unicode = 280;
},
{
glyphname = Eogonek.d;
layers = (
{
layerId = m01;
shapes = (
{
closed = 1;
nodes = (
(267,-198,o),
(283,-188,q),
(266,-146,l),
(248,-157,o),
(230,-157,qs),
(215,-157,o),
(194,-137,o),
(194,-119,qs),
(194,-96,o),
(228,-41,o),
(281,0,o),
(311,0,qs),
(405,0,l),
(419,66,l),
(125,66,l),
(176,312,l),
(415,312,l),
(429,378,l),
(188,378,l),
(230,591,l),
(515,591,l),
(528,656,l),
(166,656,l),
(35,0,l),
(225,0,l),
(186,-25,o),
(129,-102,o),
(129,-142,qs),
(129,-176,o),
(173,-211,o),
(207,-211,qs),
(224,-211,o)
);
}
);
width = 503;
}
);
note = Eogonek.d;
},
{
glyphname = uni1E16;
layers = (
{
layerId = m01;
shapes = (
{
closed = 1;
nodes = (
(419,66,l),
(125,66,l),
(176,312,l),
(415,312,l),
(429,378,l),
(188,378,l),
(230,591,l),
(515,591,l),
(528,656,l),
(166,656,l),
(35,0,l),
(405,0,l)
);
},
{
closed = 1;
nodes = (
(507,783,l),
(251,783,l),
(240,729,l),
(496,729,l)
);
},
{
closed = 1;
nodes = (
(471,965,l),
(355,856,l),
(388,827,l),
(517,925,l)
);
}
);
width = 503;
}
);
note = uni1E16;
unicode = 7702;
},
{
glyphname = uni0193;
kernLeft = C;
kernRight = G;
layers = (
{
layerId = m01;
shapes = (
{
closed = 1;
nodes = (
(450,25,o),
(486,55,q),
(543,339,l),
(337,339,l),
(324,275,l),
(460,275,l),
(423,94,l),
(404,78,o),
(347,54,o),
(311,54,qs),
(248,54,o),
(172,108,o),
(137,202,o),
(137,260,qs),
(137,320,o),
(173,440,o),
(242,540,o),
(340,601,o),
(402,601,qs),
(442,601,o),
(497,571,o),
(516,546,q),
(571,587,l),
(561,613,o),
(552,657,o),
(553,680,qs),
(555,708,o),
(589,741,o),
(615,739,qs),
(626,738,o),
(640,731,o),
(647,727,q),
(672,782,l),
(662,788,o),
(635,800,o),
(616,801,qs),
(566,806,o),
(494,747,o),
(489,696,qs),
(488,685,o),
(490,663,o),
(491,652,q),
(473,660,o),
(430,668,o),
(406,668,qs),
(325,668,o),
(196,598,o),
(105,479,o),
(57,331,o),
(57,253,qs),
(57,133,o),
(182,-12,o),
(300,-12,qs),
(356,-12,o)
);
}
);
width = 588;
}
);
note = uni0193;
unicode = 403;
},
{
glyphname = Hbar;
kernLeft = Hbar;
kernRight = Hbar;
layers = (
{
layerId = m01;
shapes = (
{
closed = 1;
nodes = (
(190,312,l),
(486,312,l),
(423,0,l),
(501,0,l),
(599,489,l),
(672,489,l),
(683,540,l),
(609,540,l),
(632,656,l),
(555,656,l),
(532,540,l),
(236,540,l),
(259,656,l),
(181,656,l),
(158,540,l),
(85,537,l),
(75,489,l),
(148,489,l),
(50,0,l),
(128,0,l)
);
},
{
closed = 1;
nodes = (
(521,489,l),
(499,379,l),
(203,379,l),
(225,489,l)
);
}
);
width = 654;
}
);
note = Hbar;
unicode = 294;
},
{
glyphname = Iogonek;
layers = (
{
layerId = m01;
shapes = (
{
closed = 1;
nodes = (
(115,-188,q),
(97,-146,l),
(81,-157,o),
(62,-157,qs),
(47,-157,o),
(26,-137,o),
(26,-119,qs),
(26,-90,o),
(75,-23,o),
(113,0,q),
(244,656,l),
(166,656,l),
(35,0,l),
(50,0,l),
(33,-13,o),
(-9,-58,o),
(-39,-113,o),
(-39,-142,qs),
(-39,-176,o),
(4,-211,o),
(37,-211,qs),
(77,-211,o)
);
}
);
width = 252;
}
);
note = Iogonek;
unicode = 302;
},
{
glyphname = Lcaron;
kernRight = Lcaron;
layers = (
{
layerId = m01;
shapes = (
{
closed = 1;
nodes = (
(402,66,l),
(126,66,l),
(244,656,l),
(166,656,l),
(35,0,l),
(389,0,l)
);
},
{
closed = 1;
nodes = (
(453,667,l),
(464,724,l),
(410,724,l),
(370,512,l),
(409,512,l)
);
}
);
width = 462;
}
);
note = Lcaron;
unicode = 317;
},
{
glyphname = Lslash;
kernRight = L;
layers = (
{
layerId = m01;
shapes = (
{
closed = 1;
nodes = (
(402,66,l),
(126,66,l),
(168,277,l),
(383,380,l),
(362,433,l),
(182,344,l),
(244,656,l),
(166,656,l),
(96,305,l),
(-9,255,l),
(11,202,l),
(82,237,l),
(35,0,l),
(389,0,l)
);
}
);
width = 462;
}
);
note = Lslash;
unicode = 321;
},
{
glyphname = uni1E52;
kernLeft = C;
kernRight = D;
layers = (
{
layerId = m01;
shapes = (
{
closed = 1;
nodes = (
(474,57,o),
(560,174,o),
(606,319,o),
(606,394,qs),
(606,477,o),
(554,600,o),
(453,668,o),
(379,668,qs),
(309,668,o),
(192,599,o),
(106,482,o),
(60,338,o),
(60,263,qs),
(60,139,o),
(177,-12,o),
(287,-12,qs),
(358,-12,o)
);
},
{
closed = 1;
nodes = (
(139,173,o),
(139,269,qs),
(139,327,o),
(173,444,o),
(235,542,o),
(322,601,o),
(375,601,qs),
(453,601,o),
(527,484,o),
(527,387,qs),
(527,330,o),
(493,213,o),
(431,115,o),
(344,55,o),
(291,55,qs),
(212,55,o)
);
},
{
closed = 1;
nodes = (
(554,783,l),
(298,783,l),
(287,729,l),
(543,729,l)
);
},
{
closed = 1;
nodes = (
(518,965,l),
(402,856,l),
(435,827,l),
(564,925,l)
);
}
);
width = 633;
}
);
note = uni1E52;
unicode = 7762;
},
{
glyphname = Oslash;
kernLeft = C;
kernRight = D;
layers = (
{
layerId = m01;
shapes = (
{
closed = 1;
nodes = (
(150,26,o),
(233,-12,o),
(287,-12,qs),
(358,-12,o),
(474,57,o),
(560,174,o),
(606,319,o),
(606,394,qs),
(606,484,o),
(576,548,q),
(673,652,l),
(637,687,l),
(548,592,l),
(520,629,o),
(435,668,o),
(379,668,qs),
(309,668,o),
(192,599,o),
(106,482,o),
(60,338,o),
(60,263,qs),
(60,172,o),
(92,106,q),
(-3,5,l),
(37,-30,l),
(121,60,l)
);
},
{
closed = 1;
nodes = (
(173,444,o),
(235,542,o),
(322,601,o),
(375,601,qs),
(416,601,o),
(476,567,o),
(495,535,q),
(151,169,l),
(139,213,o),
(139,269,qs),
(139,327,o)
);
},
{
closed = 1;
nodes = (
(193,88,o),
(174,117,q),
(516,483,l),
(521,462,o),
(527,414,o),
(527,387,qs),
(527,330,o),
(493,213,o),
(431,115,o),
(344,55,o),
(291,55,qs),
(251,55,o)
);
}
);
width = 633;
}
);
note = Oslash;
unicode = 216;
},
{
glyphname = OE;
kernLeft = C;
layers = (
{
layerId = m01;
shapes = (
{
closed = 1;
nodes = (
(732,66,l),
(456,66,l),
(507,312,l),
(728,312,l),
(742,378,l),
(519,378,l),
(562,591,l),
(827,591,l),
(841,656,l),
(415,656,ls),
(304,656,o),
(145,556,o),
(60,376,o),
(60,256,qs),
(60,135,o),
(202,0,o),
(338,0,qs),
(718,0,l)
);
},
{
closed = 1;
nodes = (
(139,168,o),
(139,261,qs),
(139,359,o),
(206,509,o),
(330,593,o),
(415,593,qs),
(486,593,l),
(380,64,l),
(341,64,ls),
(242,64,o)
);
}
);
width = 816;
}
);
note = OE;
unicode = 338;
},
{
glyphname = Ohorn;
kernLeft = C;
kernRight = Ohorn;
layers = (
{
layerId = m01;
shapes = (
{
closed = 1;
nodes = (
(474,57,o),
(560,174,o),
(606,319,o),
(606,394,qs),
(606,462,o),
(571,570,o),
(536,606,q),
(589,617,o),
(658,685,o),
(658,741,qs),
(658,769,o),
(647,798,q),
(584,776,l),
(589,765,o),
(593,744,o),
(593,735,qs),
(593,696,o),
(540,645,o),
(492,640,q),
(444,668,o),
(379,668,qs),
(309,668,o),
(192,599,o),
(106,482,o),
(60,338,o),
(60,263,qs),
(60,139,o),
(177,-12,o),
(287,-12,qs),
(358,-12,o)
);
},
{
closed = 1;
nodes = (
(139,173,o),
(139,269,qs),
(139,327,o),
(173,444,o),
(235,542,o),
(322,601,o),
(375,601,qs),
(453,601,o),
(527,484,o),
(527,387,qs),
(527,330,o),
(493,213,o),
(431,115,o),
(344,55,o),
(291,55,qs),
(212,55,o)
);
}
);
width = 633;
}
);
note = Ohorn;
unicode = 416;
},
{
glyphname = uni01EA;
kernLeft = C;
kernRight = D;
layers = (
{
layerId = m01;
shapes = (
{
closed = 1;
nodes = (
(329,-188,q),
(312,-146,l),
(296,-157,o),
(277,-157,qs),
(261,-157,o),
(240,-137,o),
(240,-119,qs),
(240,-91,o),
(292,-21,o),
(351,-5,qs),
(411,12,o),
(505,91,o),
(571,201,o),
(606,328,o),
(606,394,qs),
(606,477,o),
(554,600,o),
(453,668,o),
(379,668,qs),
(309,668,o),
(192,599,o),
(106,482,o),
(60,338,o),
(60,263,qs),
(60,147,o),
(162,-1,o),
(259,-11,q),
(226,-34,o),
(176,-104,o),
(176,-142,qs),
(176,-176,o),
(219,-211,o),
(253,-211,qs),
(293,-211,o)
);
},
{
closed = 1;
nodes = (
(139,173,o),
(139,269,qs),
(139,327,o),
(173,444,o),
(235,542,o),
(322,601,o),
(375,601,qs),
(453,601,o),
(527,484,o),
(527,387,qs),
(527,330,o),
(493,213,o),
(431,115,o),
(344,55,o),
(291,55,qs),
(212,55,o)
);
}
);
width = 633;
}
);
note = uni01EA;
unicode = 490;
},
{
glyphname = uni1E9E;
kernRight = uni1E9E;
layers = (
{
layerId = m01;
shapes = (
{
closed = 1;
nodes = (
(538,40,o),
(588,130,o),
(588,185,qs),
(588,240,o),
(506,333,o),
(428,358,q),
(593,501,l),
(576,593,o),
(467,672,o),
(384,672,qs),
(310,672,o),
(202,611,o),
(136,504,o),
(122,436,qs),
(35,0,l),
(113,0,l),
(194,414,ls),
(214,512,o),
(312,608,o),
(379,608,qs),
(430,608,o),
(499,562,o),
(515,513,q),
(350,367,l),
(344,318,l),
(436,294,o),
(509,217,o),
(509,178,qs),
(509,144,o),
(476,86,o),
(422,52,o),
(388,52,qs),
(344,52,o),
(284,90,o),
(262,122,q),
(214,75,l),
(278,-12,o),
(391,-12,qs),
(450,-12,o)
);
}
);
width = 633;
}
);
note = uni1E9E;
unicode = 7838;
},
{
glyphname = uni0166;
kernLeft = T;
kernRight = T;
layers = (
{
layerId = m01;
shapes = (
{
closed = 1;
nodes = (
(306,312,l),
(425,312,l),
(435,363,l),
(316,363,l),
(361,589,l),
(552,589,l),
(565,656,l),
(106,656,l),
(93,589,l),
(283,589,l),
(238,363,l),
(204,363,l),
(117,360,l),
(107,312,l),
(228,312,l),
(166,0,l),
(244,0,l)
);
}
);
width = 510;
}
);
note = uni0166;
unicode = 358;
},
{
glyphname = Uhorn;
kernLeft = U;
kernRight = Uhorn;
layers = (
{
layerId = m01;
shapes = (
{
closed = 1;
nodes = (
(504,109,o),
(532,251,qs),
(607,621,l),
(663,630,o),
(740,694,o),
(740,751,qs),
(740,777,o),
(728,808,q),
(666,787,l),
(671,775,o),
(674,755,o),
(674,745,qs),
(674,705,o),
(619,659,o),
(569,656,qs),
(538,656,l),
(457,254,ls),
(436,147,o),
(346,55,o),
(290,55,qs),
(221,55,o),
(157,132,o),
(157,202,qs),
(157,236,o),
(166,281,qs),
(241,656,l),
(163,656,l),
(89,288,ls),
(85,263,o),
(79,216,o),
(79,195,qs),
(79,93,o),
(186,-12,o),
(286,-12,qs),
(374,-12,o)
);
}
);
width = 629;
}
);
note = Uhorn;
unicode = 431;
},
{
glyphname = Uogonek;
kernLeft = U;
kernRight = U;
layers = (
{
layerId = m01;
shapes = (
{
closed = 1;
nodes = (
(319,-188,q),
(302,-146,l),
(284,-157,o),
(266,-157,qs),
(251,-157,o),
(230,-137,o),
(230,-119,qs),
(230,-93,o),
(281,-26,o),
(339,-7,qs),
(390,11,o),
(465,70,o),
(517,172,o),
(532,251,qs),
(614,656,l),
(538,656,l),
(457,254,ls),
(436,147,o),
(346,55,o),
(290,55,qs),
(221,55,o),
(157,132,o),
(157,202,qs),
(157,236,o),
(166,281,qs),
(241,656,l),
(163,656,l),
(89,288,ls),
(85,263,o),
(79,216,o),
(79,195,qs),
(79,104,o),
(167,1,o),
(249,-10,q),
(229,-25,o),
(190,-68,o),
(165,-118,o),
(165,-142,qs),
(165,-176,o),
(209,-211,o),
(243,-211,qs),
(281,-211,o)
);
}
);
width = 616;
}
);
note = Uogonek;
unicode = 370;
},
{
glyphname = Eth;
kernLeft = uni0243;
kernRight = D;
layers = (
{
layerId = m01;
shapes = (
{
closed = 1;
nodes = (
(340,0,o),
(499,101,o),
(584,281,o),
(584,400,qs),
(584,521,o),
(443,656,o),
(306,656,qs),
(184,656,l),
(126,368,l),
(56,365,l),
(47,324,l),
(118,324,l),
(53,0,l),
(229,0,ls)
);
},
{
closed = 1;
nodes = (
(344,324,l),
(354,368,l),
(204,368,l),
(249,593,l),
(303,593,ls),
(402,593,o),
(505,488,o),
(505,395,qs),
(505,298,o),
(438,148,o),
(314,64,o),
(229,64,qs),
(143,64,l),
(195,324,l)
);
}
);
width = 610;
}
);
note = Eth;
unicode = 208;
},
{
glyphname = Thorn;
kernRight = Thorn;
layers = (
{
layerId = m01;
shapes = (
{
closed = 1;
nodes = (
(142,152,l),
(248,152,ls),
(332,152,o),
(461,201,o),
(535,305,o),
(535,385,qs),
(535,470,o),
(425,545,o),
(336,545,qs),
(221,545,l),
(244,660,l),
(166,660,l),
(35,0,l),
(112,0,l)
);
},
{
closed = 1;
nodes = (
(313,482,ls),
(384,482,o),
(458,431,o),
(458,374,qs),
(458,296,o),
(352,215,o),
(250,215,qs),
(156,215,l),
(208,482,l)
);
}
);
width = 562;
}
);
note = Thorn;
unicode = 222;
},
{
glyphname = uni018F;
kernLeft = uni018F;
kernRight = D;
layers = (
{
layerId = m01;
shapes = (
{
closed = 1;
nodes = (
(466,49,o),
(558,159,o),
(610,309,o),
(610,399,qs),
(610,523,o),
(502,672,o),
(390,672,qs),
(331,672,o),
(229,627,o),
(192,593,q),
(227,540,l),
(259,568,o),
(336,606,o),
(382,606,qs),
(465,606,o),
(533,488,o),
(533,390,qs),
(533,379,o),
(532,356,o),
(531,345,q),
(79,345,l),
(72,316,o),
(63,266,o),
(63,234,qs),
(63,162,o),
(114,51,o),
(210,-12,o),
(278,-12,qs),
(346,-12,o)
);
},
{
closed = 1;
nodes = (
(124,177,o),
(139,286,q),
(521,286,l),
(505,217,o),
(435,113,o),
(339,54,o),
(283,54,qs),
(207,54,o)
);
}
);
width = 636;
}
);
note = uni018F;
unicode = 399;
},
{
glyphname = uni014A;
kernRight = D;
layers = (
{
layerId = m01;
shapes = (
{
closed = 1;
nodes = (
(488,62,o),
(553,190,o),
(588,353,o),
(588,441,qs),
(588,563,o),
(489,668,o),
(409,668,qs),
(366,668,o),
(266,621,o),
(226,584,q),
(241,656,l),
(166,656,l),
(35,0,l),
(113,0,l),
(214,511,l),
(257,555,o),
(353,601,o),
(387,601,qs),
(442,601,o),
(509,527,o),
(509,434,qs),
(509,364,o),
(481,229,o),
(433,120,o),
(372,55,o),
(339,55,qs),
(324,55,o),
(303,62,o),
(293,68,q),
(262,6,l),
(276,-2,o),
(324,-12,o),
(345,-12,qs),
(399,-12,o)
);
}
);
width = 612;
}
);
note = uni014A;
unicode = 330;
},
{
glyphname = uni0132;
layers = (
{
layerId = m01;
shapes = (
{
closed = 1;
nodes = (
(347,-74,o),
(361,-5,qs),
(493,656,l),
(415,656,l),
(283,-7,ls),
(274,-50,o),
(239,-98,o),
(211,-98,qs),
(195,-98,o),
(175,-90,o),
(166,-84,q),
(140,-143,l),
(157,-152,o),
(192,-162,o),
(215,-162,qs),
(278,-162,o)
);
},
{
closed = 1;
nodes = (
(244,656,l),
(166,656,l),
(35,0,l),
(113,0,l)
);
}
);
width = 498;
}
);
note = uni0132;
unicode = 306;
},
{
glyphname = aogonek;
kernLeft = a;
kernRight = a;
layers = (
{
layerId = m01;
shapes = (
{
closed = 1;
nodes = (
(370,-191,o),
(387,-181,q),
(371,-143,l),
(352,-155,o),
(333,-155,qs),
(318,-155,o),
(297,-135,o),
(297,-118,qs),
(297,-85,o),
(356,-23,o),
(407,0,q),
(504,486,l),
(442,486,l),
(423,425,l),
(419,425,l),
(402,458,o),
(341,498,o),
(302,498,qs),
(251,498,o),
(157,447,o),
(83,355,o),
(39,234,o),
(39,164,qs),
(39,79,o),
(115,-12,o),
(179,-12,qs),
(225,-12,o),
(313,35,o),
(348,72,q),
(352,72,l),
(345,6,l),
(320,-8,o),
(269,-54,o),
(236,-109,o),
(236,-139,qs),
(236,-172,o),
(278,-206,o),
(311,-206,qs),
(328,-206,o)
);
},
{
closed = 1;
nodes = (
(118,113,o),
(118,176,qs),
(118,226,o),
(149,319,o),
(202,392,o),
(269,434,o),
(305,434,qs),
(333,434,o),
(383,400,o),
(404,362,q),
(360,145,l),
(324,98,o),
(245,52,o),
(207,52,qs),
(167,52,o)
);
}
);
width = 537;
}
);
note = aogonek;
unicode = 261;
},
{
glyphname = aogonek.d;
kernLeft = a;
kernRight = a;
layers = (
{
layerId = m01;
shapes = (
{
closed = 1;
nodes = (
(248,-188,o),
(265,-178,q),
(249,-140,l),
(230,-152,o),
(211,-152,qs),
(196,-152,o),
(175,-132,o),
(175,-115,qs),
(175,-87,o),
(215,-27,o),
(249,-5,qs),
(275,12,o),
(325,49,o),
(348,72,q),
(352,72,l),
(344,0,l),
(407,0,l),
(504,486,l),
(442,486,l),
(423,425,l),
(419,425,l),
(402,458,o),
(341,498,o),
(302,498,qs),
(251,498,o),
(157,447,o),
(83,355,o),
(39,234,o),
(39,164,qs),
(39,79,o),
(115,-12,o),
(179,-12,qs),
(181,-12,o),
(186,-12,o),
(188,-12,q),
(160,-35,o),
(114,-100,o),
(114,-136,qs),
(114,-170,o),
(156,-203,o),
(189,-203,qs),
(206,-203,o)
);
},
{
closed = 1;
nodes = (
(118,113,o),
(118,176,qs),
(118,226,o),
(149,319,o),
(202,392,o),
(269,434,o),
(305,434,qs),
(333,434,o),
(383,400,o),
(404,362,q),
(360,145,l),
(324,98,o),
(245,52,o),
(207,52,qs),
(167,52,o)
);
}
);
width = 537;
}
);
note = aogonek.d;
},
{
glyphname = ae;
kernLeft = ae;
kernRight = e;
layers = (
{
layerId = m01;
shapes = (
{
closed = 1;
nodes = (
(310,39,o),
(358,84,q),
(375,44,o),
(459,-12,o),
(511,-12,qs),
(558,-12,o),
(637,19,o),
(665,40,q),
(635,91,l),
(613,74,o),
(555,49,o),
(526,49,qs),
(463,49,o),
(394,146,o),
(407,229,q),
(711,229,l),
(716,243,o),
(728,294,o),
(728,322,qs),
(728,372,o),
(698,452,o),
(632,498,o),
(577,498,qs),
(531,498,o),
(444,447,o),
(410,403,q),
(402,451,o),
(337,498,o),
(287,498,qs),
(243,498,o),
(152,469,o),
(114,448,q),
(135,392,l),
(170,412,o),
(240,436,o),
(271,436,qs),
(316,436,o),
(355,389,o),
(355,345,qs),
(355,335,o),
(353,315,o),
(350,301,q),
(257,298,o),
(114,259,o),
(32,175,o),
(32,106,qs),
(32,49,o),
(106,-12,o),
(157,-12,qs),
(211,-12,o)
);
},
{
closed = 1;
nodes = (
(107,87,o),
(107,122,qs),
(107,183,o),
(231,247,o),
(340,250,q),
(335,218,o),
(334,167,o),
(338,135,q),
(297,92,o),
(216,49,o),
(185,49,qs),
(151,49,o)
);
},
{
closed = 1;
nodes = (
(476,398,o),
(538,437,o),
(568,437,qs),
(603,437,o),
(644,406,o),
(662,357,o),
(662,329,qs),
(662,316,o),
(659,293,o),
(657,281,q),
(415,281,l),
(427,328,o)
);
}
);
width = 761;
}
);
note = ae;
unicode = 230;
},
{
glyphname = uni0180;
kernRight = b;
layers = (
{
layerId = m01;
shapes = (
{
closed = 1;
nodes = (
(377,38,o),
(450,126,o),
(492,244,o),
(492,312,qs),
(492,392,o),
(416,478,o),
(352,478,qs),
(307,478,o),
(223,435,o),
(187,406,q),
(185,406,l),
(207,502,l),
(221,569,l),
(395,569,l),
(406,620,l),
(231,620,l),
(250,712,l),
(173,712,l),
(155,620,l),
(83,616,l),
(74,569,l),
(144,569,l),
(31,0,l),
(94,0,l),
(114,61,l),
(117,61,l),
(134,28,o),
(195,-12,o),
(234,-12,qs),
(284,-12,o)
);
},
{
closed = 1;
nodes = (
(413,357,o),
(413,301,qs),
(413,252,o),
(384,163,o),
(333,93,o),
(267,52,o),
(231,52,qs),
(203,52,o),
(152,86,o),
(132,124,q),
(174,335,l),
(209,372,o),
(290,414,o),
(324,414,qs),
(365,414,o)
);
}
);
width = 519;
}
);
note = uni0180;
unicode = 384;
},
{
glyphname = dcaron;
kernLeft = a;
kernRight = dcaron;
layers = (
{
layerId = m01;
shapes = (
{
closed = 1;
nodes = (
(313,35,o),
(348,72,q),
(352,72,l),
(344,0,l),
(407,0,l),
(551,712,l),
(474,712,l),
(436,522,l),
(420,427,l),
(417,427,l),
(399,459,o),
(341,498,o),
(302,498,qs),
(251,498,o),
(157,447,o),
(83,355,o),
(39,234,o),
(39,164,qs),
(39,79,o),
(115,-12,o),
(179,-12,qs),
(225,-12,o)
);
},
{
closed = 1;
nodes = (
(118,113,o),
(118,176,qs),
(118,226,o),
(149,319,o),
(202,392,o),
(269,434,o),
(305,434,qs),
(333,434,o),
(383,400,o),
(404,362,q),
(360,145,l),
(323,98,o),
(245,52,o),
(207,52,qs),
(167,52,o)
);
},
{
closed = 1;
nodes = (
(649,703,l),
(660,760,l),
(606,760,l),
(566,548,l),
(605,548,l)
);
}
);
width = 542;
}
);
note = dcaron;
unicode = 271;
},
{
glyphname = dcroat;
kernLeft = a;
layers = (
{
layerId = m01;
shapes = (
{
closed = 1;
nodes = (
(313,35,o),
(348,72,q),
(352,72,l),
(344,0,l),
(407,0,l),
(523,572,l),
(593,577,l),
(603,617,l),
(532,617,l),
(551,712,l),
(474,712,l),
(455,617,l),
(299,617,l),
(291,572,l),
(446,572,l),
(432,502,l),
(416,407,l),
(413,407,l),
(397,439,o),
(339,478,o),
(300,478,qs),
(250,478,o),
(156,427,o),
(82,339,o),
(39,226,o),
(39,164,qs),
(39,79,o),
(115,-12,o),
(179,-12,qs),
(225,-12,o)
);
},
{
closed = 1;
nodes = (
(118,113,o),
(118,176,qs),
(118,219,o),
(148,304,o),
(200,373,o),
(267,414,o),
(303,414,qs),
(331,414,o),
(381,380,o),
(400,342,q),
(360,145,l),
(323,98,o),
(245,52,o),
(207,52,qs),
(167,52,o)
);
}
);
width = 535;
}
);
note = dcroat;
unicode = 273;
},
{
glyphname = eogonek;
kernLeft = a;
kernRight = e;
layers = (
{
layerId = m01;
shapes = (
{
closed = 1;
nodes = (
(313,-191,o),
(330,-181,q),
(314,-143,l),
(295,-155,o),
(276,-155,qs),
(261,-155,o),
(240,-135,o),
(240,-118,qs),
(240,-88,o),
(301,-9,o),
(385,40,q),
(355,91,l),
(332,74,o),
(275,49,o),
(246,49,qs),
(204,49,o),
(137,86,o),
(105,165,o),
(114,227,q),
(430,227,l),
(435,241,o),
(447,293,o),
(447,322,qs),
(447,372,o),
(417,452,o),
(352,498,o),
(297,498,qs),
(249,498,o),
(157,454,o),
(82,372,o),
(37,260,o),
(37,191,qs),
(37,94,o),
(142,-12,o),
(228,-12,qs),
(243,-12,o),
(256,-9,q),
(225,-37,o),
(179,-103,o),
(179,-139,qs),
(179,-172,o),
(221,-206,o),
(253,-206,qs),
(271,-206,o)
);
},
{
closed = 1;
nodes = (
(235,437,o),
(288,437,qs),
(323,437,o),
(364,406,o),
(382,357,o),
(382,329,qs),
(382,315,o),
(379,291,o),
(377,279,q),
(122,279,l),
(141,351,o)
);
}
);
width = 481;
}
);
note = eogonek;
unicode = 281;
},
{
glyphname = eogonek.d;
kernLeft = a;
kernRight = e;
layers = (
{
layerId = m01;
shapes = (
{
closed = 1;
nodes = (
(251,-183,o),
(267,-173,q),
(251,-135,l),
(233,-147,o),
(214,-147,qs),
(198,-147,o),
(177,-127,o),
(177,-110,qs),
(177,-70,o),
(244,-19,o),
(288,-6,qs),
(317,2,o),
(362,24,o),
(385,40,q),
(355,91,l),
(332,74,o),
(275,49,o),
(246,49,qs),
(204,49,o),
(137,86,o),
(105,165,o),
(114,227,q),
(430,227,l),
(435,241,o),
(447,293,o),
(447,322,qs),
(447,372,o),
(417,452,o),
(352,498,o),
(297,498,qs),
(249,498,o),
(157,454,o),
(82,372,o),
(37,260,o),
(37,191,qs),
(37,104,o),
(122,1,o),
(193,-10,q),
(159,-33,o),
(116,-95,o),
(116,-131,qs),
(116,-164,o),
(159,-198,o),
(191,-198,qs),
(208,-198,o)
);
},
{
closed = 1;
nodes = (
(235,437,o),
(288,437,qs),
(323,437,o),
(364,406,o),
(382,357,o),
(382,329,qs),
(382,315,o),
(379,291,o),
(377,279,q),
(122,279,l),
(141,351,o)
);
}
);
width = 481;
}
);
note = eogonek.d;
},
{
glyphname = uni1E17;
kernLeft = a;
kernRight = e;
layers = (
{
layerId = m01;
shapes = (
{
closed = 1;
nodes = (
(356,19,o),
(385,40,q),
(355,91,l),
(332,74,o),
(275,49,o),
(246,49,qs),
(204,49,o),
(137,86,o),
(105,166,o),
(114,229,q),
(430,229,l),
(435,243,o),
(447,294,o),
(447,322,qs),
(447,372,o),
(417,452,o),
(352,498,o),
(297,498,qs),
(249,498,o),
(157,454,o),
(82,372,o),
(37,260,o),
(37,191,qs),
(37,94,o),
(142,-12,o),
(228,-12,qs),
(275,-12,o)
);
},
{
closed = 1;
nodes = (
(235,437,o),
(288,437,qs),
(323,437,o),
(364,406,o),
(382,357,o),
(382,329,qs),
(382,316,o),
(379,292,o),
(377,281,q),
(122,281,l),
(141,352,o)
);
},
{
closed = 1;
nodes = (
(456,655,l),
(202,655,l),
(192,601,l),
(447,601,l)
);
},
{
closed = 1;
nodes = (
(413,842,l),
(311,736,l),
(341,708,l),
(455,804,l)
);
}
);
width = 481;
}
);
note = uni1E17;
unicode = 7703;
},
{
glyphname = uni0123;
kernLeft = a;
kernRight = g;
layers = (
{
layerId = m01;
shapes = (
{
closed = 1;
nodes = (
(377,-118,o),
(396,-23,qs),
(498,486,l),
(435,486,l),
(416,425,l),
(413,425,l),
(396,458,o),
(334,498,o),
(296,498,qs),
(247,498,o),
(155,448,o),
(82,359,o),
(39,243,o),
(39,176,qs),
(39,91,o),
(119,5,o),
(180,5,qs),
(227,5,o),
(311,49,o),
(349,87,q),
(324,-17,ls),
(310,-81,o),
(236,-157,o),
(174,-157,qs),
(134,-157,o),
(65,-123,o),
(37,-100,q),
(1,-153,l),
(36,-182,o),
(122,-220,o),
(171,-220,qs),
(262,-220,o)
);
},
{
closed = 1;
nodes = (
(118,128,o),
(118,187,qs),
(118,235,o),
(148,323,o),
(199,393,o),
(264,434,o),
(299,434,qs),
(327,434,o),
(376,400,o),
(398,362,q),
(355,154,l),
(321,112,o),
(240,69,o),
(205,69,qs),
(165,69,o)
);
},
{
closed = 1;
nodes = (
(322,617,o),
(322,653,qs),
(322,675,o),
(379,704,o),
(439,705,q),
(439,745,l),
(360,743,o),
(257,693,o),
(257,643,qs),
(257,615,o),
(298,582,o),
(363,576,q),
(385,613,l)
);
}
);
width = 531;
}
);
note = uni0123;
unicode = 291;
},
{
glyphname = hbar;
kernRight = h;
layers = (
{
layerId = m01;
shapes = (
{
closed = 1;
nodes = (
(172,324,l),
(218,370,o),
(290,412,o),
(318,412,qs),
(390,412,o),
(390,337,qs),
(390,324,o),
(386,300,o),
(382,280,qs),
(326,0,l),
(402,0,l),
(460,290,ls),
(468,326,o),
(468,357,qs),
(468,413,o),
(415,478,o),
(353,478,qs),
(309,478,o),
(227,431,o),
(186,396,q),
(182,396,l),
(198,457,l),
(221,569,l),
(395,569,l),
(406,620,l),
(231,620,l),
(250,712,l),
(173,712,l),
(155,620,l),
(83,616,l),
(74,569,l),
(144,569,l),
(31,0,l),
(107,0,l)
);
}
);
width = 523;
}
);
note = hbar;
unicode = 295;
},
{
glyphname = dotlessi;
kernLeft = m;
kernRight = a;
layers = (
{
layerId = m01;
shapes = (
{
closed = 1;
nodes = (
(205,486,l),
(128,486,l),
(31,0,l),
(107,0,l)
);
}
);
width = 237;
}
);
note = dotlessi;
unicode = 305;
},
{
glyphname = kgreenlandic;
kernLeft = m;
kernRight = k;
layers = (
{
layerId = m01;
shapes = (
{
closed = 1;
nodes = (
(133,123,l),
(245,237,l),
(338,0,l),
(416,0,l),
(299,283,l),
(493,486,l),
(405,486,l),
(156,229,l),
(154,229,l),
(204,486,l),
(127,486,l),
(31,0,l),
(107,0,l)
);
}
);
width = 476;
}
);
note = kgreenlandic;
unicode = 312;
},
{
glyphname = lcaron;
kernRight = dcaron;
layers = (
{
layerId = m01;
shapes = (
{
closed = 1;
nodes = (
(147,-8,o),
(157,-4,q),
(156,55,l),
(149,53,o),
(143,52,o),
(140,52,qs),
(123,52,o),
(123,70,qs),
(123,73,o),
(124,82,o),
(125,89,qs),
(250,712,l),
(173,712,l),
(50,93,ls),
(44,68,o),
(44,51,qs),
(44,-12,o),
(109,-12,qs),
(125,-12,o)
);
},
{
closed = 1;
nodes = (
(350,703,l),
(361,760,l),
(307,760,l),
(267,548,l),
(306,548,l)
);
}
);
width = 243;
}
);
note = lcaron;
unicode = 318;
},
{
glyphname = lslash;
layers = (
{
layerId = m01;
shapes = (
{
closed = 1;
nodes = (
(162,-8,o),
(172,-4,q),
(171,55,l),
(164,53,o),
(158,52,o),
(155,52,qs),
(138,52,o),
(138,70,qs),
(138,73,o),
(139,82,o),
(140,89,qs),
(197,373,l),
(313,435,l),
(293,485,l),
(210,438,l),
(265,712,l),
(188,712,l),
(126,400,l),
(29,348,l),
(49,298,l),
(113,336,l),
(65,93,ls),
(59,68,o),
(59,51,qs),
(59,-12,o),
(124,-12,qs),
(140,-12,o)
);
}
);
width = 275;
}
);
note = lslash;
unicode = 322;
},
{
glyphname = uni1E53;
kernLeft = a;
kernRight = b;
layers = (
{
layerId = m01;
shapes = (
{
closed = 1;
nodes = (
(356,34,o),
(431,119,o),
(475,234,o),
(475,303,qs),
(475,394,o),
(380,498,o),
(301,498,qs),
(251,498,o),
(157,452,o),
(83,367,o),
(39,252,o),
(39,183,qs),
(39,92,o),
(133,-12,o),
(212,-12,qs),
(262,-12,o)
);
},
{
closed = 1;
nodes = (
(116,122,o),
(116,188,qs),
(116,256,o),
(167,368,o),
(248,435,o),
(293,435,qs),
(343,435,o),
(397,364,o),
(397,298,qs),
(397,230,o),
(346,118,o),
(265,52,o),
(220,52,qs),
(170,52,o)
);
},
{
closed = 1;
nodes = (
(471,655,l),
(217,655,l),
(207,601,l),
(462,601,l)
);
},
{
closed = 1;
nodes = (
(428,842,l),
(326,736,l),
(356,708,l),
(470,804,l)
);
}
);
width = 515;
}
);
note = uni1E53;
unicode = 7763;
},
{
glyphname = oslash;
kernLeft = a;
kernRight = b;
layers = (
{
layerId = m01;
shapes = (
{
closed = 1;
nodes = (
(141,324,o),
(192,395,o),
(258,436,o),
(295,436,qs),
(350,436,o),
(378,394,q),
(119,128,l),
(112,152,o),
(112,188,qs),
(112,235,o)
);
},
{
closed = 1;
nodes = (
(135,-12,o),
(212,-12,qs),
(262,-12,o),
(356,34,o),
(431,118,o),
(475,234,o),
(475,303,qs),
(475,365,o),
(452,411,q),
(519,480,l),
(489,508,l),
(428,445,l),
(381,498,o),
(301,498,qs),
(251,498,o),
(157,452,o),
(83,367,o),
(39,252,o),
(39,183,qs),
(39,118,o),
(64,71,q),
(0,5,l),
(29,-23,l),
(88,38,l)
);
},
{
closed = 1;
nodes = (
(137,88,q),
(396,353,l),
(402,329,o),
(402,297,qs),
(402,250,o),
(373,161,o),
(322,91,o),
(256,50,o),
(218,50,qs),
(164,50,o)
);
}
);
width = 515;
}
);
note = oslash;
unicode = 248;
},
{
glyphname = oe;
kernLeft = a;
kernRight = e;
layers = (
{
layerId = m01;
shapes = (
{
closed = 1;
nodes = (
(373,59,o),
(407,121,q),
(421,56,o),
(506,-12,o),
(567,-12,qs),
(611,-12,o),
(688,20,o),
(716,40,q),
(687,91,l),
(664,74,o),
(607,49,o),
(578,49,qs),
(541,49,o),
(482,85,o),
(454,165,o),
(461,229,q),
(762,229,l),
(767,243,o),
(779,294,o),
(779,322,qs),
(779,372,o),
(749,452,o),
(683,498,o),
(628,498,qs),
(579,498,o),
(479,432,o),
(447,372,q),
(433,433,o),
(358,498,o),
(297,498,qs),
(248,498,o),
(156,452,o),
(82,367,o),
(39,252,o),
(39,183,qs),
(39,92,o),
(132,-12,o),
(208,-12,qs),
(267,-12,o)
);
},
{
closed = 1;
nodes = (
(116,122,o),
(116,188,qs),
(116,256,o),
(167,368,o),
(247,435,o),
(290,435,qs),
(340,435,o),
(394,364,o),
(394,298,qs),
(394,230,o),
(343,118,o),
(264,52,o),
(220,52,qs),
(170,52,o)
);
},
{
closed = 1;
nodes = (
(571,437,o),
(620,437,qs),
(655,437,o),
(696,406,o),
(714,357,o),
(714,329,qs),
(714,304,o),
(708,281,q),
(469,281,l),
(486,352,o)
);
}
);
width = 812;
}
);
note = oe;
unicode = 339;
},
{
glyphname = ohorn;
kernLeft = a;
kernRight = ohorn;
layers = (
{
layerId = m01;
shapes = (
{
closed = 1;
nodes = (
(356,34,o),
(431,119,o),
(475,234,o),
(475,303,qs),
(475,347,o),
(452,416,o),
(431,441,q),
(480,454,o),
(553,525,o),
(553,583,qs),
(553,597,o),
(548,629,o),
(542,644,q),
(481,621,l),
(485,611,o),
(489,586,o),
(489,577,qs),
(487,535,o),
(435,482,o),
(392,475,q),
(352,498,o),
(301,498,qs),
(251,498,o),
(157,452,o),
(83,367,o),
(39,252,o),
(39,183,qs),
(39,92,o),
(133,-12,o),
(212,-12,qs),
(262,-12,o)
);
},
{
closed = 1;
nodes = (
(116,122,o),
(116,188,qs),
(116,256,o),
(167,368,o),
(248,435,o),
(293,435,qs),
(343,435,o),
(397,364,o),
(397,298,qs),
(397,230,o),
(346,118,o),
(265,52,o),
(220,52,qs),
(170,52,o)
);
}
);
width = 517;
}
);
note = ohorn;
unicode = 417;
},
{
glyphname = uni01EB;
kernLeft = a;
kernRight = b;
layers = (
{
layerId = m01;
shapes = (
{
closed = 1;
nodes = (
(230,-191,o),
(247,-181,q),
(231,-143,l),
(212,-155,o),
(193,-155,qs),
(178,-155,o),
(157,-135,o),
(157,-118,qs),
(157,-90,o),
(204,-26,o),
(266,-6,qs),
(331,15,o),
(425,106,o),
(475,231,o),
(475,303,qs),
(475,396,o),
(378,498,o),
(301,498,qs),
(251,498,o),
(157,452,o),
(83,367,o),
(39,252,o),
(39,183,qs),
(39,101,o),
(117,0,o),
(183,-10,q),
(148,-31,o),
(96,-101,o),
(96,-139,qs),
(96,-172,o),
(138,-206,o),
(171,-206,qs),
(188,-206,o)
);
},
{
closed = 1;
nodes = (
(116,122,o),
(116,188,qs),
(116,256,o),
(167,368,o),
(248,435,o),
(293,435,qs),
(343,435,o),
(397,364,o),
(397,298,qs),
(397,230,o),
(346,118,o),
(265,52,o),
(220,52,qs),
(170,52,o)
);
}
);
width = 515;
}
);
note = uni01EB;
unicode = 491;
},
{
glyphname = germandbls;
kernRight = germandbls;
layers = (
{
layerId = m01;
shapes = (
{
closed = 1;
nodes = (
(462,30,o),
(505,102,o),
(505,145,qs),
(505,182,o),
(475,233,o),
(431,271,o),
(388,303,o),
(358,338,o),
(358,361,qs),
(358,384,o),
(385,422,o),
(424,458,o),
(463,500,o),
(490,554,o),
(490,592,qs),
(490,659,o),
(406,724,o),
(346,724,qs),
(290,724,o),
(204,670,o),
(148,580,o),
(136,525,qs),
(31,0,l),
(107,0,l),
(209,507,ls),
(218,550,o),
(255,620,o),
(309,662,o),
(343,662,qs),
(382,662,o),
(416,618,o),
(416,584,qs),
(416,552,o),
(389,505,o),
(349,466,o),
(310,427,o),
(283,381,o),
(283,349,qs),
(283,318,o),
(313,275,o),
(358,239,o),
(403,205,o),
(433,164,o),
(433,135,qs),
(433,97,o),
(378,48,o),
(339,48,qs),
(308,48,o),
(257,70,o),
(234,89,q),
(199,38,l),
(230,13,o),
(302,-12,o),
(339,-12,qs),
(387,-12,o)
);
}
);
width = 555;
}
);
note = germandbls;
unicode = 223;
},
{
glyphname = tcaron;
kernLeft = t;
kernRight = t;
layers = (
{
layerId = m01;
shapes = (
{
closed = 1;
nodes = (
(261,3,o),
(277,10,q),
(260,65,l),
(249,60,o),
(223,50,o),
(209,50,qs),
(175,50,o),
(147,80,o),
(147,110,qs),
(147,128,o),
(150,146,qs),
(207,424,l),
(332,424,l),
(344,486,l),
(221,486,l),
(248,620,l),
(183,620,l),
(147,486,l),
(71,481,l),
(60,424,l),
(131,424,l),
(74,150,l),
(73,137,o),
(69,111,o),
(69,96,qs),
(69,51,o),
(121,-12,o),
(185,-12,qs),
(214,-12,o)
);
},
{
closed = 1;
nodes = (
(397,703,l),
(408,760,l),
(354,760,l),
(314,548,l),
(353,548,l)
);
}
);
width = 325;
}
);
note = tcaron;
unicode = 357;
},
{
glyphname = uni0167;
kernLeft = t;
kernRight = t;
layers = (
{
layerId = m01;
shapes = (
{
closed = 1;
nodes = (
(261,3,o),
(277,10,q),
(260,65,l),
(249,60,o),
(223,50,o),
(209,50,qs),
(175,50,o),
(147,80,o),
(147,110,qs),
(147,128,o),
(150,146,qs),
(167,230,l),
(291,230,l),
(302,282,l),
(178,282,l),
(207,424,l),
(332,424,l),
(344,486,l),
(221,486,l),
(248,620,l),
(183,620,l),
(147,486,l),
(71,481,l),
(60,424,l),
(131,424,l),
(101,281,l),
(29,277,l),
(20,230,l),
(91,230,l),
(74,150,l),
(73,137,o),
(69,111,o),
(69,96,qs),
(69,51,o),
(121,-12,o),
(185,-12,qs),
(214,-12,o)
);
}
);
width = 325;
}
);
note = uni0167;
unicode = 359;
},
{
glyphname = uhorn;
kernLeft = u;
kernRight = uhorn;
layers = (
{
layerId = m01;
shapes = (
{
closed = 1;
nodes = (
(299,39,o),
(339,74,q),
(343,74,l),
(335,0,l),
(398,0,l),
(488,452,l),
(516,460,o),
(569,495,o),
(603,553,o),
(603,593,qs),
(603,623,o),
(592,654,q),
(531,632,l),
(540,608,o),
(538,587,qs),
(537,542,o),
(482,490,o),
(446,486,q),
(419,486,l),
(350,142,l),
(306,96,o),
(235,54,o),
(206,54,qs),
(134,54,o),
(134,129,qs),
(134,142,o),
(138,167,o),
(142,186,qs),
(203,486,l),
(126,486,l),
(64,176,ls),
(60,157,o),
(56,126,o),
(56,109,qs),
(56,54,o),
(110,-12,o),
(171,-12,qs),
(215,-12,o)
);
}
);
width = 543;
}
);
note = uhorn;
unicode = 432;
},
{
glyphname = uogonek;
kernLeft = u;
kernRight = a;
layers = (
{
layerId = m01;
shapes = (
{
closed = 1;
nodes = (
(362,-191,o),
(378,-181,q),
(362,-143,l),
(344,-155,o),
(325,-155,qs),
(309,-155,o),
(288,-135,o),
(288,-118,qs),
(288,-85,o),
(348,-23,o),
(398,0,q),
(495,486,l),
(419,486,l),
(350,142,l),
(306,96,o),
(235,54,o),
(206,54,qs),
(134,54,o),
(134,129,qs),
(134,142,o),
(138,167,o),
(142,186,qs),
(203,486,l),
(126,486,l),
(64,176,ls),
(60,157,o),
(56,126,o),
(56,109,qs),
(56,54,o),
(110,-12,o),
(171,-12,qs),
(215,-12,o),
(299,39,o),
(339,74,q),
(343,74,l),
(337,6,l),
(311,-8,o),
(260,-54,o),
(227,-109,o),
(227,-139,qs),
(227,-172,o),
(270,-206,o),
(302,-206,qs),
(319,-206,o)
);
}
);
width = 528;
}
);
note = uogonek;
unicode = 371;
},
{
glyphname = uogonek.d;
kernLeft = u;
kernRight = a;
layers = (
{
layerId = m01;
shapes = (
{
closed = 1;
nodes = (
(237,-191,o),
(254,-181,q),
(238,-143,l),
(219,-155,o),
(200,-155,qs),
(185,-155,o),
(164,-135,o),
(164,-118,qs),
(164,-89,o),
(204,-29,o),
(235,-7,qs),
(264,13,o),
(313,52,o),
(339,74,q),
(343,74,l),
(335,0,l),
(398,0,l),
(495,486,l),
(419,486,l),
(350,142,l),
(306,96,o),
(235,54,o),
(206,54,qs),
(134,54,o),
(134,129,qs),
(134,142,o),
(138,167,o),
(142,186,qs),
(203,486,l),
(126,486,l),
(64,176,ls),
(60,157,o),
(56,126,o),
(56,109,qs),
(56,54,o),
(110,-12,o),
(171,-12,qs),
(173,-12,o),
(175,-12,o),
(176,-12,q),
(149,-35,o),
(103,-102,o),
(103,-139,qs),
(103,-172,o),
(145,-206,o),
(177,-206,qs),
(195,-206,o)
);
}
);
width = 528;
}
);
note = uogonek.d;
},
{
glyphname = eth;
layers = (
{
layerId = m01;
shapes = (
{
closed = 1;
nodes = (
(154,325,o),
(230,386,o),
(281,386,qs),
(320,386,o),
(376,339,o),
(395,309,q),
(391,239,o),
(346,122,o),
(273,52,o),
(225,52,qs),
(171,52,o),
(113,127,o),
(113,179,qs),
(113,231,o)
);
},
{
closed = 1;
nodes = (
(370,46,o),
(435,147,o),
(469,276,o),
(469,347,qs),
(469,423,o),
(431,546,o),
(397,595,q),
(530,650,l),
(514,691,l),
(369,631,l),
(344,660,o),
(282,710,o),
(247,730,q),
(211,684,l),
(239,666,o),
(287,627,o),
(306,605,q),
(171,549,l),
(187,508,l),
(334,569,l),
(388,491,o),
(395,376,q),
(373,409,o),
(310,447,o),
(274,447,qs),
(220,447,o),
(135,401,o),
(75,322,o),
(43,224,o),
(43,172,qs),
(43,119,o),
(88,36,o),
(167,-12,o),
(216,-12,qs),
(276,-12,o)
);
}
);
width = 524;
}
);
note = eth;
unicode = 240;
},
{
glyphname = thorn;
kernRight = b;
layers = (
{
layerId = m01;
shapes = (
{
closed = 1;
nodes = (
(97,-46,l),
(115,58,l),
(117,58,l),
(137,27,o),
(196,-12,o),
(234,-12,qs),
(284,-12,o),
(378,39,o),
(452,131,o),
(496,252,o),
(496,322,qs),
(496,407,o),
(420,498,o),
(356,498,qs),
(311,498,o),
(227,455,o),
(191,426,q),
(189,426,l),
(211,522,l),
(250,712,l),
(173,712,l),
(-10,-205,l),
(66,-205,l)
);
},
{
closed = 1;
nodes = (
(152,85,o),
(132,122,q),
(178,355,l),
(213,392,o),
(294,434,o),
(328,434,qs),
(369,434,o),
(417,373,o),
(417,311,qs),
(417,260,o),
(387,167,o),
(334,94,o),
(267,52,o),
(231,52,qs),
(203,52,o)
);
}
);
width = 535;
}
);
note = thorn;
unicode = 254;
},
{
glyphname = uni014B;
kernLeft = m;
layers = (
{
layerId = m01;
shapes = (
{
closed = 1;
nodes = (
(376,-131,o),
(390,-61,qs),
(464,310,ls),
(472,346,o),
(472,377,qs),
(472,433,o),
(419,498,o),
(357,498,qs),
(311,498,o),
(229,449,o),
(188,413,q),
(184,413,l),
(191,486,l),
(128,486,l),
(31,0,l),
(107,0,l),
(176,344,l),
(222,390,o),
(294,432,o),
(322,432,qs),
(394,432,o),
(394,357,qs),
(394,344,o),
(390,320,o),
(386,300,qs),
(313,-62,ls),
(303,-105,o),
(270,-154,o),
(242,-154,qs),
(226,-154,o),
(206,-147,o),
(196,-141,q),
(171,-198,l),
(188,-207,o),
(223,-217,o),
(246,-217,qs),
(308,-217,o)
);
}
);
width = 525;
}
);
note = uni014B;
unicode = 331;
},
{
glyphname = uni0237;
kernLeft = j;
layers = (
{
layerId = m01;
shapes = (
{
closed = 1;
nodes = (
(81,-131,o),
(95,-61,qs),
(206,486,l),
(129,486,l),
(18,-62,ls),
(8,-105,o),
(-25,-154,o),
(-53,-154,qs),
(-69,-154,o),
(-89,-147,o),
(-99,-141,q),
(-124,-198,l),
(-107,-207,o),
(-72,-217,o),
(-49,-217,qs),
(14,-217,o)
);
}
);
width = 238;
}
);
note = uni0237;
unicode = 567;
},
{
glyphname = uni0250;
kernLeft = u;
kernRight = e;
layers = (
{
layerId = m01;
shapes = (
{
closed = 1;
nodes = (
(359,21,o),
(402,46,q),
(378,98,l),
(340,77,o),
(268,50,o),
(233,50,qs),
(184,50,o),
(140,92,o),
(140,139,qs),
(140,149,o),
(142,167,o),
(145,180,q),
(300,193,o),
(469,301,o),
(469,394,qs),
(469,444,o),
(408,498,o),
(361,498,qs),
(315,498,o),
(224,453,o),
(189,423,q),
(186,423,l),
(191,486,l),
(128,486,l),
(71,198,ls),
(68,182,o),
(64,148,o),
(64,134,qs),
(64,57,o),
(145,-12,o),
(218,-12,qs),
(264,-12,o)
);
},
{
closed = 1;
nodes = (
(219,400,o),
(293,437,o),
(327,437,qs),
(355,437,o),
(394,402,o),
(394,370,qs),
(394,311,o),
(265,243,o),
(154,235,q),
(180,366,l)
);
}
);
width = 489;
}
);
note = uni0250;
unicode = 592;
},
{
glyphname = uni0252;
kernRight = b;
layers = (
{
layerId = m01;
shapes = (
{
closed = 1;
nodes = (
(383,39,o),
(457,131,o),
(501,252,o),
(501,322,qs),
(501,408,o),
(425,498,o),
(361,498,qs),
(315,498,o),
(229,452,o),
(191,419,q),
(188,419,l),
(191,431,o),
(193,444,o),
(193,448,qs),
(189,476,o),
(158,498,o),
(135,498,qs),
(122,498,o),
(98,494,o),
(87,490,q),
(88,431,l),
(95,434,o),
(101,435,o),
(103,435,qs),
(118,435,o),
(118,419,qs),
(118,416,o),
(118,408,o),
(116,401,qs),
(35,0,l),
(99,0,l),
(119,61,l),
(122,61,l),
(139,28,o),
(199,-12,o),
(238,-12,qs),
(289,-12,o)
);
},
{
closed = 1;
nodes = (
(157,86,o),
(136,124,q),
(183,354,l),
(218,392,o),
(299,434,o),
(333,434,qs),
(374,434,o),
(422,373,o),
(422,311,qs),
(422,260,o),
(391,167,o),
(338,94,o),
(271,52,o),
(235,52,qs),
(207,52,o)
);
}
);
width = 539;
}
);
note = uni0252;
unicode = 594;
},
{
glyphname = uni0253;
kernRight = b;
layers = (
{
layerId = m01;
shapes = (
{
closed = 1;
nodes = (
(377,39,o),
(451,129,o),
(494,249,o),
(494,318,qs),
(494,402,o),
(419,491,o),
(354,491,qs),
(309,491,o),
(226,448,o),
(189,419,q),
(187,419,l),
(210,515,l),
(221,570,ls),
(231,614,o),
(277,662,o),
(314,662,qs),
(333,662,o),
(365,651,o),
(378,642,q),
(405,697,l),
(385,710,o),
(339,724,o),
(309,724,qs),
(241,724,o),
(159,642,o),
(144,565,qs),
(31,0,l),
(94,0,l),
(114,61,l),
(117,61,l),
(134,28,o),
(195,-12,o),
(234,-12,qs),
(284,-12,o)
);
},
{
closed = 1;
nodes = (
(152,86,o),
(132,124,q),
(177,348,l),
(211,385,o),
(293,426,o),
(327,426,qs),
(368,426,o),
(416,367,o),
(416,307,qs),
(416,257,o),
(386,166,o),
(334,94,o),
(267,52,o),
(231,52,qs),
(203,52,o)
);
}
);
width = 536;
}
);
note = uni0253;
unicode = 595;
},
{
glyphname = uniA7B5;
layers = (
{
layerId = m01;
shapes = (
{
closed = 1;
nodes = (
(129,-46,l),
(146,57,l),
(172,20,o),
(254,-12,o),
(298,-12,qs),
(355,-12,o),
(452,44,o),
(517,141,o),
(524,201,qs),
(533,259,o),
(503,333,o),
(443,374,o),
(407,381,q),
(408,385,l),
(462,406,o),
(537,500,o),
(544,558,qs),
(551,614,o),
(514,688,o),
(444,724,o),
(400,724,qs),
(306,724,o),
(181,595,o),
(160,491,qs),
(19,-205,l),
(97,-205,l)
);
},
{
closed = 1;
nodes = (
(186,83,o),
(163,125,q),
(235,483,ls),
(253,572,o),
(334,660,o),
(388,660,qs),
(427,660,o),
(473,603,o),
(464,547,qs),
(455,486,o),
(375,401,o),
(308,401,qs),
(300,401,l),
(289,348,l),
(309,348,ls),
(385,348,o),
(456,272,o),
(445,200,qs),
(439,155,o),
(393,89,o),
(329,53,o),
(294,53,qs),
(257,53,o)
);
}
);
width = 540;
}
);
note = uniA7B5;
unicode = 42933;
},
{
glyphname = uni0255;
kernLeft = a;
kernRight = c;
layers = (
{
layerId = m01;
shapes = (
{
closed = 1;
nodes = (
(335,125,o),
(333,109,qs),
(329,85,o),
(274,52,o),
(236,52,qs),
(185,52,o),
(155,77,q),
(191,112,o),
(262,152,o),
(290,152,qs),
(316,152,o)
);
},
{
closed = 1;
nodes = (
(91,2,o),
(107,23,q),
(153,-12,o),
(221,-12,qs),
(269,-12,o),
(348,24,o),
(396,83,o),
(399,119,qs),
(403,159,o),
(354,211,o),
(306,211,qs),
(263,211,o),
(171,163,o),
(126,119,q),
(115,149,o),
(115,188,qs),
(115,255,o),
(169,367,o),
(255,435,o),
(303,435,qs),
(332,435,o),
(370,414,o),
(389,391,q),
(434,439,l),
(412,464,o),
(352,498,o),
(308,498,qs),
(255,498,o),
(158,451,o),
(81,366,o),
(37,251,o),
(37,183,qs),
(37,145,o),
(56,82,o),
(73,58,q),
(54,34,o),
(18,-19,o),
(1,-49,q),
(49,-69,l),
(62,-43,o)
);
}
);
width = 449;
}
);
note = uni0255;
unicode = 597;
},
{
glyphname = uniAB53;
layers = (
{
layerId = m01;
shapes = (
{
closed = 1;
nodes = (
(156,-7,ls),
(171,19,o),
(210,84,o),
(223,109,q),
(227,109,l),
(231,84,o),
(244,22,o),
(250,-7,qs),
(294,-205,l),
(380,-205,l),
(284,167,l),
(504,486,l),
(421,486,l),
(321,332,ls),
(308,310,o),
(268,250,o),
(254,228,q),
(250,228,l),
(246,250,o),
(231,309,o),
(226,332,qs),
(186,486,l),
(101,486,l),
(193,169,l),
(-50,-205,l),
(32,-205,l)
);
}
);
width = 447;
}
);
note = uniAB53;
unicode = 43859;
},
{
glyphname = uni0256;
kernLeft = a;
layers = (
{
layerId = m01;
shapes = (
{
closed = 1;
nodes = (
(459,-207,o),
(471,-202,q),
(458,-145,l),
(451,-148,o),
(433,-154,o),
(422,-154,qs),
(389,-154,o),
(389,-113,qs),
(389,-93,o),
(394,-72,qs),
(551,712,l),
(474,712,l),
(436,522,l),
(420,427,l),
(417,427,l),
(399,459,o),
(341,498,o),
(302,498,qs),
(251,498,o),
(157,447,o),
(83,355,o),
(39,234,o),
(39,164,qs),
(39,79,o),
(115,-12,o),
(179,-12,qs),
(225,-12,o),
(313,35,o),
(350,73,q),
(352,73,l),
(337,2,o),
(321,-76,o),
(316,-117,o),
(316,-133,qs),
(316,-217,o),
(399,-217,qs),
(419,-217,o)
);
},
{
closed = 1;
nodes = (
(118,113,o),
(118,176,qs),
(118,226,o),
(149,319,o),
(202,392,o),
(269,434,o),
(305,434,qs),
(333,434,o),
(383,400,o),
(404,362,q),
(360,145,l),
(323,98,o),
(245,52,o),
(207,52,qs),
(167,52,o)
);
}
);
width = 537;
}
);
note = uni0256;
unicode = 598;
},
{
glyphname = uni0257;
kernLeft = a;
layers = (
{
layerId = m01;
shapes = (
{
closed = 1;
nodes = (
(313,35,o),
(348,72,q),
(352,72,l),
(344,0,l),
(407,0,l),
(522,572,ls),
(533,622,o),
(568,662,o),
(596,662,qs),
(605,662,o),
(621,657,o),
(626,655,q),
(650,712,l),
(641,717,o),
(614,724,o),
(599,724,qs),
(536,724,o),
(464,651,o),
(450,580,qs),
(437,519,l),
(420,427,l),
(417,427,l),
(399,459,o),
(341,498,o),
(302,498,qs),
(251,498,o),
(157,447,o),
(83,355,o),
(39,234,o),
(39,164,qs),
(39,79,o),
(115,-12,o),
(179,-12,qs),
(225,-12,o)
);
},
{
closed = 1;
nodes = (
(118,113,o),
(118,176,qs),
(118,226,o),
(149,319,o),
(202,392,o),
(269,434,o),
(305,434,qs),
(333,434,o),
(383,400,o),
(404,362,q),
(360,145,l),
(323,98,o),
(245,52,o),
(207,52,qs),
(167,52,o)
);
}
);
width = 537;
}
);
note = uni0257;
unicode = 599;
},
{
glyphname = uni0258;
kernRight = b;
layers = (
{
layerId = m01;
shapes = (
{
closed = 1;
nodes = (
(334,39,o),
(407,129,o),
(447,244,o),
(447,308,qs),
(447,400,o),
(352,498,o),
(279,498,qs),
(211,498,o),
(106,425,o),
(45,303,o),
(42,229,q),
(362,229,l),
(349,179,o),
(295,97,o),
(219,49,o),
(174,49,qs),
(139,49,o),
(78,70,o),
(54,89,q),
(19,41,l),
(47,17,o),
(125,-12,o),
(175,-12,qs),
(234,-12,o)
);
},
{
closed = 1;
nodes = (
(165,392,o),
(231,437,o),
(271,437,qs),
(321,437,o),
(375,369,o),
(375,309,qs),
(375,302,o),
(375,290,o),
(373,281,q),
(116,281,l),
(122,321,o)
);
}
);
width = 481;
}
);
note = uni0258;
unicode = 600;
},
{
glyphname = uni0251;
kernLeft = a;
layers = (
{
layerId = m01;
shapes = (
{
closed = 1;
nodes = (
(313,35,o),
(348,72,q),
(352,72,l),
(349,57,o),
(347,43,o),
(347,38,q),
(351,10,o),
(383,-12,o),
(405,-12,qs),
(419,-12,o),
(442,-8,o),
(453,-4,q),
(452,55,l),
(445,53,o),
(439,52,o),
(437,52,qs),
(422,52,o),
(422,67,qs),
(422,70,o),
(423,79,o),
(424,86,qs),
(504,486,l),
(442,486,l),
(423,425,l),
(419,425,l),
(402,458,o),
(341,498,o),
(302,498,qs),
(251,498,o),
(157,447,o),
(83,355,o),
(39,234,o),
(39,164,qs),
(39,79,o),
(115,-12,o),
(179,-12,qs),
(225,-12,o)
);
},
{
closed = 1;
nodes = (
(118,113,o),
(118,176,qs),
(118,226,o),
(149,319,o),
(202,392,o),
(269,434,o),
(305,434,qs),
(333,434,o),
(383,400,o),
(404,362,q),
(360,145,l),
(324,98,o),
(245,52,o),
(207,52,qs),
(167,52,o)
);
}
);
width = 539;
}
);
note = uni0251;
unicode = 593;
},
{
glyphname = uni0299;
kernLeft = m;
layers = (
{
layerId = m01;
shapes = (
{
closed = 1;
nodes = (
(326,0,o),
(439,92,o),
(439,159,qs),
(439,202,o),
(387,247,o),
(352,257,q),
(353,259,l),
(397,274,o),
(458,338,o),
(458,386,qs),
(458,439,o),
(372,486,o),
(309,486,qs),
(128,486,l),
(31,0,l),
(222,0,ls)
);
},
{
closed = 1;
nodes = (
(286,428,ls),
(336,428,o),
(383,397,o),
(383,365,qs),
(383,334,o),
(317,281,o),
(252,281,qs),
(164,281,l),
(193,428,l)
);
},
{
closed = 1;
nodes = (
(245,229,ls),
(364,229,o),
(364,154,qs),
(364,119,o),
(295,58,o),
(222,58,qs),
(119,58,l),
(153,229,l)
);
}
);
width = 480;
}
);
note = uni0299;
unicode = 665;
},
{
glyphname = uni02A4;
kernLeft = a;
layers = (
{
layerId = m01;
shapes = (
{
closed = 1;
nodes = (
(294,35,o),
(328,72,q),
(332,72,l),
(324,0,l),
(387,0,l),
(473,424,l),
(721,424,l),
(495,161,l),
(518,118,l),
(536,126,o),
(567,135,o),
(586,135,qs),
(630,135,o),
(678,85,o),
(678,33,qs),
(678,-21,o),
(634,-105,o),
(567,-154,o),
(532,-154,qs),
(485,-154,o),
(431,-115,o),
(411,-92,q),
(368,-137,l),
(391,-167,o),
(465,-216,o),
(528,-216,qs),
(572,-216,o),
(653,-177,o),
(718,-106,o),
(755,-12,o),
(755,42,qs),
(755,83,o),
(721,152,o),
(652,191,o),
(600,185,q),
(818,441,l),
(826,486,l),
(485,486,l),
(531,712,l),
(454,712,l),
(416,522,l),
(400,427,l),
(397,427,l),
(379,459,o),
(327,498,o),
(292,498,qs),
(243,498,o),
(153,445,o),
(81,351,o),
(39,226,o),
(39,154,qs),
(39,74,o),
(110,-12,o),
(169,-12,qs),
(212,-12,o)
);
},
{
closed = 1;
nodes = (
(118,108,o),
(118,166,qs),
(118,219,o),
(147,315,o),
(196,390,o),
(260,434,o),
(295,434,qs),
(344,434,o),
(384,362,q),
(340,145,l),
(267,52,o),
(197,52,qs),
(161,52,o)
);
}
);
width = 817;
}
);
note = uni02A4;
unicode = 676;
},
{
glyphname = uni0259;
kernRight = b;
layers = (
{
layerId = m01;
shapes = (
{
closed = 1;
nodes = (
(320,32,o),
(395,114,o),
(440,226,o),
(440,295,qs),
(440,394,o),
(346,498,o),
(269,498,qs),
(223,498,o),
(149,472,o),
(115,455,q),
(139,402,l),
(165,417,o),
(223,438,o),
(253,438,qs),
(312,438,o),
(374,346,o),
(365,265,q),
(49,265,l),
(42,245,o),
(30,192,o),
(30,164,qs),
(30,114,o),
(60,34,o),
(126,-12,o),
(181,-12,qs),
(228,-12,o)
);
},
{
closed = 1;
nodes = (
(113,80,o),
(96,130,o),
(96,157,qs),
(96,171,o),
(99,200,o),
(102,213,q),
(357,213,l),
(338,135,o),
(243,49,o),
(190,49,qs),
(154,49,o)
);
}
);
width = 481;
}
);
note = uni0259;
unicode = 601;
},
{
glyphname = uni025A;
layers = (
{
layerId = m01;
shapes = (
{
closed = 1;
nodes = (
(324,35,o),
(394,119,o),
(437,232,o),
(438,297,q),
(520,327,l),
(515,310,o),
(511,280,o),
(511,266,qs),
(511,228,o),
(553,194,o),
(580,194,qs),
(603,194,o),
(640,209,o),
(653,217,q),
(639,260,l),
(631,254,o),
(612,246,o),
(599,246,qs),
(582,246,o),
(562,265,o),
(562,292,qs),
(562,311,o),
(572,365,o),
(583,404,q),
(435,350,l),
(424,424,o),
(329,498,o),
(261,498,qs),
(210,498,o),
(134,471,o),
(97,451,q),
(122,397,l),
(151,414,o),
(211,436,o),
(247,436,qs),
(293,436,o),
(358,382,o),
(364,324,q),
(16,197,l),
(16,194,o),
(15,185,o),
(15,181,qs),
(15,126,o),
(51,39,o),
(126,-12,o),
(186,-12,qs),
(234,-12,o)
);
},
{
closed = 1;
nodes = (
(358,205,o),
(307,105,o),
(233,49,o),
(193,49,qs),
(138,49,o),
(82,113,o),
(82,167,q),
(364,270,l)
);
}
);
width = 644;
}
);
note = uni025A;
unicode = 602;
},
{
glyphname = uni025B;
kernRight = uni025B;
layers = (
{
layerId = m01;
shapes = (
{
closed = 1;
nodes = (
(317,12,o),
(365,42,q),
(343,92,l),
(304,68,o),
(241,49,o),
(205,49,qs),
(157,49,o),
(99,90,o),
(99,127,qs),
(99,174,o),
(176,229,o),
(243,229,qs),
(311,229,l),
(322,281,l),
(268,281,ls),
(216,281,o),
(168,320,o),
(168,351,qs),
(168,390,o),
(228,437,o),
(278,437,qs),
(310,437,o),
(362,418,o),
(387,400,q),
(425,449,l),
(397,472,o),
(327,498,o),
(284,498,qs),
(196,498,o),
(93,416,o),
(93,351,qs),
(93,318,o),
(133,272,o),
(161,263,q),
(161,260,l),
(104,247,o),
(21,173,o),
(21,109,qs),
(21,51,o),
(116,-12,o),
(189,-12,qs),
(236,-12,o)
);
}
);
width = 417;
}
);
note = uni025B;
unicode = 603;
},
{
glyphname = uni025C;
layers = (
{
layerId = m01;
shapes = (
{
closed = 1;
nodes = (
(317,32,o),
(377,109,o),
(377,159,qs),
(377,200,o),
(326,247,o),
(290,257,q),
(290,259,l),
(333,274,o),
(395,342,o),
(395,391,qs),
(395,445,o),
(312,498,o),
(255,498,qs),
(210,498,o),
(129,473,o),
(91,450,q),
(116,398,l),
(147,417,o),
(205,437,o),
(237,437,qs),
(272,437,o),
(320,405,o),
(320,373,qs),
(320,336,o),
(254,281,o),
(187,281,qs),
(134,281,l),
(123,229,l),
(186,229,ls),
(301,229,o),
(301,154,qs),
(301,108,o),
(219,49,o),
(159,49,qs),
(122,49,o),
(61,68,o),
(32,92,q),
(-1,42,l),
(34,12,o),
(108,-12,o),
(157,-12,qs),
(217,-12,o)
);
}
);
width = 417;
}
);
note = uni025C;
unicode = 604;
},
{
glyphname = uni025E;
kernLeft = a;
layers = (
{
layerId = m01;
shapes = (
{
closed = 1;
nodes = (
(395,31,o),
(455,109,o),
(455,159,qs),
(455,200,o),
(404,247,o),
(369,257,q),
(369,259,l),
(412,274,o),
(474,342,o),
(474,391,qs),
(474,445,o),
(388,498,o),
(328,498,qs),
(269,498,o),
(164,452,o),
(84,367,o),
(39,252,o),
(39,183,qs),
(39,92,o),
(142,-12,o),
(236,-12,qs),
(295,-12,o)
);
},
{
closed = 1;
nodes = (
(116,121,o),
(116,188,qs),
(116,257,o),
(170,370,o),
(261,437,o),
(316,437,qs),
(351,437,o),
(399,405,o),
(399,373,qs),
(399,336,o),
(332,281,o),
(266,281,qs),
(252,281,l),
(242,229,l),
(264,229,ls),
(320,229,o),
(380,190,o),
(380,154,qs),
(380,108,o),
(303,49,o),
(245,49,qs),
(181,49,o)
);
}
);
width = 496;
}
);
note = uni025E;
unicode = 606;
},
{
glyphname = uni025F;
layers = (
{
layerId = m01;
shapes = (
{
closed = 1;
nodes = (
(92,-131,o),
(106,-61,qs),
(165,229,l),
(254,229,l),
(264,281,l),
(175,281,l),
(217,486,l),
(140,486,l),
(98,281,l),
(7,276,l),
(-2,229,l),
(88,229,l),
(29,-62,ls),
(19,-105,o),
(-14,-154,o),
(-42,-154,qs),
(-58,-154,o),
(-78,-147,o),
(-88,-141,q),
(-113,-198,l),
(-96,-207,o),
(-61,-217,o),
(-38,-217,qs),
(25,-217,o)
);
}
);
width = 265;
}
);
note = uni025F;
unicode = 607;
},
{
glyphname = uni0260;
kernLeft = a;
layers = (
{
layerId = m01;
shapes = (
{
closed = 1;
nodes = (
(377,-118,o),
(396,-23,qs),
(505,515,ls),
(513,558,o),
(549,604,o),
(579,604,qs),
(587,604,o),
(604,600,o),
(609,598,q),
(633,656,l),
(623,661,o),
(596,668,o),
(582,668,qs),
(519,668,o),
(447,591,o),
(433,522,qs),
(414,427,l),
(411,427,l),
(393,459,o),
(334,498,o),
(296,498,qs),
(247,498,o),
(155,448,o),
(82,359,o),
(39,243,o),
(39,176,qs),
(39,91,o),
(119,5,o),
(180,5,qs),
(227,5,o),
(311,49,o),
(349,87,q),
(324,-17,ls),
(310,-81,o),
(236,-157,o),
(174,-157,qs),
(134,-157,o),
(65,-123,o),
(37,-100,q),
(1,-153,l),
(36,-182,o),
(122,-220,o),
(171,-220,qs),
(262,-220,o)
);
},
{
closed = 1;
nodes = (
(118,128,o),
(118,187,qs),
(118,235,o),
(148,323,o),
(199,393,o),
(264,434,o),
(299,434,qs),
(327,434,o),
(376,400,o),
(398,362,q),
(355,154,l),
(321,112,o),
(240,69,o),
(205,69,qs),
(165,69,o)
);
}
);
width = 536;
}
);
note = uni0260;
unicode = 608;
},
{
glyphname = uni0262;
kernLeft = a;
layers = (
{
layerId = m01;
shapes = (
{
closed = 1;
nodes = (
(369,22,o),
(400,47,q),
(442,259,l),
(267,259,l),
(256,207,l),
(366,207,l),
(339,79,l),
(321,66,o),
(271,49,o),
(243,49,qs),
(183,49,o),
(117,123,o),
(117,189,qs),
(117,257,o),
(173,370,o),
(266,437,o),
(323,437,qs),
(361,437,o),
(409,412,o),
(427,392,q),
(471,440,l),
(450,463,o),
(383,498,o),
(327,498,qs),
(267,498,o),
(163,450,o),
(84,365,o),
(39,250,o),
(39,184,qs),
(39,88,o),
(146,-12,o),
(228,-12,qs),
(280,-12,o)
);
}
);
width = 491;
}
);
note = uni0262;
unicode = 610;
},
{
glyphname = uni0263;
kernLeft = v;
kernRight = v;
layers = (
{
layerId = m01;
shapes = (
{
closed = 1;
nodes = (
(253,-137,o),
(253,-75,qs),
(253,-52,o),
(246,3,o),
(233,49,q),
(481,486,l),
(404,486,l),
(267,232,ls),
(248,196,o),
(213,127,o),
(194,89,q),
(190,89,l),
(186,126,o),
(178,195,o),
(173,232,qs),
(135,486,l),
(59,486,l),
(133,58,l),
(88,-1,o),
(38,-96,o),
(38,-139,qs),
(38,-179,o),
(85,-224,o),
(125,-224,qs),
(185,-224,o)
);
},
{
closed = 1;
nodes = (
(103,-149,o),
(103,-132,qs),
(103,-102,o),
(144,-25,o),
(174,15,q),
(178,15,l),
(184,-10,o),
(188,-58,o),
(188,-81,qs),
(188,-118,o),
(163,-168,o),
(135,-168,qs),
(122,-168,o)
);
}
);
width = 448;
}
);
note = uni0263;
unicode = 611;
},
{
glyphname = uni0265;
kernLeft = u;
kernRight = q;
layers = (
{
layerId = m01;
shapes = (
{
closed = 1;
nodes = (
(497,486,l),
(421,486,l),
(353,142,l),
(307,96,o),
(235,54,o),
(206,54,qs),
(134,54,o),
(134,129,qs),
(134,142,o),
(138,167,o),
(142,186,qs),
(203,486,l),
(126,486,l),
(64,176,ls),
(60,157,o),
(56,126,o),
(56,109,qs),
(56,54,o),
(110,-12,o),
(171,-12,qs),
(215,-12,o),
(297,35,o),
(339,70,q),
(343,70,l),
(326,9,l),
(282,-205,l),
(359,-205,l)
);
}
);
width = 530;
}
);
note = uni0265;
unicode = 613;
},
{
glyphname = uni0266;
kernRight = h;
layers = (
{
layerId = m01;
shapes = (
{
closed = 1;
nodes = (
(174,337,l),
(220,382,o),
(292,424,o),
(320,424,qs),
(393,424,o),
(393,349,qs),
(393,336,o),
(389,312,o),
(385,293,qs),
(326,0,l),
(402,0,l),
(463,303,ls),
(467,323,o),
(471,352,o),
(471,370,qs),
(471,426,o),
(417,491,o),
(355,491,qs),
(311,491,o),
(229,444,o),
(188,408,q),
(184,408,l),
(202,476,l),
(221,570,ls),
(231,614,o),
(277,662,o),
(314,662,qs),
(333,662,o),
(365,651,o),
(378,642,q),
(405,697,l),
(385,710,o),
(339,724,o),
(309,724,qs),
(241,724,o),
(159,642,o),
(144,565,qs),
(31,0,l),
(107,0,l)
);
}
);
width = 519;
}
);
note = uni0266;
unicode = 614;
},
{
glyphname = uni0267;
layers = (
{
layerId = m01;
shapes = (
{
closed = 1;
nodes = (
(376,-131,o),
(390,-61,qs),
(463,303,ls),
(467,323,o),
(471,352,o),
(471,370,qs),
(471,426,o),
(417,491,o),
(355,491,qs),
(311,491,o),
(229,444,o),
(188,408,q),
(184,408,l),
(202,476,l),
(222,573,ls),
(231,611,o),
(277,662,o),
(314,662,qs),
(333,662,o),
(365,651,o),
(378,642,q),
(405,697,l),
(385,710,o),
(339,724,o),
(309,724,qs),
(242,724,o),
(160,642,o),
(145,567,qs),
(31,0,l),
(107,0,l),
(174,337,l),
(220,382,o),
(292,424,o),
(320,424,qs),
(393,424,o),
(393,349,qs),
(393,336,o),
(389,312,o),
(385,293,qs),
(313,-62,ls),
(304,-105,o),
(270,-154,o),
(242,-154,qs),
(226,-154,o),
(206,-147,o),
(196,-141,q),
(171,-198,l),
(188,-207,o),
(223,-217,o),
(246,-217,qs),
(308,-217,o)
);
}
);
width = 519;
}
);
note = uni0267;
unicode = 615;
},
{
glyphname = uni029C;
kernLeft = m;
kernRight = a;
layers = (
{
layerId = m01;
shapes = (
{
closed = 1;
nodes = (
(151,221,l),
(371,221,l),
(327,0,l),
(404,0,l),
(501,486,l),
(425,486,l),
(385,288,l),
(165,288,l),
(205,486,l),
(128,486,l),
(31,0,l),
(107,0,l)
);
}
);
width = 534;
}
);
note = uni029C;
unicode = 668;
},
{
glyphname = uni026A;
layers = (
{
layerId = m01;
shapes = (
{
closed = 1;
nodes = (
(249,62,l),
(168,62,l),
(241,424,l),
(322,424,l),
(334,486,l),
(97,486,l),
(84,424,l),
(164,424,l),
(91,62,l),
(13,62,l),
(-1,0,l),
(236,0,l)
);
}
);
width = 330;
}
);
note = uni026A;
unicode = 618;
},
{
glyphname = uni0269;
layers = (
{
layerId = m01;
shapes = (
{
closed = 1;
nodes = (
(147,-8,o),
(157,-4,q),
(156,55,l),
(149,53,o),
(143,52,o),
(140,52,qs),
(123,52,o),
(123,70,qs),
(123,73,o),
(124,82,o),
(125,89,qs),
(206,486,l),
(129,486,l),
(50,93,ls),
(44,68,o),
(44,51,qs),
(44,-12,o),
(109,-12,qs),
(125,-12,o)
);
}
);
width = 248;
}
);
note = uni0269;
unicode = 617;
},
{
glyphname = uni026C;
layers = (
{
layerId = m01;
shapes = (
{
closed = 1;
nodes = (
(66,409,qs),
(66,425,o),
(84,445,o),
(103,445,qs),
(129,445,o),
(149,408,o),
(150,386,q),
(147,370,l),
(129,370,ls),
(66,370,o)
);
},
{
closed = 1;
nodes = (
(213,318,l),
(321,318,l),
(331,370,l),
(223,370,l),
(292,712,l),
(215,712,l),
(164,455,l),
(154,470,o),
(122,490,o),
(97,490,qs),
(61,490,o),
(18,440,o),
(18,410,qs),
(18,370,o),
(76,318,o),
(133,318,qs),
(136,318,l),
(73,0,l),
(149,0,l)
);
}
);
width = 322;
}
);
note = uni026C;
unicode = 620;
},
{
glyphname = uni026D;
layers = (
{
layerId = m01;
shapes = (
{
closed = 1;
nodes = (
(158,-207,o),
(170,-202,q),
(158,-145,l),
(151,-148,o),
(132,-154,o),
(122,-154,qs),
(89,-154,o),
(89,-113,qs),
(89,-95,o),
(93,-72,qs),
(250,712,l),
(173,712,l),
(17,-69,ls),
(14,-88,o),
(11,-117,o),
(11,-133,qs),
(11,-217,o),
(99,-217,qs),
(119,-217,o)
);
}
);
width = 242;
}
);
note = uni026D;
unicode = 621;
},
{
glyphname = uni026E;
layers = (
{
layerId = m01;
shapes = (
{
closed = 1;
nodes = (
(192,424,l),
(474,424,l),
(228,161,l),
(251,118,l),
(269,126,o),
(300,135,o),
(319,135,qs),
(372,135,o),
(431,83,o),
(431,30,qs),
(431,-23,o),
(382,-106,o),
(308,-154,o),
(268,-154,qs),
(216,-154,o),
(150,-115,o),
(128,-92,q),
(85,-137,l),
(110,-167,o),
(196,-216,o),
(265,-216,qs),
(313,-216,o),
(400,-177,o),
(468,-108,o),
(508,-16,o),
(508,38,qs),
(508,85,o),
(465,156,o),
(387,192,o),
(333,184,q),
(571,441,l),
(579,486,l),
(205,486,l),
(250,712,l),
(173,712,l),
(31,0,l),
(107,0,l)
);
}
);
width = 570;
}
);
note = uni026E;
unicode = 622;
},
{
glyphname = uni029F;
kernLeft = m;
layers = (
{
layerId = m01;
shapes = (
{
closed = 1;
nodes = (
(336,62,l),
(120,62,l),
(205,486,l),
(128,486,l),
(31,0,l),
(323,0,l)
);
}
);
width = 400;
}
);
note = uni029F;
unicode = 671;
},
{
glyphname = uni026F;
kernLeft = u;
kernRight = a;
layers = (
{
layerId = m01;
shapes = (
{
closed = 1;
nodes = (
(293,39,o),
(339,83,q),
(344,43,o),
(393,-12,o),
(451,-12,qs),
(489,-12,o),
(572,37,o),
(610,73,q),
(614,73,l),
(607,0,l),
(670,0,l),
(767,486,l),
(691,486,l),
(622,142,l),
(579,96,o),
(506,54,o),
(485,54,qs),
(415,54,o),
(415,129,qs),
(415,142,o),
(419,167,o),
(423,186,qs),
(483,486,l),
(407,486,l),
(338,142,l),
(295,96,o),
(222,54,o),
(201,54,qs),
(130,54,o),
(130,129,qs),
(130,142,o),
(134,167,o),
(138,186,qs),
(199,486,l),
(122,486,l),
(60,176,ls),
(56,157,o),
(52,126,o),
(52,109,qs),
(52,54,o),
(106,-12,o),
(166,-12,qs),
(204,-12,o)
);
}
);
width = 797;
}
);
note = uni026F;
unicode = 623;
},
{
glyphname = uni0270;
kernLeft = u;
kernRight = q;
layers = (
{
layerId = m01;
shapes = (
{
closed = 1;
nodes = (
(767,486,l),
(691,486,l),
(622,142,l),
(579,96,o),
(506,54,o),
(485,54,qs),
(415,54,o),
(415,129,qs),
(415,142,o),
(419,167,o),
(423,186,qs),
(483,486,l),
(407,486,l),
(338,142,l),
(295,96,o),
(222,54,o),
(201,54,qs),
(130,54,o),
(130,129,qs),
(130,142,o),
(134,167,o),
(138,186,qs),
(199,486,l),
(122,486,l),
(60,176,ls),
(56,157,o),
(52,126,o),
(52,109,qs),
(52,54,o),
(106,-12,o),
(166,-12,qs),
(204,-12,o),
(293,39,o),
(339,83,q),
(344,43,o),
(393,-12,o),
(451,-12,qs),
(488,-12,o),
(573,37,o),
(608,73,q),
(612,73,l),
(586,-39,l),
(552,-205,l),
(629,-205,l)
);
}
);
width = 797;
}
);
note = uni0270;
unicode = 624;
},
{
glyphname = uni0271;
kernLeft = m;
layers = (
{
layerId = m01;
shapes = (
{
closed = 1;
nodes = (
(649,-131,o),
(663,-61,qs),
(738,310,ls),
(742,330,o),
(746,360,o),
(746,377,qs),
(746,433,o),
(692,498,o),
(631,498,qs),
(594,498,o),
(506,447,o),
(459,403,q),
(454,443,o),
(405,498,o),
(347,498,qs),
(309,498,o),
(225,449,o),
(187,413,q),
(183,413,l),
(190,486,l),
(127,486,l),
(31,0,l),
(107,0,l),
(176,344,l),
(219,390,o),
(291,432,o),
(313,432,qs),
(383,432,o),
(383,357,qs),
(383,344,o),
(379,320,o),
(375,300,qs),
(315,0,l),
(391,0,l),
(460,344,l),
(504,390,o),
(576,432,o),
(597,432,qs),
(668,432,o),
(668,357,qs),
(668,344,o),
(664,320,o),
(660,300,qs),
(586,-62,ls),
(576,-105,o),
(543,-154,o),
(515,-154,qs),
(499,-154,o),
(479,-147,o),
(469,-141,q),
(444,-198,l),
(461,-207,o),
(496,-217,o),
(519,-217,qs),
(581,-217,o)
);
}
);
width = 799;
}
);
note = uni0271;
unicode = 625;
},
{
glyphname = uni0272;
kernLeft = j;
kernRight = h;
layers = (
{
layerId = m01;
shapes = (
{
closed = 1;
nodes = (
(83,-131,o),
(96,-61,qs),
(176,344,l),
(222,390,o),
(294,432,o),
(322,432,qs),
(394,432,o),
(394,357,qs),
(394,344,o),
(390,320,o),
(386,300,qs),
(326,0,l),
(402,0,l),
(464,310,ls),
(472,346,o),
(472,377,qs),
(472,433,o),
(419,498,o),
(357,498,qs),
(311,498,o),
(229,449,o),
(188,413,q),
(184,413,l),
(191,486,l),
(128,486,l),
(19,-62,ls),
(11,-105,o),
(-24,-154,o),
(-52,-154,qs),
(-67,-154,o),
(-83,-148,o),
(-91,-143,q),
(-117,-200,l),
(-102,-208,o),
(-70,-217,o),
(-48,-217,qs),
(14,-217,o)
);
}
);
width = 525;
}
);
note = uni0272;
unicode = 626;
},
{
glyphname = uni0273;
kernLeft = m;
layers = (
{
layerId = m01;
shapes = (
{
closed = 1;
nodes = (
(453,-207,o),
(465,-202,q),
(452,-145,l),
(445,-148,o),
(427,-154,o),
(417,-154,qs),
(384,-154,o),
(384,-113,qs),
(384,-95,o),
(388,-72,qs),
(464,310,ls),
(472,346,o),
(472,377,qs),
(472,433,o),
(419,498,o),
(357,498,qs),
(311,498,o),
(229,449,o),
(188,413,q),
(184,413,l),
(191,486,l),
(128,486,l),
(31,0,l),
(107,0,l),
(176,344,l),
(222,390,o),
(294,432,o),
(322,432,qs),
(394,432,o),
(394,357,qs),
(394,344,o),
(390,320,o),
(386,300,qs),
(312,-69,ls),
(305,-104,o),
(305,-133,qs),
(305,-217,o),
(394,-217,qs),
(414,-217,o)
);
}
);
width = 525;
}
);
note = uni0273;
unicode = 627;
},
{
glyphname = uni0274;
kernLeft = m;
kernRight = a;
layers = (
{
layerId = m01;
shapes = (
{
closed = 1;
nodes = (
(145,202,ls),
(153,241,o),
(165,332,o),
(171,379,q),
(175,379,l),
(183,357,o),
(204,297,o),
(212,275,qs),
(325,0,l),
(394,0,l),
(492,486,l),
(419,486,l),
(379,284,ls),
(372,245,o),
(358,154,o),
(351,107,q),
(348,107,l),
(339,130,o),
(319,189,o),
(311,211,qs),
(198,486,l),
(128,486,l),
(31,0,l),
(103,0,l)
);
}
);
width = 524;
}
);
note = uni0274;
unicode = 628;
},
{
glyphname = uni0254;
kernRight = b;
layers = (
{
layerId = m01;
shapes = (
{
closed = 1;
nodes = (
(276,32,o),
(354,113,o),
(400,228,o),
(400,300,qs),
(400,395,o),
(304,498,o),
(231,498,qs),
(179,498,o),
(100,464,o),
(68,437,q),
(101,389,l),
(128,412,o),
(181,435,o),
(214,435,qs),
(262,435,o),
(322,357,o),
(322,291,qs),
(322,221,o),
(269,113,o),
(181,52,o),
(128,52,qs),
(96,52,o),
(44,80,o),
(26,101,q),
(-17,51,l),
(5,24,o),
(77,-12,o),
(125,-12,qs),
(178,-12,o)
);
}
);
width = 439;
}
);
note = uni0254;
unicode = 596;
},
{
glyphname = uni0264;
layers = (
{
layerId = m01;
shapes = (
{
closed = 1;
nodes = (
(361,44,o),
(408,134,o),
(408,184,qs),
(408,234,o),
(360,324,o),
(327,366,q),
(362,397,o),
(420,435,o),
(448,435,qs),
(474,435,o),
(494,421,q),
(526,477,l),
(500,498,o),
(456,498,qs),
(417,498,o),
(332,450,o),
(288,411,q),
(257,449,o),
(186,498,o),
(144,498,qs),
(100,498,o),
(68,478,q),
(90,420,l),
(100,426,o),
(122,435,o),
(135,435,qs),
(162,435,o),
(210,400,o),
(235,370,q),
(162,312,o),
(70,184,o),
(70,115,qs),
(70,55,o),
(147,-12,o),
(209,-12,qs),
(273,-12,o)
);
},
{
closed = 1;
nodes = (
(144,92,o),
(144,125,qs),
(144,173,o),
(218,282,o),
(273,327,q),
(297,296,o),
(334,223,o),
(334,179,qs),
(334,145,o),
(306,86,o),
(254,49,o),
(218,49,qs),
(180,49,o)
);
}
);
width = 502;
}
);
note = uni0264;
unicode = 612;
},
{
glyphname = uni0275;
kernLeft = a;
kernRight = b;
layers = (
{
layerId = m01;
shapes = (
{
closed = 1;
nodes = (
(356,34,o),
(431,119,o),
(475,234,o),
(475,303,qs),
(475,394,o),
(380,498,o),
(301,498,qs),
(251,498,o),
(157,452,o),
(83,367,o),
(39,252,o),
(39,183,qs),
(39,92,o),
(133,-12,o),
(212,-12,qs),
(262,-12,o)
);
},
{
closed = 1;
nodes = (
(402,365,o),
(402,298,qs),
(402,294,o),
(402,286,o),
(402,282,q),
(126,282,l),
(148,350,o),
(240,437,o),
(294,437,qs),
(347,437,o)
);
},
{
closed = 1;
nodes = (
(112,121,o),
(112,188,qs),
(112,198,o),
(113,217,o),
(114,227,q),
(394,227,l),
(382,176,o),
(329,96,o),
(258,49,o),
(219,49,qs),
(166,49,o)
);
}
);
width = 515;
}
);
note = uni0275;
unicode = 629;
},
{
glyphname = uni0276;
kernLeft = a;
kernRight = uni025B;
layers = (
{
layerId = m01;
shapes = (
{
closed = 1;
nodes = (
(293,-7,o),
(323,0,q),
(593,0,l),
(605,58,l),
(380,58,l),
(414,229,l),
(593,229,l),
(604,281,l),
(424,281,l),
(453,428,l),
(669,428,l),
(680,486,l),
(419,486,l),
(392,494,o),
(348,498,o),
(324,498,qs),
(267,498,o),
(165,452,o),
(85,368,o),
(39,252,o),
(39,182,qs),
(39,85,o),
(145,-12,o),
(227,-12,qs),
(247,-12,o)
);
},
{
closed = 1;
nodes = (
(116,119,o),
(116,192,qs),
(116,262,o),
(171,371,o),
(262,435,o),
(316,435,qs),
(348,435,o),
(378,426,q),
(305,62,l),
(289,58,o),
(255,52,o),
(241,52,qs),
(186,52,o)
);
}
);
width = 678;
}
);
note = uni0276;
unicode = 630;
},
{
glyphname = uni0277;
kernLeft = a;
kernRight = b;
layers = (
{
layerId = m01;
shapes = (
{
closed = 1;
nodes = (
(312,86,q),
(316,86,l),
(328,32,o),
(402,-12,o),
(448,-12,qs),
(503,-12,o),
(589,56,o),
(640,178,o),
(640,259,qs),
(640,334,o),
(571,440,o),
(456,497,o),
(388,497,qs),
(308,497,o),
(178,443,o),
(84,346,o),
(34,220,o),
(34,148,qs),
(34,91,o),
(77,20,o),
(143,-12,o),
(178,-12,qs),
(271,-12,o)
);
},
{
closed = 1;
nodes = (
(111,98,o),
(111,157,qs),
(111,230,o),
(177,356,o),
(297,434,o),
(378,434,qs),
(431,434,o),
(515,390,o),
(563,310,o),
(563,254,qs),
(563,194,o),
(529,105,o),
(475,56,o),
(443,56,qs),
(407,56,o),
(363,92,o),
(363,134,qs),
(363,147,o),
(370,182,o),
(374,201,qs),
(396,310,l),
(324,310,l),
(298,197,ls),
(282,130,o),
(234,52,o),
(194,52,qs),
(162,52,o)
);
}
);
width = 683;
}
);
note = uni0277;
unicode = 631;
},
{
glyphname = uni0278;
kernLeft = a;
kernRight = b;
layers = (
{
layerId = m01;
shapes = (
{
closed = 1;
nodes = (
(308,-9,l),
(388,-5,o),
(524,64,o),
(608,190,o),
(608,277,qs),
(608,344,o),
(551,436,o),
(460,488,o),
(409,493,q),
(453,712,l),
(382,712,l),
(339,495,l),
(259,492,o),
(122,422,o),
(39,297,o),
(39,209,qs),
(39,142,o),
(97,49,o),
(188,-2,o),
(238,-8,q),
(199,-205,l),
(269,-205,l)
);
},
{
closed = 1;
nodes = (
(472,111,o),
(376,53,o),
(320,49,q),
(397,434,l),
(432,430,o),
(493,391,o),
(531,322,o),
(531,272,qs),
(531,209,o)
);
},
{
closed = 1;
nodes = (
(175,375,o),
(271,433,o),
(327,436,q),
(250,50,l),
(216,55,o),
(154,94,o),
(116,163,o),
(116,213,qs),
(116,277,o)
);
}
);
width = 648;
}
);
note = uni0278;
unicode = 632;
},
{
glyphname = uni0279;
kernRight = a;
layers = (
{
layerId = m01;
shapes = (
{
closed = 1;
nodes = (
(127,49,o),
(156,93,q),
(160,93,l),
(149,0,l),
(212,0,l),
(309,486,l),
(233,486,l),
(172,180,l),
(141,120,o),
(65,57,o),
(28,57,qs),
(3,57,o),
(-13,65,q),
(-40,-3,l),
(-19,-12,o),
(6,-12,qs),
(51,-12,o)
);
}
);
width = 342;
}
);
note = uni0279;
unicode = 633;
},
{
glyphname = uni027A;
layers = (
{
layerId = m01;
shapes = (
{
closed = 1;
nodes = (
(127,49,o),
(156,93,q),
(160,93,l),
(149,0,l),
(212,0,l),
(356,712,l),
(280,712,l),
(172,180,l),
(141,120,o),
(65,57,o),
(28,57,qs),
(3,57,o),
(-13,65,q),
(-40,-3,l),
(-19,-12,o),
(6,-12,qs),
(51,-12,o)
);
}
);
width = 342;
}
);
note = uni027A;
unicode = 634;
},
{
glyphname = uni027B;
layers = (
{
layerId = m01;
shapes = (
{
closed = 1;
nodes = (
(263,-207,o),
(275,-202,q),
(262,-145,l),
(255,-148,o),
(237,-154,o),
(226,-154,qs),
(193,-154,o),
(193,-113,qs),
(193,-93,o),
(198,-72,qs),
(309,486,l),
(233,486,l),
(172,180,l),
(141,120,o),
(65,57,o),
(28,57,qs),
(3,57,o),
(-13,65,q),
(-40,-3,l),
(-19,-12,o),
(6,-12,qs),
(51,-12,o),
(128,49,o),
(157,93,q),
(161,93,l),
(147,30,o),
(130,-50,o),
(122,-97,o),
(120,-124,o),
(120,-133,qs),
(120,-217,o),
(203,-217,qs),
(223,-217,o)
);
}
);
width = 342;
}
);
note = uni027B;
unicode = 635;
},
{
glyphname = uni027D;
kernLeft = m;
kernRight = r;
layers = (
{
layerId = m01;
shapes = (
{
closed = 1;
nodes = (
(158,-207,o),
(170,-202,q),
(158,-145,l),
(151,-148,o),
(132,-154,o),
(122,-154,qs),
(89,-154,o),
(89,-113,qs),
(89,-95,o),
(93,-72,qs),
(168,307,l),
(199,366,o),
(275,429,o),
(311,429,qs),
(337,429,o),
(353,421,q),
(380,489,l),
(359,498,o),
(334,498,qs),
(289,498,o),
(213,437,o),
(184,393,q),
(180,393,l),
(191,486,l),
(128,486,l),
(17,-69,ls),
(14,-88,o),
(11,-117,o),
(11,-133,qs),
(11,-217,o),
(99,-217,qs),
(119,-217,o)
);
}
);
width = 342;
}
);
note = uni027D;
unicode = 637;
},
{
glyphname = uni027E;
kernRight = r;
layers = (
{
layerId = m01;
shapes = (
{
closed = 1;
nodes = (
(165,295,ls),
(179,365,o),
(243,429,o),
(288,429,qs),
(306,429,o),
(331,425,o),
(347,418,q),
(374,481,l),
(358,489,o),
(319,498,o),
(293,498,qs),
(217,498,o),
(112,405,o),
(93,313,qs),
(31,0,l),
(107,0,l)
);
}
);
width = 335;
}
);
note = uni027E;
unicode = 638;
},
{
glyphname = uni0280;
kernLeft = m;
kernRight = k;
layers = (
{
layerId = m01;
shapes = (
{
closed = 1;
nodes = (
(147,197,l),
(237,197,l),
(317,0,l),
(401,0,l),
(310,205,l),
(372,221,o),
(446,307,o),
(446,368,qs),
(446,433,o),
(357,486,o),
(287,486,qs),
(128,486,l),
(31,0,l),
(107,0,l)
);
},
{
closed = 1;
nodes = (
(267,423,ls),
(317,423,o),
(368,391,o),
(368,351,qs),
(368,308,o),
(299,248,o),
(235,248,qs),
(156,248,l),
(191,423,l)
);
}
);
width = 471;
}
);
note = uni0280;
unicode = 640;
},
{
glyphname = uni0281;
kernRight = a;
layers = (
{
layerId = m01;
shapes = (
{
closed = 1;
nodes = (
(262,0,o),
(355,44,o),
(407,121,o),
(407,172,qs),
(407,217,o),
(363,269,o),
(325,280,q),
(500,486,l),
(415,486,l),
(255,289,l),
(254,289,o),
(250,289,o),
(248,289,qs),
(165,289,l),
(205,486,l),
(128,486,l),
(31,0,l),
(201,0,ls)
);
},
{
closed = 1;
nodes = (
(230,238,ls),
(280,238,o),
(331,205,o),
(331,166,qs),
(331,122,o),
(262,63,o),
(197,63,qs),
(119,63,l),
(154,238,l)
);
}
);
width = 471;
}
);
note = uni0281;
unicode = 641;
},
{
glyphname = uni0282;
kernLeft = s;
kernRight = s;
layers = (
{
layerId = m01;
shapes = (
{
closed = 1;
nodes = (
(102,-209,o),
(113,-204,q),
(104,-146,l),
(97,-149,o),
(80,-154,o),
(69,-154,qs),
(29,-154,o),
(29,-105,qs),
(29,-97,o),
(31,-72,o),
(40,-24,o),
(50,20,q),
(77,4,o),
(136,-12,o),
(163,-12,qs),
(215,-12,o),
(297,25,o),
(345,93,o),
(345,138,qs),
(345,182,o),
(293,242,o),
(231,276,qs),
(199,294,o),
(145,332,o),
(145,362,qs),
(145,393,o),
(194,438,o),
(232,438,qs),
(265,438,o),
(316,412,o),
(335,392,q),
(381,432,l),
(353,462,o),
(279,498,o),
(233,498,qs),
(189,498,o),
(116,461,o),
(72,396,o),
(72,353,qs),
(72,312,o),
(129,250,o),
(175,224,qs),
(231,193,o),
(272,154,o),
(272,128,qs),
(272,93,o),
(211,47,o),
(169,47,qs),
(132,47,o),
(63,73,o),
(8,107,q),
(4,105,l),
(-13,36,o),
(-31,-49,o),
(-37,-100,o),
(-37,-120,qs),
(-37,-166,o),
(13,-217,o),
(56,-217,qs),
(71,-217,o)
);
}
);
width = 402;
}
);
note = uni0282;
unicode = 642;
},
{
glyphname = uni0283;
kernLeft = j;
layers = (
{
layerId = m01;
shapes = (
{
closed = 1;
nodes = (
(82,-131,o),
(95,-61,qs),
(220,562,ls),
(230,612,o),
(268,663,o),
(308,663,qs),
(329,663,o),
(347,654,q),
(373,711,l),
(362,717,o),
(328,726,o),
(311,726,qs),
(236,726,o),
(160,642,o),
(145,565,qs),
(18,-62,ls),
(9,-105,o),
(-25,-154,o),
(-53,-154,qs),
(-69,-154,o),
(-89,-148,o),
(-99,-142,q),
(-124,-198,l),
(-107,-207,o),
(-72,-217,o),
(-49,-217,qs),
(13,-217,o)
);
}
);
width = 238;
}
);
note = uni0283;
unicode = 643;
},
{
glyphname = uni0284;
layers = (
{
layerId = m01;
shapes = (
{
closed = 1;
nodes = (
(93,-131,o),
(106,-61,qs),
(164,229,l),
(254,229,l),
(264,281,l),
(175,281,l),
(231,562,ls),
(241,612,o),
(279,663,o),
(319,663,qs),
(340,663,o),
(358,654,q),
(384,711,l),
(373,717,o),
(339,726,o),
(322,726,qs),
(247,726,o),
(171,642,o),
(156,565,qs),
(98,281,l),
(7,276,l),
(-2,229,l),
(88,229,l),
(29,-62,ls),
(20,-105,o),
(-14,-154,o),
(-42,-154,qs),
(-58,-154,o),
(-78,-148,o),
(-88,-142,q),
(-113,-198,l),
(-96,-207,o),
(-61,-217,o),
(-38,-217,qs),
(24,-217,o)
);
}
);
width = 265;
}
);
note = uni0284;
unicode = 644;
},
{
glyphname = uni0288;
kernLeft = t;
layers = (
{
layerId = m01;
shapes = (
{
closed = 1;
nodes = (
(218,-202,o),
(234,-195,q),
(217,-140,l),
(206,-145,o),
(180,-155,o),
(166,-155,qs),
(132,-155,o),
(104,-125,o),
(104,-95,qs),
(104,-77,o),
(107,-59,qs),
(207,424,l),
(332,424,l),
(344,486,l),
(221,486,l),
(248,620,l),
(183,620,l),
(147,486,l),
(71,481,l),
(60,424,l),
(131,424,l),
(31,-55,ls),
(29,-69,o),
(26,-94,o),
(26,-109,qs),
(26,-154,o),
(78,-217,o),
(142,-217,qs),
(171,-217,o)
);
}
);
width = 325;
}
);
note = uni0288;
unicode = 648;
},
{
glyphname = uni02A7;
kernLeft = t;
layers = (
{
layerId = m01;
shapes = (
{
closed = 1;
nodes = (
(389,-131,o),
(402,-61,qs),
(527,562,ls),
(537,612,o),
(575,663,o),
(615,663,qs),
(638,663,o),
(654,654,q),
(680,711,l),
(669,717,o),
(635,726,o),
(618,726,qs),
(543,726,o),
(467,642,o),
(452,565,qs),
(436,486,l),
(221,486,l),
(248,620,l),
(183,620,l),
(147,486,l),
(71,481,l),
(60,424,l),
(131,424,l),
(81,178,ls),
(73,142,o),
(73,111,qs),
(73,55,o),
(127,-11,o),
(188,-11,qs),
(230,-11,o),
(311,36,o),
(348,70,q),
(352,70,l),
(326,-62,ls),
(318,-105,o),
(283,-154,o),
(254,-154,qs),
(238,-154,o),
(218,-148,o),
(208,-142,q),
(183,-198,l),
(200,-207,o),
(235,-217,o),
(258,-217,qs),
(320,-217,o)
);
},
{
closed = 1;
nodes = (
(151,131,qs),
(151,154,o),
(159,187,qs),
(207,424,l),
(424,424,l),
(367,144,l),
(322,98,o),
(251,56,o),
(223,56,qs),
(151,56,o)
);
}
);
width = 545;
}
);
note = uni02A7;
unicode = 679;
},
{
glyphname = uni0289;
layers = (
{
layerId = m01;
shapes = (
{
closed = 1;
nodes = (
(314,39,o),
(354,74,q),
(358,74,l),
(350,0,l),
(413,0,l),
(465,259,l),
(548,259,l),
(559,311,l),
(475,311,l),
(510,486,l),
(434,486,l),
(399,311,l),
(182,311,l),
(218,486,l),
(141,486,l),
(106,311,l),
(22,306,l),
(13,259,l),
(96,259,l),
(79,176,ls),
(75,157,o),
(71,126,o),
(71,109,qs),
(71,54,o),
(125,-12,o),
(186,-12,qs),
(230,-12,o)
);
},
{
closed = 1;
nodes = (
(153,167,o),
(157,186,qs),
(172,259,l),
(388,259,l),
(365,142,l),
(321,96,o),
(250,54,o),
(221,54,qs),
(149,54,o),
(149,129,qs),
(149,142,o)
);
}
);
width = 538;
}
);
note = uni0289;
unicode = 649;
},
{
glyphname = uni028A;
kernLeft = a;
kernRight = b;
layers = (
{
layerId = m01;
shapes = (
{
closed = 1;
nodes = (
(364,34,o),
(433,112,o),
(472,213,o),
(472,267,qs),
(472,309,o),
(444,398,o),
(423,422,q),
(423,424,l),
(525,424,l),
(538,486,l),
(357,486,l),
(347,436,l),
(372,412,o),
(398,328,o),
(398,287,qs),
(398,222,o),
(350,115,o),
(272,52,o),
(227,52,qs),
(173,52,o),
(115,118,o),
(115,180,qs),
(115,232,o),
(152,327,o),
(214,408,o),
(251,436,q),
(260,486,l),
(79,486,l),
(66,424,l),
(167,424,l),
(167,422,l),
(135,398,o),
(76,319,o),
(38,219,o),
(38,163,qs),
(38,85,o),
(132,-12,o),
(216,-12,qs),
(271,-12,o)
);
}
);
width = 515;
}
);
note = uni028A;
unicode = 650;
},
{
glyphname = uni028B;
kernLeft = u;
kernRight = b;
layers = (
{
layerId = m01;
shapes = (
{
closed = 1;
nodes = (
(365,50,o),
(444,158,o),
(489,296,o),
(489,372,qs),
(489,440,o),
(429,498,o),
(379,498,qs),
(362,498,o),
(334,495,o),
(321,490,q),
(321,429,l),
(338,435,o),
(350,435,qs),
(379,435,o),
(411,402,o),
(411,361,qs),
(411,300,o),
(376,189,o),
(318,103,o),
(249,54,o),
(215,54,qs),
(178,54,o),
(137,93,o),
(137,145,qs),
(137,159,o),
(143,192,o),
(147,210,qs),
(203,486,l),
(126,486,l),
(70,209,ls),
(61,169,o),
(61,136,qs),
(61,60,o),
(137,-12,o),
(204,-12,qs),
(262,-12,o)
);
}
);
width = 525;
}
);
note = uni028B;
unicode = 651;
},
{
glyphname = uni028C;
kernLeft = uni028C;
kernRight = uni028C;
layers = (
{
layerId = m01;
shapes = (
{
closed = 1;
nodes = (
(-27,0,l),
(50,0,l),
(193,281,ls),
(212,317,o),
(248,390,o),
(265,426,q),
(269,426,l),
(273,391,o),
(279,316,o),
(283,281,qs),
(319,0,l),
(395,0,l),
(324,486,l),
(232,486,l)
);
}
);
width = 448;
}
);
note = uni028C;
unicode = 652;
},
{
glyphname = uni028D;
kernLeft = uni028C;
kernRight = uni028C;
layers = (
{
layerId = m01;
shapes = (
{
closed = 1;
nodes = (
(393,220,ls),
(378,186,o),
(349,113,o),
(334,77,q),
(330,77,l),
(329,113,o),
(328,186,o),
(327,220,qs),
(313,486,l),
(218,486,l),
(-3,0,l),
(69,0,l),
(196,286,ls),
(212,321,o),
(238,388,o),
(252,422,q),
(256,422,l),
(258,388,o),
(260,321,o),
(261,286,qs),
(278,0,l),
(353,0,l),
(481,286,ls),
(497,321,o),
(524,388,o),
(539,422,q),
(543,422,l),
(544,388,o),
(545,321,o),
(546,286,qs),
(562,0,l),
(638,0,l),
(603,486,l),
(511,486,l)
);
}
);
width = 707;
}
);
note = uni028D;
unicode = 653;
},
{
glyphname = uni028E;
kernLeft = uni028C;
kernRight = uni028C;
layers = (
{
layerId = m01;
shapes = (
{
closed = 1;
nodes = (
(189,273,ls),
(207,308,o),
(244,384,o),
(261,418,q),
(265,418,l),
(268,384,o),
(276,307,o),
(281,273,qs),
(319,0,l),
(395,0,l),
(312,487,l),
(345,551,ls),
(372,602,o),
(427,662,o),
(466,662,qs),
(476,662,o),
(495,657,o),
(502,653,q),
(527,710,l),
(501,724,o),
(471,724,qs),
(403,724,o),
(314,635,o),
(274,557,qs),
(-27,0,l),
(49,0,l)
);
}
);
width = 448;
}
);
note = uni028E;
unicode = 654;
},
{
glyphname = uni028F;
kernLeft = v;
kernRight = v;
layers = (
{
layerId = m01;
shapes = (
{
closed = 1;
nodes = (
(227,168,l),
(452,486,l),
(373,486,l),
(280,348,ls),
(261,319,o),
(221,259,o),
(201,228,q),
(198,228,l),
(190,260,o),
(174,318,o),
(166,348,qs),
(126,486,l),
(47,486,l),
(150,168,l),
(117,0,l),
(193,0,l)
);
}
);
width = 408;
}
);
note = uni028F;
unicode = 655;
},
{
glyphname = uni0290;
kernLeft = z;
kernRight = z;
layers = (
{
layerId = m01;
shapes = (
{
closed = 1;
nodes = (
(389,-208,o),
(399,-204,q),
(393,-146,l),
(386,-148,o),
(368,-154,o),
(358,-154,qs),
(322,-154,o),
(322,-113,qs),
(322,-102,o),
(325,-74,o),
(338,-6,o),
(353,62,q),
(99,62,l),
(422,441,l),
(430,486,l),
(113,486,l),
(100,424,l),
(321,424,l),
(-2,44,l),
(-10,0,l),
(272,0,l),
(263,-40,o),
(254,-88,o),
(251,-118,o),
(251,-131,qs),
(251,-217,o),
(336,-217,qs),
(354,-217,o)
);
}
);
width = 418;
}
);
note = uni0290;
unicode = 656;
},
{
glyphname = uni0291;
kernLeft = z;
kernRight = z;
layers = (
{
layerId = m01;
shapes = (
{
closed = 1;
nodes = (
(387,128,qs),
(387,114,o),
(365,81,o),
(320,58,o),
(286,58,qs),
(275,58,o),
(252,58,o),
(241,58,q),
(273,111,o),
(330,160,o),
(354,160,qs),
(387,160,o)
);
},
{
closed = 1;
nodes = (
(201,-18,o),
(210,0,q),
(255,0,ls),
(320,0,o),
(399,46,o),
(435,111,o),
(435,141,qs),
(435,173,o),
(394,207,o),
(362,207,qs),
(321,207,o),
(237,130,o),
(196,59,q),
(171,60,o),
(121,61,o),
(95,62,q),
(418,441,l),
(426,486,l),
(113,486,l),
(100,424,l),
(321,424,l),
(-2,44,l),
(-10,0,l),
(165,0,l),
(157,-16,o),
(141,-52,o),
(133,-71,q),
(175,-81,l),
(184,-58,o)
);
}
);
width = 440;
}
);
note = uni0291;
unicode = 657;
},
{
glyphname = uni0292;
kernLeft = z;
layers = (
{
layerId = m01;
shapes = (
{
closed = 1;
nodes = (
(248,-178,o),
(316,-108,o),
(356,-16,o),
(356,38,qs),
(356,85,o),
(313,156,o),
(235,192,o),
(181,184,q),
(419,441,l),
(427,486,l),
(91,486,l),
(79,424,l),
(322,424,l),
(76,161,l),
(99,118,l),
(117,126,o),
(148,135,o),
(167,135,qs),
(220,135,o),
(279,83,o),
(279,30,qs),
(279,-23,o),
(230,-107,o),
(156,-154,o),
(116,-154,qs),
(64,-154,o),
(-2,-116,o),
(-24,-93,q),
(-67,-138,l),
(-42,-168,o),
(44,-217,o),
(113,-217,qs),
(161,-217,o)
);
}
);
width = 418;
}
);
note = uni0292;
unicode = 658;
},
{
glyphname = uni1D25;
layers = (
{
layerId = m01;
shapes = (
{
closed = 1;
nodes = (
(178,36,o),
(223,76,q),
(255,37,o),
(328,-12,o),
(371,-12,qs),
(415,-12,o),
(449,8,q),
(426,66,l),
(416,60,o),
(394,52,o),
(380,52,qs),
(352,52,o),
(303,86,o),
(277,116,q),
(352,175,o),
(446,302,o),
(446,371,qs),
(446,431,o),
(368,498,o),
(304,498,qs),
(240,498,o),
(149,442,o),
(101,352,o),
(101,302,qs),
(101,253,o),
(150,162,o),
(184,120,q),
(149,89,o),
(89,52,o),
(60,52,qs),
(46,52,o),
(23,58,o),
(13,65,q),
(-20,10,l),
(5,-12,o),
(52,-12,qs),
(92,-12,o)
);
}
);
width = 502;
}
);
note = uni1D25;
unicode = 7461;
},
{
glyphname = uni0294;
layers = (
{
layerId = m01;
shapes = (
{
closed = 1;
nodes = (
(229,290,l),
(340,349,o),
(448,494,o),
(448,572,qs),
(448,646,o),
(355,724,o),
(283,724,qs),
(216,724,o),
(111,670,o),
(74,637,q),
(105,588,l),
(136,617,o),
(218,661,o),
(264,661,qs),
(315,661,o),
(370,605,o),
(370,555,qs),
(370,500,o),
(274,381,o),
(159,323,q),
(95,0,l),
(171,0,l)
);
}
);
width = 410;
}
);
note = uni0294;
unicode = 660;
},
{
glyphname = uni0295;
layers = (
{
layerId = m01;
shapes = (
{
closed = 1;
nodes = (
(278,322,l),
(212,366,o),
(148,456,o),
(148,508,qs),
(148,551,o),
(188,620,o),
(258,661,o),
(302,661,qs),
(351,661,o),
(417,619,o),
(439,590,q),
(487,636,l),
(462,670,o),
(375,724,o),
(306,724,qs),
(240,724,o),
(133,666,o),
(70,563,o),
(70,497,qs),
(70,430,o),
(141,333,o),
(196,290,q),
(139,0,l),
(215,0,l)
);
}
);
width = 410;
}
);
note = uni0295;
unicode = 661;
},
{
glyphname = uni02A1;
layers = (
{
layerId = m01;
shapes = (
{
closed = 1;
nodes = (
(205,140,l),
(319,140,l),
(330,192,l),
(215,192,l),
(235,290,l),
(346,349,o),
(454,494,o),
(454,572,qs),
(454,646,o),
(361,724,o),
(289,724,qs),
(222,724,o),
(117,670,o),
(80,637,q),
(111,588,l),
(142,617,o),
(224,661,o),
(270,661,qs),
(321,661,o),
(376,605,o),
(376,555,qs),
(376,500,o),
(280,381,o),
(165,323,q),
(139,192,l),
(105,192,l),
(18,187,l),
(9,140,l),
(129,140,l),
(101,0,l),
(177,0,l)
);
}
);
width = 423;
}
);
note = uni02A1;
unicode = 673;
},
{
glyphname = uni02A2;
layers = (
{
layerId = m01;
shapes = (
{
closed = 1;
nodes = (
(248,140,l),
(364,140,l),
(375,192,l),
(259,192,l),
(284,322,l),
(218,366,o),
(154,456,o),
(154,508,qs),
(154,551,o),
(194,620,o),
(264,661,o),
(308,661,qs),
(357,661,o),
(423,619,o),
(445,590,q),
(493,636,l),
(468,670,o),
(381,724,o),
(312,724,qs),
(246,724,o),
(139,666,o),
(76,563,o),
(76,497,qs),
(76,430,o),
(147,333,o),
(202,290,q),
(183,192,l),
(151,192,l),
(63,187,l),
(54,140,l),
(173,140,l),
(145,0,l),
(221,0,l)
);
}
);
width = 423;
}
);
note = uni02A2;
unicode = 674;
},
{
glyphname = uni01C2;
layers = (
{
layerId = m01;
shapes = (
{
closed = 1;
nodes = (
(175,255,l),
(289,255,l),
(301,308,l),
(185,308,l),
(208,419,l),
(322,419,l),
(333,472,l),
(218,472,l),
(268,720,l),
(191,720,l),
(142,472,l),
(101,472,l),
(23,468,l),
(14,419,l),
(131,419,l),
(109,308,l),
(68,308,l),
(-10,303,l),
(-19,255,l),
(98,255,l),
(49,8,l),
(125,8,l)
);
}
);
width = 296;
}
);
note = uni01C2;
unicode = 450;
},
{
glyphname = uni01C3;
layers = (
{
layerId = m01;
shapes = (
{
closed = 1;
nodes = (
(229,579,l),
(257,712,l),
(179,712,l),
(157,579,l),
(90,196,l),
(143,196,l)
);
},
{
closed = 1;
nodes = (
(144,32,o),
(144,57,qs),
(144,79,o),
(120,108,o),
(98,108,qs),
(70,108,o),
(31,64,o),
(31,38,qs),
(31,16,o),
(56,-12,o),
(78,-12,qs),
(107,-12,o)
);
}
);
width = 246;
}
);
note = uni01C3;
unicode = 451;
},
{
glyphname = uni0298;
layers = (
{
layerId = m01;
shapes = (
{
closed = 1;
nodes = (
(329,48,o),
(400,152,o),
(450,288,o),
(476,442,o),
(476,520,qs),
(476,594,o),
(436,684,o),
(368,724,o),
(326,724,qs),
(275,724,o),
(187,664,o),
(117,560,o),
(67,424,o),
(41,271,o),
(41,193,qs),
(41,119,o),
(80,28,o),
(148,-12,o),
(190,-12,qs),
(241,-12,o)
);
},
{
closed = 1;
nodes = (
(114,116,o),
(114,198,qs),
(114,261,o),
(134,391,o),
(170,509,o),
(220,603,o),
(281,657,o),
(315,657,qs),
(339,657,o),
(379,632,o),
(403,570,o),
(403,514,qs),
(403,451,o),
(383,322,o),
(347,203,o),
(297,109,o),
(236,55,o),
(202,55,qs),
(165,55,o)
);
},
{
closed = 1;
nodes = (
(303,344,o),
(303,367,qs),
(303,384,o),
(282,406,o),
(266,406,qs),
(245,406,o),
(213,375,o),
(213,350,qs),
(213,334,o),
(234,312,o),
(250,312,qs),
(270,312,o)
);
}
);
width = 481;
}
);
note = uni0298;
unicode = 664;
},
{
glyphname = f_f;
kernLeft = f;
kernRight = f;
layers = (
{
layerId = m01;
shapes = (
{
closed = 1;
nodes = (
(472,424,l),
(570,424,l),
(583,486,l),
(484,486,l),
(501,569,ls),
(510,612,o),
(551,662,o),
(584,662,qs),
(601,662,o),
(628,652,o),
(638,645,q),
(665,701,l),
(646,711,o),
(605,724,o),
(579,724,qs),
(518,724,o),
(440,641,o),
(425,567,qs),
(409,486,l),
(217,486,l),
(232,559,ls),
(240,602,o),
(286,652,o),
(321,652,qs),
(341,652,o),
(369,642,o),
(381,635,q),
(408,691,l),
(388,701,o),
(344,714,o),
(315,714,qs),
(252,714,o),
(171,631,o),
(155,557,qs),
(141,486,l),
(76,481,l),
(65,424,l),
(128,424,l),
(43,0,l),
(119,0,l),
(205,424,l),
(396,424,l),
(311,0,l),
(387,0,l)
);
}
);
width = 549;
}
);
note = f_f;
unicode = 64256;
},
{
glyphname = f_t;
kernLeft = f;
kernRight = t;
layers = (
{
layerId = m01;
shapes = (
{
closed = 1;
nodes = (
(205,424,l),
(368,424,l),
(311,150,ls),
(308,137,o),
(306,111,o),
(306,96,qs),
(306,51,o),
(358,-12,o),
(422,-12,qs),
(451,-12,o),
(497,3,o),
(513,10,q),
(497,65,l),
(486,60,o),
(460,50,o),
(446,50,qs),
(412,50,o),
(384,80,o),
(384,110,qs),
(384,128,o),
(387,146,qs),
(444,424,l),
(569,424,l),
(581,486,l),
(458,486,l),
(485,620,l),
(420,620,l),
(384,486,l),
(217,486,l),
(234,569,ls),
(242,612,o),
(283,662,o),
(316,662,qs),
(333,662,o),
(360,652,o),
(370,645,q),
(397,701,l),
(378,711,o),
(337,724,o),
(311,724,qs),
(250,724,o),
(172,641,o),
(157,567,qs),
(141,486,l),
(76,481,l),
(65,424,l),
(128,424,l),
(43,0,l),
(119,0,l)
);
}
);
width = 561;
}
);
note = f_t;
},
{
glyphname = f_f_t;
kernLeft = f;
kernRight = t;
layers = (
{
layerId = m01;
shapes = (
{
closed = 1;
nodes = (
(472,424,l),
(636,424,l),
(579,150,ls),
(573,123,o),
(573,96,qs),
(573,51,o),
(626,-12,o),
(689,-12,qs),
(718,-12,o),
(765,3,o),
(781,10,q),
(765,65,l),
(754,60,o),
(728,50,o),
(713,50,qs),
(679,50,o),
(651,80,o),
(651,110,qs),
(651,120,o),
(654,137,o),
(655,146,q),
(712,424,l),
(836,424,l),
(849,486,l),
(726,486,l),
(752,620,l),
(688,620,l),
(651,486,l),
(484,486,l),
(501,569,ls),
(510,612,o),
(551,662,o),
(584,662,qs),
(601,662,o),
(628,652,o),
(638,645,q),
(665,701,l),
(646,711,o),
(605,724,o),
(579,724,qs),
(518,724,o),
(440,641,o),
(425,567,qs),
(409,486,l),
(217,486,l),
(232,559,ls),
(240,602,o),
(286,652,o),
(321,652,qs),
(341,652,o),
(369,642,o),
(381,635,q),
(408,691,l),
(388,701,o),
(344,714,o),
(315,714,qs),
(252,714,o),
(171,631,o),
(155,557,qs),
(141,486,l),
(76,481,l),
(65,424,l),
(128,424,l),
(43,0,l),
(119,0,l),
(205,424,l),
(396,424,l),
(311,0,l),
(387,0,l)
);
}
);
width = 829;
}
);
note = f_f_t;
},
{
glyphname = I.a;
layers = (
{
layerId = m01;
shapes = (
{
closed = 1;
nodes = (
(244,66,l),
(163,66,l),
(268,591,l),
(349,591,l),
(363,656,l),
(125,656,l),
(111,591,l),
(191,591,l),
(85,66,l),
(7,66,l),
(-7,0,l),
(230,0,l)
);
}
);
width = 324;
}
);
note = I.a;
},
{
glyphname = Iogonek.a;
layers = (
{
layerId = m01;
shapes = (
{
closed = 1;
nodes = (
(137,-197,o),
(153,-186,q),
(135,-146,l),
(119,-157,o),
(100,-157,qs),
(84,-157,o),
(63,-137,o),
(63,-119,qs),
(63,-90,o),
(113,-23,o),
(150,0,q),
(230,0,l),
(244,66,l),
(163,66,l),
(268,591,l),
(349,591,l),
(363,656,l),
(125,656,l),
(111,591,l),
(191,591,l),
(85,66,l),
(7,66,l),
(-7,0,l),
(88,0,l),
(71,-13,o),
(29,-58,o),
(-1,-113,o),
(-1,-142,qs),
(-1,-176,o),
(42,-211,o),
(75,-211,qs),
(92,-211,o)
);
}
);
width = 324;
}
);
note = Iogonek.a;
},
{
glyphname = uni014A.a;
layers = (
{
layerId = m01;
shapes = (
{
closed = 1;
nodes = (
(466,-80,o),
(480,-11,qs),
(614,656,l),
(539,656,l),
(470,308,ls),
(460,257,o),
(446,148,o),
(440,99,q),
(436,99,l),
(394,236,l),
(244,656,l),
(166,656,l),
(35,0,l),
(110,0,l),
(180,353,ls),
(190,403,o),
(205,509,o),
(211,560,q),
(215,560,l),
(258,419,l),
(407,-3,l),
(397,-57,o),
(360,-101,o),
(332,-101,qs),
(316,-101,o),
(296,-94,o),
(286,-88,q),
(261,-145,l),
(278,-154,o),
(313,-164,o),
(336,-164,qs),
(399,-164,o)
);
}
);
width = 619;
}
);
note = uni014A.a;
},
{
glyphname = a.a;
kernLeft = ae;
kernRight = a.a;
layers = (
{
layerId = m01;
shapes = (
{
closed = 1;
nodes = (
(280,29,o),
(311,57,q),
(314,57,l),
(310,0,l),
(372,0,l),
(429,286,ls),
(437,320,o),
(437,353,qs),
(437,430,o),
(358,498,o),
(287,498,qs),
(243,498,o),
(151,469,o),
(113,448,q),
(138,392,l),
(173,412,o),
(240,436,o),
(273,436,qs),
(317,436,o),
(361,396,o),
(361,346,qs),
(361,336,o),
(359,315,o),
(355,301,q),
(260,299,o),
(114,259,o),
(32,175,o),
(32,106,qs),
(32,49,o),
(104,-12,o),
(153,-12,qs),
(194,-12,o)
);
},
{
closed = 1;
nodes = (
(107,85,o),
(107,122,qs),
(107,183,o),
(233,247,o),
(346,250,q),
(319,115,l),
(282,83,o),
(216,49,o),
(185,49,qs),
(151,49,o)
);
}
);
width = 492;
}
);
note = a.a;
},
{
glyphname = aogonek.a;
kernLeft = ae;
kernRight = a.a;
layers = (
{
layerId = m01;
shapes = (
{
closed = 1;
nodes = (
(336,-191,o),
(352,-181,q),
(336,-143,l),
(318,-155,o),
(298,-155,qs),
(283,-155,o),
(262,-135,o),
(262,-118,qs),
(262,-85,o),
(321,-23,o),
(372,0,q),
(429,286,ls),
(437,320,o),
(437,353,qs),
(437,430,o),
(358,498,o),
(287,498,qs),
(243,498,o),
(151,469,o),
(113,448,q),
(138,392,l),
(173,412,o),
(240,436,o),
(273,436,qs),
(317,436,o),
(361,396,o),
(361,346,qs),
(361,336,o),
(359,315,o),
(355,301,q),
(260,299,o),
(114,259,o),
(32,175,o),
(32,106,qs),
(32,49,o),
(104,-12,o),
(153,-12,qs),
(194,-12,o),
(280,29,o),
(311,57,q),
(314,57,l),
(311,6,l),
(285,-8,o),
(234,-54,o),
(201,-109,o),
(201,-139,qs),
(201,-172,o),
(244,-206,o),
(276,-206,qs),
(293,-206,o)
);
},
{
closed = 1;
nodes = (
(107,85,o),
(107,122,qs),
(107,183,o),
(233,247,o),
(346,250,q),
(319,115,l),
(282,83,o),
(216,49,o),
(185,49,qs),
(151,49,o)
);
}
);
width = 492;
}
);
note = aogonek.a;
},
{
glyphname = aogonek.b;
kernLeft = ae;
kernRight = a.a;
layers = (
{
layerId = m01;
shapes = (
{
closed = 1;
nodes = (
(217,-188,o),
(233,-178,q),
(217,-140,l),
(199,-152,o),
(180,-152,qs),
(164,-152,o),
(143,-132,o),
(143,-115,qs),
(143,-89,o),
(182,-26,o),
(216,-6,qs),
(239,9,o),
(284,39,o),
(311,57,q),
(314,57,l),
(310,0,l),
(372,0,l),
(429,286,ls),
(437,320,o),
(437,353,qs),
(437,430,o),
(358,498,o),
(287,498,qs),
(243,498,o),
(151,469,o),
(113,448,q),
(138,392,l),
(173,412,o),
(240,436,o),
(273,436,qs),
(317,436,o),
(361,396,o),
(361,346,qs),
(361,336,o),
(359,315,o),
(355,301,q),
(260,299,o),
(114,259,o),
(32,175,o),
(32,106,qs),
(32,49,o),
(104,-12,o),
(153,-12,qs),
(155,-12,l),
(127,-35,o),
(82,-100,o),
(82,-136,qs),
(82,-170,o),
(125,-203,o),
(157,-203,qs),
(174,-203,o)
);
},
{
closed = 1;
nodes = (
(282,83,o),
(216,49,o),
(185,49,qs),
(151,49,o),
(107,85,o),
(107,122,qs),
(107,183,o),
(233,247,o),
(346,250,q),
(319,115,l)
);
}
);
width = 492;
}
);
note = aogonek.b;
},
{
glyphname = g.a;
kernLeft = g.a;
kernRight = g.a;
layers = (
{
layerId = m01;
shapes = (
{
closed = 1;
nodes = (
(330,-187,o),
(398,-113,o),
(398,-58,qs),
(398,-10,o),
(325,42,o),
(230,53,qs),
(175,59,o),
(137,83,o),
(137,108,qs),
(137,125,o),
(157,154,o),
(170,163,q),
(191,154,o),
(220,154,qs),
(279,154,o),
(370,206,o),
(422,297,o),
(422,355,qs),
(422,394,o),
(398,426,q),
(494,426,l),
(506,486,l),
(340,486,l),
(327,492,o),
(299,498,o),
(281,498,qs),
(224,498,o),
(132,444,o),
(79,352,o),
(79,293,qs),
(79,259,o),
(107,205,o),
(129,186,q),
(129,182,l),
(102,163,o),
(71,117,o),
(71,92,qs),
(71,50,o),
(102,27,q),
(102,25,l),
(75,12,o),
(21,-25,o),
(-15,-75,o),
(-15,-107,qs),
(-15,-151,o),
(41,-202,o),
(123,-224,o),
(163,-224,qs),
(223,-224,o)
);
},
{
closed = 1;
nodes = (
(150,256,o),
(150,298,qs),
(150,335,o),
(183,400,o),
(241,442,o),
(277,442,qs),
(313,442,o),
(354,391,o),
(354,350,qs),
(354,314,o),
(321,248,o),
(264,206,o),
(228,206,qs),
(192,206,o)
);
},
{
closed = 1;
nodes = (
(53,-134,o),
(53,-93,qs),
(53,-72,o),
(82,-36,o),
(124,-6,o),
(144,3,q),
(176,-5,o),
(203,-8,qs),
(262,-15,o),
(322,-45,o),
(322,-77,qs),
(322,-117,o),
(235,-171,o),
(170,-171,qs),
(120,-171,o)
);
}
);
width = 477;
}
);
note = g.a;
},
{
glyphname = uni0123.a;
kernLeft = g.a;
kernRight = g.a;
layers = (
{
layerId = m01;
shapes = (
{
closed = 1;
nodes = (
(330,-187,o),
(398,-113,o),
(398,-58,qs),
(398,-10,o),
(325,42,o),
(230,53,qs),
(175,59,o),
(137,83,o),
(137,108,qs),
(137,125,o),
(157,154,o),
(170,163,q),
(191,154,o),
(220,154,qs),
(279,154,o),
(370,206,o),
(422,297,o),
(422,355,qs),
(422,394,o),
(398,426,q),
(494,426,l),
(506,486,l),
(340,486,l),
(327,492,o),
(299,498,o),
(281,498,qs),
(224,498,o),
(132,444,o),
(79,352,o),
(79,293,qs),
(79,259,o),
(107,205,o),
(129,186,q),
(129,182,l),
(102,163,o),
(71,117,o),
(71,92,qs),
(71,50,o),
(102,27,q),
(102,25,l),
(75,12,o),
(21,-25,o),
(-15,-75,o),
(-15,-107,qs),
(-15,-151,o),
(41,-202,o),
(123,-224,o),
(163,-224,qs),
(223,-224,o)
);
},
{
closed = 1;
nodes = (
(150,256,o),
(150,298,qs),
(150,335,o),
(183,400,o),
(241,442,o),
(277,442,qs),
(313,442,o),
(354,391,o),
(354,350,qs),
(354,314,o),
(321,248,o),
(264,206,o),
(228,206,qs),
(192,206,o)
);
},
{
closed = 1;
nodes = (
(53,-134,o),
(53,-93,qs),
(53,-72,o),
(82,-36,o),
(124,-6,o),
(144,3,q),
(176,-5,o),
(203,-8,qs),
(262,-15,o),
(322,-45,o),
(322,-77,qs),
(322,-117,o),
(235,-171,o),
(170,-171,qs),
(120,-171,o)
);
},
{
closed = 1;
nodes = (
(295,617,o),
(295,653,qs),
(295,675,o),
(352,704,o),
(412,705,q),
(412,745,l),
(333,743,o),
(230,693,o),
(230,643,qs),
(230,615,o),
(271,582,o),
(336,576,q),
(358,613,l)
);
}
);
width = 477;
}
);
note = uni0123.a;
},
{
glyphname = l.a;
layers = (
{
layerId = m01;
shapes = (
{
closed = 1;
nodes = (
(250,712,l),
(173,712,l),
(31,0,l),
(107,0,l)
);
}
);
width = 238;
}
);
note = l.a;
},
{
glyphname = lcaron.a;
kernRight = dcaron;
layers = (
{
layerId = m01;
shapes = (
{
closed = 1;
nodes = (
(250,712,l),
(173,712,l),
(31,0,l),
(107,0,l)
);
},
{
closed = 1;
nodes = (
(350,703,l),
(361,760,l),
(307,760,l),
(267,548,l),
(306,548,l)
);
}
);
width = 243;
}
);
note = lcaron.a;
},
{
glyphname = lslash.a;
layers = (
{
layerId = m01;
shapes = (
{
closed = 1;
nodes = (
(197,373,l),
(313,435,l),
(293,485,l),
(210,438,l),
(265,712,l),
(188,712,l),
(126,400,l),
(29,348,l),
(49,298,l),
(113,335,l),
(46,0,l),
(122,0,l)
);
}
);
width = 268;
}
);
note = lslash.a;
},
{
glyphname = iogonek.x;
kernLeft = m;
layers = (
{
layerId = m01;
shapes = (
{
closed = 1;
nodes = (
(93,-191,o),
(109,-181,q),
(93,-143,l),
(75,-155,o),
(56,-155,qs),
(40,-155,o),
(19,-135,o),
(19,-118,qs),
(19,-86,o),
(65,-27,o),
(107,0,q),
(205,486,l),
(128,486,l),
(31,0,l),
(49,0,l),
(30,-13,o),
(-12,-56,o),
(-42,-110,o),
(-42,-139,qs),
(-42,-172,o),
(1,-206,o),
(33,-206,qs),
(50,-206,o)
);
}
);
width = 237;
}
);
note = iogonek.x;
},
{
glyphname = uni0268.x;
layers = (
{
layerId = m01;
shapes = (
{
closed = 1;
nodes = (
(165,229,l),
(254,229,l),
(264,281,l),
(176,281,l),
(217,486,l),
(140,486,l),
(99,281,l),
(7,276,l),
(-2,229,l),
(89,229,l),
(43,0,l),
(119,0,l)
);
}
);
width = 270;
}
);
note = uni0268.x;
},
{
glyphname = uni029D.x;
layers = (
{
layerId = m01;
shapes = (
{
closed = 1;
nodes = (
(-35,-63,o),
(-4,-63,qs),
(35,-63,o),
(72,-95,q),
(60,-120,o),
(19,-154,o),
(-13,-154,qs),
(-34,-154,o),
(-62,-132,o),
(-62,-114,qs),
(-62,-96,o)
);
},
{
closed = 1;
nodes = (
(209,-196,o),
(171,-122,o),
(150,-94,q),
(163,-63,o),
(171,-23,qs),
(272,486,l),
(196,486,l),
(91,-34,l),
(90,-37,l),
(46,-8,o),
(0,-8,qs),
(-42,-8,o),
(-97,-41,o),
(-124,-93,o),
(-124,-120,qs),
(-124,-162,o),
(-67,-217,o),
(-14,-217,qs),
(29,-217,o),
(95,-181,o),
(118,-150,q),
(148,-196,o),
(170,-263,q),
(223,-241,l)
);
}
);
width = 279;
}
);
note = uni029D.x;
},
{
glyphname = ampersand;
layers = (
{
layerId = m01;
shapes = (
{
closed = 1;
nodes = (
(287,614,o),
(330,614,qs),
(356,614,o),
(380,581,o),
(380,558,qs),
(380,523,o),
(341,467,o),
(278,421,o),
(240,398,q),
(229,442,o),
(229,480,qs),
(229,539,o)
);
},
{
closed = 1;
nodes = (
(330,27,o),
(372,61,q),
(434,8,o),
(495,-12,q),
(527,50,l),
(480,67,o),
(425,111,q),
(473,163,o),
(549,286,o),
(580,352,q),
(510,352,l),
(484,294,o),
(423,194,o),
(382,151,q),
(345,191,o),
(280,290,o),
(259,342,q),
(305,371,o),
(389,433,o),
(443,510,o),
(443,561,qs),
(443,607,o),
(389,668,o),
(335,668,qs),
(289,668,o),
(211,619,o),
(163,532,o),
(163,476,qs),
(163,422,o),
(181,363,q),
(138,337,o),
(62,275,o),
(15,195,o),
(15,141,qs),
(15,71,o),
(106,-12,o),
(180,-12,qs),
(234,-12,o)
);
},
{
closed = 1;
nodes = (
(156,273,o),
(202,304,q),
(225,249,o),
(291,145,o),
(330,102,q),
(298,77,o),
(229,49,o),
(194,49,qs),
(148,49,o),
(91,105,o),
(91,151,qs),
(91,200,o)
);
}
);
width = 582;
}
);
note = ampersand;
unicode = 38;
},
{
glyphname = zero;
layers = (
{
layerId = m01;
shapes = (
{
closed = 1;
nodes = (
(348,58,o),
(421,181,o),
(462,341,o),
(462,431,qs),
(462,493,o),
(426,592,o),
(356,650,o),
(306,650,qs),
(253,650,o),
(157,579,o),
(84,455,o),
(42,294,o),
(42,205,qs),
(42,143,o),
(79,44,o),
(150,-12,o),
(200,-12,qs),
(253,-12,o)
);
},
{
closed = 1;
nodes = (
(114,136,o),
(114,202,qs),
(114,270,o),
(143,406,o),
(195,519,o),
(262,588,o),
(301,588,qs),
(347,588,o),
(391,501,o),
(391,434,qs),
(391,366,o),
(362,230,o),
(310,117,o),
(243,49,o),
(204,49,qs),
(158,49,o)
);
}
);
width = 480;
}
);
note = zero;
unicode = 48;
},
{
glyphname = one;
layers = (
{
layerId = m01;
shapes = (
{
closed = 1;
nodes = (
(384,64,l),
(254,64,l),
(370,638,l),
(311,638,l),
(256,604,o),
(171,592,q),
(161,542,l),
(274,542,l),
(178,64,l),
(39,64,l),
(26,0,l),
(372,0,l)
);
}
);
width = 480;
}
);
note = one;
unicode = 49;
},
{
glyphname = two;
layers = (
{
layerId = m01;
shapes = (
{
closed = 1;
nodes = (
(397,66,l),
(121,66,l),
(204,138,o),
(328,250,o),
(410,346,o),
(452,440,o),
(452,493,qs),
(452,561,o),
(364,650,o),
(282,650,qs),
(234,650,o),
(147,609,o),
(103,571,q),
(142,523,l),
(176,554,o),
(241,587,o),
(273,587,qs),
(326,587,o),
(377,527,o),
(377,483,qs),
(377,437,o),
(330,348,o),
(236,250,o),
(94,127,o),
(-2,46,q),
(-10,0,l),
(385,0,l)
);
}
);
width = 480;
}
);
note = two;
unicode = 50;
},
{
glyphname = three;
layers = (
{
layerId = m01;
shapes = (
{
closed = 1;
nodes = (
(359,37,o),
(420,126,o),
(420,187,qs),
(420,237,o),
(361,309,o),
(308,326,q),
(308,330,l),
(382,351,o),
(457,443,o),
(457,504,qs),
(457,570,o),
(370,650,o),
(290,650,qs),
(197,650,o),
(114,587,q),
(153,536,l),
(182,559,o),
(249,587,o),
(278,587,qs),
(329,587,o),
(379,533,o),
(379,491,qs),
(379,461,o),
(340,400,o),
(249,359,o),
(170,359,q),
(158,301,l),
(259,301,o),
(343,235,o),
(343,184,qs),
(343,127,o),
(256,52,o),
(188,52,qs),
(139,52,o),
(65,104,o),
(42,138,q),
(-9,98,l),
(21,53,o),
(122,-12,o),
(187,-12,qs),
(254,-12,o)
);
}
);
width = 480;
}
);
note = three;
unicode = 51;
},
{
glyphname = four;
layers = (
{
layerId = m01;
shapes = (
{
closed = 1;
nodes = (
(449,176,l),
(461,238,l),
(378,238,l),
(458,638,l),
(374,638,l),
(24,228,l),
(15,176,l),
(294,176,l),
(259,0,l),
(331,0,l),
(366,176,l)
);
},
{
closed = 1;
nodes = (
(311,474,o),
(351,526,o),
(371,554,q),
(375,554,l),
(368,521,o),
(350,456,o),
(344,427,qs),
(306,238,l),
(109,238,l),
(291,450,ls)
);
}
);
width = 480;
}
);
note = four;
unicode = 52;
},
{
glyphname = five;
layers = (
{
layerId = m01;
shapes = (
{
closed = 1;
nodes = (
(361,49,o),
(428,160,o),
(428,236,qs),
(428,319,o),
(333,404,o),
(261,404,qs),
(236,404,o),
(194,392,o),
(177,384,q),
(229,572,l),
(462,572,l),
(475,638,l),
(176,638,l),
(96,337,l),
(129,311,l),
(161,328,o),
(205,344,o),
(236,344,qs),
(288,344,o),
(351,284,o),
(351,222,qs),
(351,171,o),
(307,94,o),
(235,52,o),
(193,52,qs),
(137,52,o),
(72,104,o),
(50,137,q),
(0,96,l),
(29,51,o),
(123,-12,o),
(188,-12,qs),
(251,-12,o)
);
}
);
width = 480;
}
);
note = five;
unicode = 53;
},
{
glyphname = six;
layers = (
{
layerId = m01;
shapes = (
{
closed = 1;
nodes = (
(123,237,o),
(124,248,q),
(160,295,o),
(239,329,o),
(264,329,qs),
(314,329,o),
(365,264,o),
(365,209,qs),
(365,169,o),
(330,95,o),
(270,48,o),
(232,48,qs),
(182,48,o),
(123,133,o),
(123,202,qs),
(123,214,o)
);
},
{
closed = 1;
nodes = (
(382,52,o),
(437,158,o),
(437,220,qs),
(437,298,o),
(352,386,o),
(281,386,qs),
(248,386,o),
(164,350,o),
(131,312,q),
(145,396,o),
(208,519,o),
(295,586,o),
(345,586,qs),
(405,586,o),
(439,528,q),
(491,569,l),
(471,601,o),
(402,650,o),
(349,650,qs),
(285,650,o),
(176,584,o),
(96,465,o),
(51,302,o),
(51,204,qs),
(51,141,o),
(94,44,o),
(174,-12,o),
(228,-12,qs),
(287,-12,o)
);
}
);
width = 480;
}
);
note = six;
unicode = 54;
},
{
glyphname = seven;
layers = (
{
layerId = m01;
shapes = (
{
closed = 1;
nodes = (
(223,109,o),
(290,307,o),
(408,495,o),
(507,588,q),
(517,638,l),
(119,638,l),
(105,572,l),
(415,572,l),
(334,492,o),
(223,319,o),
(149,120,o),
(120,0,q),
(200,0,l)
);
}
);
width = 480;
}
);
note = seven;
unicode = 55;
},
{
glyphname = eight;
layers = (
{
layerId = m01;
shapes = (
{
closed = 1;
nodes = (
(377,33,o),
(437,116,o),
(437,174,qs),
(437,208,o),
(409,264,o),
(369,305,o),
(349,318,q),
(349,322,l),
(404,353,o),
(474,439,o),
(474,503,qs),
(474,553,o),
(428,618,o),
(355,650,o),
(314,650,qs),
(264,650,o),
(177,608,o),
(125,531,o),
(125,476,qs),
(125,437,o),
(155,378,o),
(183,350,q),
(183,346,l),
(144,329,o),
(76,276,o),
(33,202,o),
(33,153,qs),
(33,97,o),
(89,24,o),
(176,-12,o),
(222,-12,qs),
(280,-12,o)
);
},
{
closed = 1;
nodes = (
(194,430,o),
(194,480,qs),
(194,533,o),
(264,592,o),
(308,592,qs),
(350,592,o),
(406,540,o),
(406,493,qs),
(406,443,o),
(346,369,o),
(309,345,q),
(256,371,o)
);
},
{
closed = 1;
nodes = (
(103,106,o),
(103,161,qs),
(103,217,o),
(169,292,o),
(219,320,q),
(258,299,o),
(325,258,o),
(366,207,o),
(366,170,qs),
(366,130,o),
(326,74,o),
(262,45,o),
(226,45,qs),
(176,45,o)
);
}
);
width = 480;
}
);
note = eight;
unicode = 56;
},
{
glyphname = nine;
layers = (
{
layerId = m01;
shapes = (
{
closed = 1;
nodes = (
(177,543,o),
(237,590,o),
(274,590,qs),
(324,590,o),
(383,505,o),
(383,436,qs),
(383,424,o),
(383,401,o),
(382,390,q),
(347,343,o),
(267,309,o),
(243,309,qs),
(193,309,o),
(141,374,o),
(141,429,qs),
(141,469,o)
);
},
{
closed = 1;
nodes = (
(330,54,o),
(410,173,o),
(455,337,o),
(455,434,qs),
(455,497,o),
(412,595,o),
(333,650,o),
(278,650,qs),
(219,650,o),
(125,586,o),
(70,481,o),
(70,418,qs),
(70,340,o),
(155,252,o),
(225,252,qs),
(258,252,o),
(341,287,o),
(374,324,q),
(361,242,o),
(298,119,o),
(212,52,o),
(162,52,qs),
(100,52,o),
(68,110,q),
(16,69,l),
(36,36,o),
(105,-12,o),
(157,-12,qs),
(221,-12,o)
);
}
);
width = 480;
}
);
note = nine;
unicode = 57;
},
{
glyphname = zero.0;
layers = (
{
layerId = m01;
shapes = (
{
closed = 1;
nodes = (
(348,58,o),
(421,181,o),
(462,341,o),
(462,431,qs),
(462,493,o),
(426,592,o),
(356,650,o),
(306,650,qs),
(253,650,o),
(157,579,o),
(84,455,o),
(42,294,o),
(42,205,qs),
(42,143,o),
(79,44,o),
(150,-12,o),
(200,-12,qs),
(253,-12,o)
);
},
{
closed = 1;
nodes = (
(110,136,o),
(110,202,qs),
(110,270,o),
(140,406,o),
(192,519,o),
(262,588,o),
(301,588,qs),
(350,588,o),
(395,501,o),
(395,434,qs),
(395,366,o),
(365,230,o),
(312,117,o),
(243,49,o),
(204,49,qs),
(155,49,o)
);
},
{
closed = 1;
nodes = (
(314,306,o),
(314,334,qs),
(314,357,o),
(289,389,o),
(265,389,qs),
(235,389,o),
(193,340,o),
(193,312,qs),
(193,290,o),
(220,259,o),
(243,259,qs),
(274,259,o)
);
}
);
width = 480;
}
);
note = zero.0;
},
{
glyphname = zero.0s;
layers = (
{
layerId = m01;
shapes = (
{
closed = 1;
nodes = (
(348,58,o),
(421,181,o),
(462,341,o),
(462,431,qs),
(462,493,o),
(426,592,o),
(356,650,o),
(306,650,qs),
(253,650,o),
(157,579,o),
(84,455,o),
(42,294,o),
(42,205,qs),
(42,143,o),
(79,44,o),
(150,-12,o),
(200,-12,qs),
(253,-12,o)
);
},
{
closed = 1;
nodes = (
(391,501,o),
(391,434,qs),
(391,372,o),
(366,245,o),
(344,192,q),
(192,507,l),
(215,544,o),
(271,588,o),
(301,588,qs),
(347,588,o)
);
},
{
closed = 1;
nodes = (
(114,136,o),
(114,202,qs),
(114,266,o),
(141,395,o),
(163,449,q),
(315,134,l),
(292,95,o),
(236,49,o),
(204,49,qs),
(158,49,o)
);
}
);
width = 480;
}
);
note = zero.0s;
},
{
glyphname = zero.pnum;
layers = (
{
layerId = m01;
shapes = (
{
closed = 1;
nodes = (
(363,58,o),
(439,181,o),
(482,341,o),
(482,431,qs),
(482,492,o),
(444,591,o),
(370,650,o),
(316,650,qs),
(261,650,o),
(162,579,o),
(86,455,o),
(42,294,o),
(42,205,qs),
(42,144,o),
(81,46,o),
(156,-12,o),
(210,-12,qs),
(265,-12,o)
);
},
{
closed = 1;
nodes = (
(114,136,o),
(114,202,qs),
(114,270,o),
(145,406,o),
(199,519,o),
(270,588,o),
(311,588,qs),
(362,588,o),
(411,501,o),
(411,434,qs),
(411,366,o),
(380,230,o),
(326,117,o),
(255,49,o),
(214,49,qs),
(162,49,o)
);
}
);
width = 504;
}
);
note = zero.pnum;
},
{
glyphname = one.pnum;
layers = (
{
layerId = m01;
shapes = (
{
closed = 1;
nodes = (
(305,638,l),
(246,638,l),
(191,604,o),
(105,592,q),
(95,542,l),
(209,542,l),
(100,0,l),
(177,0,l)
);
}
);
width = 340;
}
);
note = one.pnum;
},
{
glyphname = two.pnum;
layers = (
{
layerId = m01;
shapes = (
{
closed = 1;
nodes = (
(387,66,l),
(121,66,l),
(201,138,o),
(321,250,o),
(401,346,o),
(442,440,o),
(442,493,qs),
(442,561,o),
(358,650,o),
(282,650,qs),
(234,650,o),
(147,609,o),
(103,571,q),
(142,523,l),
(176,554,o),
(241,587,o),
(273,587,qs),
(320,587,o),
(367,527,o),
(367,483,qs),
(367,437,o),
(322,348,o),
(230,250,o),
(91,127,o),
(-2,46,q),
(-10,0,l),
(375,0,l)
);
}
);
width = 467;
}
);
note = two.pnum;
},
{
glyphname = seven.pnum;
layers = (
{
layerId = m01;
shapes = (
{
closed = 1;
nodes = (
(209,109,o),
(275,307,o),
(389,495,o),
(484,588,q),
(494,638,l),
(110,638,l),
(97,572,l),
(392,572,l),
(314,492,o),
(208,319,o),
(134,120,o),
(105,0,q),
(186,0,l)
);
}
);
width = 456;
}
);
note = seven.pnum;
},
{
glyphname = zero.0p;
layers = (
{
layerId = m01;
shapes = (
{
closed = 1;
nodes = (
(324,306,o),
(324,334,qs),
(324,357,o),
(299,389,o),
(275,389,qs),
(245,389,o),
(203,340,o),
(203,312,qs),
(203,290,o),
(230,259,o),
(253,259,qs),
(284,259,o)
);
},
{
closed = 1;
nodes = (
(363,58,o),
(439,181,o),
(482,341,o),
(482,431,qs),
(482,492,o),
(444,591,o),
(370,650,o),
(316,650,qs),
(261,650,o),
(162,579,o),
(86,455,o),
(42,294,o),
(42,205,qs),
(42,144,o),
(81,46,o),
(156,-12,o),
(210,-12,qs),
(265,-12,o)
);
},
{
closed = 1;
nodes = (
(114,136,o),
(114,202,qs),
(114,270,o),
(145,406,o),
(199,519,o),
(270,588,o),
(311,588,qs),
(362,588,o),
(411,501,o),
(411,434,qs),
(411,366,o),
(380,230,o),
(326,117,o),
(255,49,o),
(214,49,qs),
(162,49,o)
);
}
);
width = 504;
}
);
note = zero.0p;
},
{
glyphname = zero.0ps;
layers = (
{
layerId = m01;
shapes = (
{
closed = 1;
nodes = (
(363,58,o),
(439,181,o),
(482,341,o),
(482,431,qs),
(482,492,o),
(444,591,o),
(370,650,o),
(316,650,qs),
(261,650,o),
(162,579,o),
(86,455,o),
(42,294,o),
(42,205,qs),
(42,144,o),
(81,46,o),
(156,-12,o),
(210,-12,qs),
(265,-12,o)
);
},
{
closed = 1;
nodes = (
(411,501,o),
(411,434,qs),
(411,371,o),
(384,242,o),
(360,189,q),
(197,507,l),
(221,544,o),
(279,588,o),
(311,588,qs),
(362,588,o)
);
},
{
closed = 1;
nodes = (
(114,136,o),
(114,202,qs),
(114,267,o),
(142,398,o),
(167,453,q),
(331,134,l),
(306,95,o),
(247,49,o),
(214,49,qs),
(162,49,o)
);
}
);
width = 504;
}
);
note = zero.0ps;
},
{
glyphname = zero.tnum;
layers = (
{
layerId = m01;
shapes = (
{
closed = 1;
nodes = (
(352,57,o),
(418,172,o),
(453,311,o),
(453,380,qs),
(453,474,o),
(366,586,o),
(291,586,qs),
(233,586,o),
(139,516,o),
(73,401,o),
(38,262,o),
(38,193,qs),
(38,100,o),
(125,-12,o),
(201,-12,qs),
(259,-12,o)
);
},
{
closed = 1;
nodes = (
(110,128,o),
(110,201,qs),
(110,256,o),
(136,369,o),
(183,465,o),
(247,524,o),
(284,524,qs),
(331,524,o),
(380,446,o),
(380,373,qs),
(380,318,o),
(354,204,o),
(307,108,o),
(244,49,o),
(207,49,qs),
(160,49,o)
);
}
);
width = 480;
}
);
note = zero.tnum;
},
{
glyphname = one.tnum;
layers = (
{
layerId = m01;
shapes = (
{
closed = 1;
nodes = (
(384,64,l),
(254,64,l),
(357,574,l),
(298,574,l),
(243,540,o),
(157,528,q),
(147,478,l),
(261,478,l),
(178,64,l),
(39,64,l),
(26,0,l),
(372,0,l)
);
}
);
width = 480;
}
);
note = one.tnum;
},
{
glyphname = two.tnum;
layers = (
{
layerId = m01;
shapes = (
{
closed = 1;
nodes = (
(397,66,l),
(123,66,l),
(225,147,o),
(363,265,o),
(434,370,o),
(434,429,qs),
(434,497,o),
(346,586,o),
(264,586,qs),
(216,586,o),
(129,544,o),
(85,507,q),
(124,459,l),
(158,490,o),
(223,523,o),
(255,523,qs),
(308,523,o),
(359,463,o),
(359,419,qs),
(359,367,o),
(280,267,o),
(120,140,o),
(-2,46,q),
(-10,0,l),
(385,0,l)
);
}
);
width = 480;
}
);
note = two.tnum;
},
{
glyphname = three.tnum;
layers = (
{
layerId = m01;
shapes = (
{
closed = 1;
nodes = (
(344,-36,o),
(403,56,o),
(403,117,qs),
(403,169,o),
(345,240,o),
(296,258,q),
(296,262,l),
(366,283,o),
(444,378,o),
(444,440,qs),
(444,505,o),
(358,586,o),
(278,586,qs),
(184,586,o),
(101,523,q),
(141,472,l),
(169,495,o),
(236,523,o),
(265,523,qs),
(315,523,o),
(366,469,o),
(366,426,qs),
(366,395,o),
(327,333,o),
(236,291,o),
(157,291,q),
(145,234,l),
(245,234,o),
(327,167,o),
(327,116,qs),
(327,77,o),
(287,14,o),
(217,-22,o),
(171,-22,qs),
(122,-22,o),
(52,31,o),
(29,64,q),
(-22,24,l),
(9,-20,o),
(110,-86,o),
(174,-86,qs),
(240,-86,o)
);
}
);
width = 480;
}
);
note = three.tnum;
},
{
glyphname = four.tnum;
layers = (
{
layerId = m01;
shapes = (
{
closed = 1;
nodes = (
(293,409,o),
(331,462,o),
(351,490,q),
(355,490,l),
(348,457,o),
(330,391,o),
(325,363,qs),
(283,156,l),
(85,156,l),
(274,385,ls)
);
},
{
closed = 1;
nodes = (
(343,95,l),
(425,95,l),
(437,156,l),
(355,156,l),
(438,574,l),
(354,574,l),
(1,146,l),
(-9,95,l),
(271,95,l),
(237,-74,l),
(309,-74,l)
);
}
);
width = 480;
}
);
note = four.tnum;
},
{
glyphname = five.tnum;
layers = (
{
layerId = m01;
shapes = (
{
closed = 1;
nodes = (
(340,-26,o),
(408,85,o),
(408,161,qs),
(408,246,o),
(313,334,o),
(241,334,qs),
(216,334,o),
(174,323,o),
(157,314,q),
(211,508,l),
(443,508,l),
(457,574,l),
(157,574,l),
(76,268,l),
(109,242,l),
(140,259,o),
(185,275,o),
(216,275,qs),
(268,275,o),
(331,210,o),
(331,148,qs),
(331,96,o),
(287,19,o),
(214,-23,o),
(172,-23,qs),
(117,-23,o),
(52,30,o),
(30,62,q),
(-20,22,l),
(9,-24,o),
(102,-86,o),
(168,-86,qs),
(231,-86,o)
);
}
);
width = 480;
}
);
note = five.tnum;
},
{
glyphname = seven.tnum;
layers = (
{
layerId = m01;
shapes = (
{
closed = 1;
nodes = (
(208,37,o),
(275,239,o),
(393,430,o),
(491,524,q),
(501,574,l),
(107,574,l),
(93,508,l),
(399,508,l),
(318,427,o),
(208,251,o),
(133,48,o),
(104,-74,q),
(185,-74,l)
);
}
);
width = 480;
}
);
note = seven.tnum;
},
{
glyphname = nine.tnum;
layers = (
{
layerId = m01;
shapes = (
{
closed = 1;
nodes = (
(160,476,o),
(224,526,o),
(262,526,qs),
(312,526,o),
(371,440,o),
(371,372,qs),
(371,336,o),
(368,303,q),
(328,257,o),
(253,225,o),
(227,225,qs),
(177,225,o),
(122,295,o),
(122,355,qs),
(122,398,o)
);
},
{
closed = 1;
nodes = (
(317,-18,o),
(398,104,o),
(443,271,o),
(443,370,qs),
(443,433,o),
(400,531,o),
(322,586,o),
(267,586,qs),
(205,586,o),
(107,519,o),
(51,409,o),
(51,344,qs),
(51,260,o),
(140,168,o),
(209,168,qs),
(243,168,o),
(324,202,o),
(358,237,q),
(343,158,o),
(280,42,o),
(196,-21,o),
(147,-21,qs),
(116,-21,o),
(72,9,o),
(55,37,q),
(3,-4,l),
(23,-36,o),
(90,-85,o),
(142,-85,qs),
(207,-85,o)
);
}
);
width = 480;
}
);
note = nine.tnum;
},
{
glyphname = one.onum;
layers = (
{
layerId = m01;
shapes = (
{
closed = 1;
nodes = (
(286,574,l),
(227,574,l),
(172,540,o),
(86,528,q),
(76,478,l),
(190,478,l),
(93,0,l),
(170,0,l)
);
}
);
width = 342;
}
);
note = one.onum;
},
{
glyphname = two.onum;
layers = (
{
layerId = m01;
shapes = (
{
closed = 1;
nodes = (
(381,66,l),
(120,66,l),
(218,147,o),
(353,265,o),
(422,370,o),
(422,429,qs),
(422,497,o),
(338,586,o),
(264,586,qs),
(216,586,o),
(129,544,o),
(85,507,q),
(124,459,l),
(158,490,o),
(223,523,o),
(255,523,qs),
(300,523,o),
(347,463,o),
(347,419,qs),
(347,367,o),
(270,267,o),
(115,140,o),
(-2,46,q),
(-10,0,l),
(369,0,l)
);
}
);
width = 462;
}
);
note = two.onum;
},
{
glyphname = seven.onum;
layers = (
{
layerId = m01;
shapes = (
{
closed = 1;
nodes = (
(189,37,o),
(255,240,o),
(370,431,o),
(468,524,q),
(478,574,l),
(93,574,l),
(80,508,l),
(376,508,l),
(296,428,o),
(188,252,o),
(114,48,o),
(85,-74,q),
(166,-74,l)
);
}
);
width = 456;
}
);
note = seven.onum;
},
{
glyphname = zero.c;
layers = (
{
layerId = m01;
shapes = (
{
closed = 1;
nodes = (
(350,62,o),
(424,192,o),
(466,362,o),
(466,458,qs),
(466,553,o),
(384,668,o),
(310,668,qs),
(256,668,o),
(159,594,o),
(85,464,o),
(42,293,o),
(42,196,qs),
(42,102,o),
(124,-12,o),
(200,-12,qs),
(254,-12,o)
);
},
{
closed = 1;
nodes = (
(114,126,o),
(114,193,qs),
(114,267,o),
(144,414,o),
(196,535,o),
(266,607,o),
(305,607,qs),
(351,607,o),
(395,529,o),
(395,461,qs),
(395,386,o),
(365,240,o),
(313,121,o),
(243,49,o),
(204,49,qs),
(158,49,o)
);
}
);
width = 480;
}
);
note = zero.c;
},
{
glyphname = one.c;
layers = (
{
layerId = m01;
shapes = (
{
closed = 1;
nodes = (
(384,64,l),
(254,64,l),
(374,656,l),
(315,656,l),
(287,640,o),
(218,616,o),
(175,610,q),
(165,561,l),
(278,561,l),
(178,64,l),
(39,64,l),
(26,0,l),
(372,0,l)
);
}
);
width = 480;
}
);
note = one.c;
},
{
glyphname = two.c;
layers = (
{
layerId = m01;
shapes = (
{
closed = 1;
nodes = (
(397,66,l),
(121,66,l),
(206,139,o),
(331,255,o),
(413,356,o),
(454,455,o),
(454,512,qs),
(454,580,o),
(365,668,o),
(283,668,qs),
(235,668,o),
(149,627,o),
(105,590,q),
(144,542,l),
(177,573,o),
(243,606,o),
(275,606,qs),
(327,606,o),
(378,545,o),
(378,502,qs),
(378,452,o),
(333,358,o),
(239,254,o),
(96,128,o),
(-2,46,q),
(-10,0,l),
(385,0,l)
);
}
);
width = 480;
}
);
note = two.c;
},
{
glyphname = three.c;
layers = (
{
layerId = m01;
shapes = (
{
closed = 1;
nodes = (
(359,37,o),
(420,127,o),
(420,188,qs),
(420,240,o),
(362,318,o),
(310,335,q),
(310,339,l),
(386,360,o),
(461,458,o),
(461,522,qs),
(461,588,o),
(374,668,o),
(294,668,qs),
(200,668,o),
(118,606,q),
(157,554,l),
(186,578,o),
(253,606,o),
(282,606,qs),
(333,606,o),
(383,552,o),
(383,509,qs),
(383,477,o),
(344,412,o),
(252,368,o),
(172,368,q),
(160,311,l),
(261,311,o),
(343,240,o),
(343,185,qs),
(343,127,o),
(256,52,o),
(188,52,qs),
(139,52,o),
(65,104,o),
(42,138,q),
(-9,98,l),
(21,53,o),
(122,-12,o),
(187,-12,qs),
(254,-12,o)
);
}
);
width = 480;
}
);
note = three.c;
},
{
glyphname = four.c;
layers = (
{
layerId = m01;
shapes = (
{
closed = 1;
nodes = (
(451,186,l),
(464,247,l),
(380,247,l),
(462,656,l),
(378,656,l),
(29,237,l),
(20,186,l),
(297,186,l),
(259,0,l),
(331,0,l),
(368,186,l)
);
},
{
closed = 1;
nodes = (
(318,493,o),
(355,546,o),
(375,574,q),
(379,574,l),
(372,540,o),
(356,475,o),
(350,446,qs),
(309,247,l),
(114,247,l),
(298,468,ls)
);
}
);
width = 480;
}
);
note = four.c;
},
{
glyphname = five.c;
layers = (
{
layerId = m01;
shapes = (
{
closed = 1;
nodes = (
(359,49,o),
(427,162,o),
(427,238,qs),
(427,325,o),
(333,413,o),
(262,413,qs),
(237,413,o),
(195,402,o),
(178,393,q),
(232,591,l),
(465,591,l),
(478,656,l),
(178,656,l),
(97,347,l),
(130,320,l),
(161,337,o),
(206,353,o),
(237,353,qs),
(288,353,o),
(350,290,o),
(350,225,qs),
(350,173,o),
(306,95,o),
(233,52,o),
(191,52,qs),
(136,52,o),
(71,104,o),
(49,137,q),
(-2,96,l),
(28,51,o),
(121,-12,o),
(187,-12,qs),
(250,-12,o)
);
}
);
width = 480;
}
);
note = five.c;
},
{
glyphname = six.c;
layers = (
{
layerId = m01;
shapes = (
{
closed = 1;
nodes = (
(124,241,o),
(125,254,q),
(160,301,o),
(237,335,o),
(261,335,qs),
(314,335,o),
(369,271,o),
(369,215,qs),
(369,173,o),
(333,96,o),
(272,48,o),
(234,48,qs),
(183,48,o),
(123,133,o),
(123,202,qs),
(123,216,o)
);
},
{
closed = 1;
nodes = (
(385,53,o),
(440,161,o),
(440,226,qs),
(440,304,o),
(353,392,o),
(279,392,qs),
(247,392,o),
(164,357,o),
(132,319,q),
(146,406,o),
(209,535,o),
(298,605,o),
(349,605,qs),
(381,605,o),
(428,575,o),
(444,546,q),
(496,587,l),
(476,620,o),
(406,668,o),
(353,668,qs),
(288,668,o),
(178,600,o),
(96,475,o),
(51,306,o),
(51,204,qs),
(51,141,o),
(94,44,o),
(174,-12,o),
(229,-12,qs),
(290,-12,o)
);
}
);
width = 480;
}
);
note = six.c;
},
{
glyphname = seven.c;
layers = (
{
layerId = m01;
shapes = (
{
closed = 1;
nodes = (
(218,85,o),
(264,241,o),
(333,388,o),
(436,533,o),
(511,607,q),
(521,656,l),
(123,656,l),
(109,591,l),
(419,591,l),
(337,506,o),
(225,327,o),
(150,124,o),
(120,0,q),
(200,0,l)
);
}
);
width = 480;
}
);
note = seven.c;
},
{
glyphname = eight.c;
layers = (
{
layerId = m01;
shapes = (
{
closed = 1;
nodes = (
(380,34,o),
(441,119,o),
(441,177,qs),
(441,213,o),
(413,270,o),
(372,314,o),
(352,327,q),
(352,331,l),
(409,363,o),
(481,454,o),
(481,521,qs),
(481,571,o),
(434,636,o),
(360,668,o),
(318,668,qs),
(266,668,o),
(178,625,o),
(124,543,o),
(124,486,qs),
(124,446,o),
(156,388,o),
(184,359,q),
(184,355,l),
(144,337,o),
(73,282,o),
(30,205,o),
(30,154,qs),
(30,98,o),
(87,24,o),
(175,-12,o),
(222,-12,qs),
(281,-12,o)
);
},
{
closed = 1;
nodes = (
(193,439,o),
(193,489,qs),
(193,527,o),
(227,582,o),
(281,611,o),
(312,611,qs),
(356,611,o),
(413,558,o),
(413,511,qs),
(413,457,o),
(351,381,o),
(311,355,q),
(256,381,o)
);
},
{
closed = 1;
nodes = (
(100,107,o),
(100,162,qs),
(100,221,o),
(168,300,o),
(221,330,q),
(261,308,o),
(328,265,o),
(370,212,o),
(370,173,qs),
(370,132,o),
(328,75,o),
(263,45,o),
(226,45,qs),
(174,45,o)
);
}
);
width = 480;
}
);
note = eight.c;
},
{
glyphname = nine.c;
layers = (
{
layerId = m01;
shapes = (
{
closed = 1;
nodes = (
(177,560,o),
(240,608,o),
(278,608,qs),
(328,608,o),
(387,523,o),
(387,455,qs),
(387,440,o),
(386,410,o),
(385,395,q),
(347,349,o),
(271,315,o),
(248,315,qs),
(195,315,o),
(140,385,o),
(140,444,qs),
(140,485,o)
);
},
{
closed = 1;
nodes = (
(332,55,o),
(414,179,o),
(459,349,o),
(459,452,qs),
(459,515,o),
(416,613,o),
(337,668,o),
(282,668,qs),
(222,668,o),
(125,603,o),
(68,496,o),
(68,433,qs),
(68,351,o),
(157,258,o),
(230,258,qs),
(262,258,o),
(345,294,o),
(377,330,q),
(363,244,o),
(300,119,o),
(212,52,o),
(162,52,qs),
(128,52,o),
(78,82,o),
(61,110,q),
(9,69,l),
(30,36,o),
(102,-12,o),
(157,-12,qs),
(222,-12,o)
);
}
);
width = 480;
}
);
note = nine.c;
},
{
glyphname = period;
kernLeft = period;
kernRight = period;
layers = (
{
layerId = m01;
shapes = (
{
closed = 1;
nodes = (
(136,32,o),
(136,57,qs),
(136,79,o),
(112,108,o),
(90,108,qs),
(62,108,o),
(23,64,o),
(23,38,qs),
(23,16,o),
(48,-12,o),
(70,-12,qs),
(99,-12,o)
);
}
);
width = 242;
}
);
note = period;
unicode = 46;
},
{
glyphname = comma;
kernLeft = period;
kernRight = period;
layers = (
{
layerId = m01;
shapes = (
{
closed = 1;
nodes = (
(144,-31,o),
(144,42,qs),
(144,72,o),
(116,108,o),
(90,108,qs),
(61,108,o),
(26,69,o),
(26,44,qs),
(26,22,o),
(56,-4,o),
(78,-4,qs),
(80,-4,l),
(73,-40,o),
(16,-100,o),
(-31,-118,q),
(-20,-164,l),
(54,-143,o)
);
}
);
width = 242;
}
);
note = comma;
unicode = 44;
},
{
glyphname = exclam;
kernLeft = exclam;
kernRight = exclam;
layers = (
{
layerId = m01;
shapes = (
{
closed = 1;
nodes = (
(242,579,l),
(261,671,l),
(184,671,l),
(102,196,l),
(156,196,l)
);
},
{
closed = 1;
nodes = (
(156,32,o),
(156,57,qs),
(156,79,o),
(133,108,o),
(110,108,qs),
(82,108,o),
(43,64,o),
(43,38,qs),
(43,16,o),
(69,-12,o),
(91,-12,qs),
(120,-12,o)
);
}
);
width = 282;
}
);
note = exclam;
unicode = 33;
},
{
glyphname = exclamdown;
kernLeft = exclamdown;
kernRight = exclamdown;
layers = (
{
layerId = m01;
shapes = (
{
closed = 1;
nodes = (
(180,290,l),
(126,290,l),
(40,-93,l),
(21,-185,l),
(98,-185,l)
);
},
{
closed = 1;
nodes = (
(238,423,o),
(238,448,qs),
(238,470,o),
(213,498,o),
(191,498,qs),
(163,498,o),
(126,455,o),
(126,429,qs),
(126,407,o),
(149,378,o),
(171,378,qs),
(200,378,o)
);
}
);
width = 282;
}
);
note = exclamdown;
unicode = 161;
},
{
glyphname = question;
kernLeft = question;
kernRight = question;
layers = (
{
layerId = m01;
shapes = (
{
closed = 1;
nodes = (
(215,241,o),
(259,308,o),
(320,366,o),
(379,424,o),
(418,495,o),
(418,544,qs),
(418,609,o),
(336,682,o),
(266,682,qs),
(221,682,o),
(140,643,o),
(111,613,q),
(152,567,l),
(174,590,o),
(229,618,o),
(257,618,qs),
(297,618,o),
(343,572,o),
(343,531,qs),
(343,494,o),
(305,437,o),
(248,384,o),
(190,326,o),
(148,252,o),
(145,201,q),
(211,195,l)
);
},
{
closed = 1;
nodes = (
(207,32,o),
(207,57,qs),
(207,79,o),
(183,108,o),
(161,108,qs),
(133,108,o),
(94,64,o),
(94,38,qs),
(94,16,o),
(119,-12,o),
(141,-12,qs),
(170,-12,o)
);
}
);
width = 409;
}
);
note = question;
unicode = 63;
},
{
glyphname = questiondown;
kernLeft = questiondown;
kernRight = questiondown;
layers = (
{
layerId = m01;
shapes = (
{
closed = 1;
nodes = (
(274,-156,o),
(302,-125,q),
(262,-79,l),
(240,-103,o),
(185,-131,o),
(156,-131,qs),
(116,-131,o),
(71,-84,o),
(71,-44,qs),
(71,-7,o),
(109,51,o),
(166,103,o),
(224,162,o),
(266,236,o),
(269,286,q),
(203,292,l),
(199,247,o),
(155,179,o),
(94,122,o),
(35,63,o),
(-4,-8,o),
(-4,-56,qs),
(-4,-121,o),
(78,-195,o),
(148,-195,qs),
(193,-195,o)
);
},
{
closed = 1;
nodes = (
(320,424,o),
(320,449,qs),
(320,471,o),
(294,499,o),
(272,499,qs),
(244,499,o),
(207,456,o),
(207,430,qs),
(207,408,o),
(231,379,o),
(253,379,qs),
(282,379,o)
);
}
);
width = 409;
}
);
note = questiondown;
unicode = 191;
},
{
glyphname = quotesingle;
kernLeft = quotesingle;
kernRight = quotesingle;
layers = (
{
layerId = m01;
shapes = (
{
closed = 1;
nodes = (
(222,579,l),
(241,671,l),
(166,671,l),
(151,579,l),
(128,426,l),
(180,426,l)
);
}
);
width = 242;
}
);
note = quotesingle;
unicode = 39;
},
{
glyphname = quoteleft;
kernLeft = quoteleft;
kernRight = quoteleft;
layers = (
{
layerId = m01;
shapes = (
{
closed = 1;
nodes = (
(217,468,o),
(217,491,qs),
(217,512,o),
(189,535,o),
(168,535,qs),
(167,535,o),
(165,535,o),
(163,535,q),
(163,563,o),
(212,631,o),
(258,653,q),
(242,691,l),
(186,667,o),
(110,571,o),
(110,502,qs),
(110,470,o),
(140,434,o),
(163,434,qs),
(187,434,o)
);
}
);
width = 242;
}
);
note = quoteleft;
unicode = (699,8216);
},
{
glyphname = quoteright;
kernLeft = quoteright;
kernRight = quoteright;
layers = (
{
layerId = m01;
shapes = (
{
closed = 1;
nodes = (
(260,563,o),
(260,632,qs),
(260,664,o),
(230,700,o),
(207,700,qs),
(182,700,o),
(152,666,o),
(152,643,qs),
(152,621,o),
(180,598,o),
(202,598,qs),
(204,598,o),
(206,598,o),
(207,598,q),
(207,571,o),
(158,503,o),
(111,480,q),
(127,443,l),
(183,467,o)
);
}
);
width = 242;
}
);
note = quoteright;
unicode = (700,8217);
},
{
glyphname = guilsinglleft;
kernLeft = guilsinglleft;
kernRight = guilsinglleft;
layers = (
{
layerId = m01;
shapes = (
{
closed = 1;
nodes = (
(93,250,l),
(235,406,l),
(207,435,l),
(51,287,l),
(40,225,l),
(143,67,l),
(178,89,l)
);
}
);
width = 252;
}
);
note = guilsinglleft;
unicode = 8249;
},
{
glyphname = guilsinglright;
kernLeft = guilsinglright;
kernRight = guilsinglright;
layers = (
{
layerId = m01;
shapes = (
{
closed = 1;
nodes = (
(218,277,l),
(115,435,l),
(79,413,l),
(164,252,l),
(23,96,l),
(51,67,l),
(207,215,l)
);
}
);
width = 252;
}
);
note = guilsinglright;
unicode = 8250;
},
{
glyphname = hyphen;
kernLeft = hyphen;
kernRight = hyphen;
layers = (
{
layerId = m01;
shapes = (
{
closed = 1;
nodes = (
(266,281,l),
(47,281,l),
(35,222,l),
(253,222,l)
);
}
);
width = 299;
}
);
note = hyphen;
unicode = (45,173,8208,8209);
},
{
glyphname = endash;
kernLeft = hyphen;
kernRight = hyphen;
layers = (
{
layerId = m01;
shapes = (
{
closed = 1;
nodes = (
(427,279,l),
(46,279,l),
(35,225,l),
(415,225,l)
);
}
);
width = 463;
}
);
note = endash;
unicode = 8211;
},
{
glyphname = emdash;
kernLeft = hyphen;
kernRight = hyphen;
layers = (
{
layerId = m01;
shapes = (
{
closed = 1;
nodes = (
(734,279,l),
(46,279,l),
(35,225,l),
(723,225,l)
);
}
);
width = 769;
}
);
note = emdash;
unicode = 8212;
},
{
glyphname = uni2E3A;
layers = (
{
layerId = m01;
shapes = (
{
closed = 1;
nodes = (
(1405,279,l),
(46,279,l),
(35,225,l),
(1394,225,l)
);
}
);
width = 1440;
}
);
note = uni2E3A;
unicode = 11834;
},
{
glyphname = uni2E3B;
layers = (
{
layerId = m01;
shapes = (
{
closed = 1;
nodes = (
(2077,279,l),
(46,279,l),
(35,225,l),
(2066,225,l)
);
}
);
width = 2112;
}
);
note = uni2E3B;
unicode = 11835;
},
{
glyphname = figuredash;
kernLeft = hyphen;
kernRight = hyphen;
layers = (
{
layerId = m01;
shapes = (
{
closed = 1;
nodes = (
(444,279,l),
(46,279,l),
(35,225,l),
(432,225,l)
);
}
);
width = 480;
}
);
note = figuredash;
unicode = 8210;
},
{
glyphname = bullet;
layers = (
{
layerId = m01;
shapes = (
{
closed = 1;
nodes = (
(229,184,o),
(258,245,o),
(258,278,qs),
(258,324,o),
(202,383,o),
(161,383,qs),
(124,383,o),
(70,343,o),
(41,282,o),
(41,250,qs),
(41,204,o),
(96,145,o),
(139,145,qs),
(175,145,o)
);
}
);
width = 295;
}
);
note = bullet;
unicode = 8226;
},
{
glyphname = underscore;
layers = (
{
layerId = m01;
shapes = (
{
closed = 1;
nodes = (
(432,-74,l),
(-25,-74,l),
(-36,-124,l),
(422,-124,l)
);
}
);
width = 483;
}
);
note = underscore;
unicode = 95;
},
{
glyphname = uni203F;
layers = (
{
layerId = m01;
shapes = (
{
closed = 1;
nodes = (
(463,-159,o),
(512,-104,q),
(482,-64,l),
(437,-114,o),
(300,-175,o),
(226,-175,qs),
(152,-175,o),
(37,-117,o),
(8,-67,q),
(-28,-104,l),
(1,-159,o),
(126,-233,o),
(217,-233,qs),
(312,-233,o)
);
}
);
width = 540;
}
);
note = uni203F;
unicode = 8255;
},
{
glyphname = parenleft;
kernRight = parenleft;
layers = (
{
layerId = m01;
shapes = (
{
closed = 1;
nodes = (
(158,-119,o),
(138,-23,o),
(129,79,o),
(129,125,qs),
(129,283,o),
(237,572,o),
(343,706,q),
(298,731,l),
(224,638,o),
(120,451,o),
(65,250,o),
(65,133,qs),
(65,51,o),
(98,-112,o),
(122,-176,q),
(172,-157,l)
);
}
);
width = 291;
}
);
note = parenleft;
unicode = 40;
},
{
glyphname = parenright;
kernLeft = parenright;
layers = (
{
layerId = m01;
shapes = (
{
closed = 1;
nodes = (
(179,104,o),
(234,306,o),
(234,423,qs),
(234,505,o),
(201,667,o),
(177,731,q),
(127,712,l),
(142,674,o),
(160,579,o),
(169,477,o),
(169,430,qs),
(169,273,o),
(62,-16,o),
(-44,-150,q),
(1,-176,l),
(75,-82,o)
);
}
);
width = 293;
}
);
note = parenright;
unicode = 41;
},
{
glyphname = bracketleft;
kernRight = parenleft;
layers = (
{
layerId = m01;
shapes = (
{
closed = 1;
nodes = (
(188,-107,l),
(76,-107,l),
(229,663,l),
(342,663,l),
(349,708,l),
(180,708,l),
(8,-152,l),
(177,-152,l)
);
}
);
width = 292;
}
);
note = bracketleft;
unicode = 91;
},
{
glyphname = bracketright;
kernLeft = parenright;
layers = (
{
layerId = m01;
shapes = (
{
closed = 1;
nodes = (
(294,708,l),
(123,708,l),
(115,663,l),
(227,663,l),
(72,-107,l),
(-39,-107,l),
(-49,-152,l),
(122,-152,l)
);
}
);
width = 292;
}
);
note = bracketright;
unicode = 93;
},
{
glyphname = braceleft;
kernRight = parenleft;
layers = (
{
layerId = m01;
shapes = (
{
closed = 1;
nodes = (
(189,-107,l),
(165,-107,ls),
(133,-107,o),
(110,-83,o),
(110,-58,qs),
(110,-34,o),
(126,35,o),
(146,113,o),
(162,186,o),
(162,212,qs),
(162,234,o),
(142,265,o),
(118,273,q),
(118,277,l),
(153,286,o),
(192,340,o),
(202,389,qs),
(211,435,o),
(224,526,o),
(232,569,qs),
(242,617,o),
(276,663,o),
(316,663,qs),
(342,663,l),
(352,708,l),
(306,708,ls),
(246,708,o),
(187,651,o),
(172,573,qs),
(162,522,o),
(150,430,o),
(141,382,qs),
(137,364,o),
(117,327,o),
(77,303,o),
(43,303,q),
(32,253,l),
(75,253,o),
(102,218,o),
(102,197,qs),
(102,175,o),
(85,107,o),
(64,30,o),
(47,-44,o),
(47,-72,qs),
(47,-114,o),
(89,-152,o),
(135,-152,qs),
(179,-152,l)
);
}
);
width = 290;
}
);
note = braceleft;
unicode = 123;
},
{
glyphname = braceright;
kernLeft = parenright;
layers = (
{
layerId = m01;
shapes = (
{
closed = 1;
nodes = (
(53,-152,o),
(112,-96,o),
(128,-19,qs),
(139,33,o),
(150,126,o),
(159,174,qs),
(163,193,o),
(182,229,o),
(223,253,o),
(257,253,q),
(268,303,l),
(225,303,o),
(198,338,o),
(198,357,qs),
(198,379,o),
(215,448,o),
(236,526,o),
(253,600,o),
(253,628,qs),
(253,669,o),
(211,708,o),
(164,708,qs),
(120,708,l),
(110,663,l),
(135,663,ls),
(167,663,o),
(189,639,o),
(189,613,qs),
(189,589,o),
(173,520,o),
(153,442,o),
(137,370,o),
(137,344,qs),
(137,322,o),
(156,291,o),
(181,283,q),
(181,279,l),
(146,270,o),
(108,216,o),
(97,166,qs),
(89,120,o),
(75,29,o),
(67,-14,qs),
(58,-63,o),
(23,-107,o),
(-17,-107,qs),
(-43,-107,l),
(-52,-152,l),
(-6,-152,ls)
);
}
);
width = 293;
}
);
note = braceright;
unicode = 125;
},
{
glyphname = slash;
kernLeft = slash;
kernRight = slash;
layers = (
{
layerId = m01;
shapes = (
{
closed = 1;
nodes = (
(418,710,l),
(362,710,l),
(-72,-160,l),
(-17,-160,l)
);
}
);
width = 340;
}
);
note = slash;
unicode = 47;
},
{
glyphname = bar;
layers = (
{
layerId = m01;
shapes = (
{
closed = 1;
nodes = (
(147,750,l),
(95,750,l),
(95,-250,l),
(147,-250,l)
);
}
);
width = 231;
}
);
note = bar;
unicode = 124;
},
{
glyphname = backslash;
kernLeft = backslash;
kernRight = backslash;
layers = (
{
layerId = m01;
shapes = (
{
closed = 1;
nodes = (
(140,710,l),
(88,710,l),
(203,-160,l),
(257,-160,l)
);
}
);
width = 340;
}
);
note = backslash;
unicode = 92;
},
{
glyphname = brokenbar;
layers = (
{
layerId = m01;
shapes = (
{
closed = 1;
nodes = (
(147,750,l),
(95,750,l),
(95,289,l),
(147,289,l)
);
},
{
closed = 1;
nodes = (
(147,213,l),
(95,213,l),
(95,-250,l),
(147,-250,l)
);
}
);
width = 231;
}
);
note = brokenbar;
unicode = 166;
},
{
glyphname = asterisk;
kernLeft = asterisk;
layers = (
{
layerId = m01;
shapes = (
{
closed = 1;
nodes = (
(308,422,l),
(348,445,l),
(310,542,l),
(413,573,l),
(406,616,l),
(303,602,l),
(311,709,l),
(267,713,l),
(242,607,l),
(143,640,l),
(125,600,l),
(213,551,l),
(144,463,l),
(176,434,l),
(256,510,l)
);
}
);
width = 403;
}
);
note = asterisk;
unicode = 42;
},
{
glyphname = dagger;
layers = (
{
layerId = m01;
shapes = (
{
closed = 1;
nodes = (
(295,496,l),
(430,491,l),
(443,557,l),
(306,552,l),
(342,712,l),
(276,712,l),
(248,552,l),
(114,557,l),
(101,491,l),
(239,496,l),
(118,-80,l),
(184,-80,l)
);
}
);
width = 435;
}
);
note = dagger;
unicode = 8224;
},
{
glyphname = daggerdbl;
layers = (
{
layerId = m01;
shapes = (
{
closed = 1;
nodes = (
(212,79,l),
(347,74,l),
(360,140,l),
(222,134,l),
(263,316,l),
(295,498,l),
(430,491,l),
(443,557,l),
(306,552,l),
(341,712,l),
(276,712,l),
(248,552,l),
(113,557,l),
(101,491,l),
(239,498,l),
(197,316,l),
(166,134,l),
(31,140,l),
(18,74,l),
(154,79,l),
(119,-80,l),
(185,-80,l)
);
}
);
width = 435;
}
);
note = daggerdbl;
unicode = 8225;
},
{
glyphname = section;
layers = (
{
layerId = m01;
shapes = (
{
closed = 1;
nodes = (
(303,-21,o),
(345,47,o),
(345,90,qs),
(345,106,o),
(338,133,o),
(332,145,q),
(382,168,o),
(438,234,o),
(438,292,qs),
(438,336,o),
(394,397,o),
(329,442,o),
(263,480,o),
(219,522,o),
(219,550,qs),
(219,585,o),
(267,624,o),
(298,624,qs),
(330,624,o),
(386,590,o),
(407,566,q),
(450,611,l),
(421,643,o),
(343,684,o),
(299,684,qs),
(234,684,o),
(148,605,o),
(148,540,qs),
(148,524,o),
(157,495,o),
(164,482,q),
(117,462,o),
(56,387,o),
(56,333,qs),
(56,296,o),
(88,244,o),
(138,205,o),
(193,174,o),
(243,143,o),
(275,105,o),
(275,79,qs),
(275,45,o),
(224,0,o),
(186,0,qs),
(150,0,o),
(82,37,o),
(56,65,q),
(15,15,l),
(50,-20,o),
(137,-60,o),
(182,-60,qs),
(230,-60,o)
);
},
{
closed = 1;
nodes = (
(166,430,o),
(199,444,q),
(224,424,o),
(283,390,o),
(336,354,o),
(370,311,o),
(370,282,qs),
(370,242,o),
(333,199,o),
(298,186,q),
(274,207,o),
(214,239,o),
(159,272,o),
(124,314,o),
(124,344,qs),
(124,382,o)
);
}
);
width = 477;
}
);
note = section;
unicode = 167;
},
{
glyphname = paragraph;
layers = (
{
layerId = m01;
shapes = (
{
closed = 1;
nodes = (
(523,656,l),
(446,656,l),
(300,-80,l),
(376,-80,l)
);
},
{
closed = 1;
nodes = (
(395,656,l),
(347,656,ls),
(277,656,o),
(151,601,o),
(73,489,o),
(73,403,qs),
(73,346,o),
(133,267,o),
(234,227,o),
(293,227,qs),
(308,227,l)
);
}
);
width = 535;
}
);
note = paragraph;
unicode = 182;
},
{
glyphname = uni203D;
kernLeft = question;
kernRight = question;
layers = (
{
layerId = m01;
shapes = (
{
closed = 1;
nodes = (
(260,306,o),
(324,363,o),
(385,423,o),
(425,495,o),
(425,545,qs),
(425,610,o),
(341,682,o),
(271,682,qs),
(223,682,o),
(132,640,o),
(100,607,q),
(138,563,l),
(164,589,o),
(227,622,o),
(262,622,qs),
(303,622,o),
(352,574,o),
(352,530,qs),
(352,497,o),
(326,445,o),
(285,399,o),
(242,355,o),
(225,329,q),
(257,469,l),
(269,532,l),
(207,532,l),
(152,201,l),
(204,196,l),
(211,240,o)
);
},
{
closed = 1;
nodes = (
(207,32,o),
(207,57,qs),
(207,79,o),
(183,108,o),
(161,108,qs),
(133,108,o),
(94,64,o),
(94,38,qs),
(94,16,o),
(119,-12,o),
(141,-12,qs),
(170,-12,o)
);
}
);
width = 414;
}
);
note = uni203D;
unicode = 8253;
},
{
glyphname = uni231C;
layers = (
{
layerId = m01;
shapes = (
{
closed = 1;
nodes = (
(225,645,l),
(337,645,l),
(345,689,l),
(175,689,l),
(38,0,l),
(98,0,l)
);
}
);
width = 292;
}
);
note = uni231C;
unicode = 8988;
},
{
glyphname = uni231D;
layers = (
{
layerId = m01;
shapes = (
{
closed = 1;
nodes = (
(290,689,l),
(119,689,l),
(110,645,l),
(222,645,l),
(93,0,l),
(151,0,l)
);
}
);
width = 292;
}
);
note = uni231D;
unicode = 8989;
},
{
glyphname = uni231E;
layers = (
{
layerId = m01;
shapes = (
{
closed = 1;
nodes = (
(208,-7,l),
(96,-7,l),
(225,638,l),
(167,638,l),
(28,-52,l),
(199,-52,l)
);
}
);
width = 292;
}
);
note = uni231E;
unicode = 8990;
},
{
glyphname = uni231F;
layers = (
{
layerId = m01;
shapes = (
{
closed = 1;
nodes = (
(279,638,l),
(220,638,l),
(92,-7,l),
(-20,-7,l),
(-28,-52,l),
(142,-52,l)
);
}
);
width = 292;
}
);
note = uni231F;
unicode = 8991;
},
{
glyphname = uni27E6;
kernRight = parenleft;
layers = (
{
layerId = m01;
shapes = (
{
closed = 1;
nodes = (
(259,-107,l),
(151,-107,l),
(304,663,l),
(413,663,l),
(420,708,l),
(180,708,l),
(8,-152,l),
(248,-152,l)
);
},
{
closed = 1;
nodes = (
(261,663,l),
(106,-107,l),
(65,-107,l),
(218,663,l)
);
}
);
width = 363;
}
);
note = uni27E6;
unicode = 10214;
},
{
glyphname = uni27E7;
kernLeft = parenright;
layers = (
{
layerId = m01;
shapes = (
{
closed = 1;
nodes = (
(365,708,l),
(123,708,l),
(114,663,l),
(224,663,l),
(68,-107,l),
(-40,-107,l),
(-49,-152,l),
(193,-152,l)
);
},
{
closed = 1;
nodes = (
(309,663,l),
(154,-107,l),
(112,-107,l),
(267,663,l)
);
}
);
width = 363;
}
);
note = uni27E7;
unicode = 10215;
},
{
glyphname = uni2E22;
kernRight = parenleft;
layers = (
{
layerId = m01;
shapes = (
{
closed = 1;
nodes = (
(231,663,l),
(342,663,l),
(351,708,l),
(180,708,l),
(94,278,l),
(154,278,l)
);
}
);
width = 292;
}
);
note = uni2E22;
unicode = 11810;
},
{
glyphname = uni2E23;
kernLeft = parenright;
layers = (
{
layerId = m01;
shapes = (
{
closed = 1;
nodes = (
(294,708,l),
(123,708,l),
(114,663,l),
(226,663,l),
(150,278,l),
(208,278,l)
);
}
);
width = 292;
}
);
note = uni2E23;
unicode = 11811;
},
{
glyphname = uni2E24;
kernRight = parenleft;
layers = (
{
layerId = m01;
shapes = (
{
closed = 1;
nodes = (
(188,-107,l),
(76,-107,l),
(152,278,l),
(94,278,l),
(8,-152,l),
(179,-152,l)
);
}
);
width = 292;
}
);
note = uni2E24;
unicode = 11812;
},
{
glyphname = uni2E25;
kernLeft = parenright;
layers = (
{
layerId = m01;
shapes = (
{
closed = 1;
nodes = (
(208,278,l),
(148,278,l),
(72,-107,l),
(-40,-107,l),
(-49,-152,l),
(122,-152,l)
);
}
);
width = 292;
}
);
note = uni2E25;
unicode = 11813;
},
{
glyphname = copyright;
layers = (
{
layerId = m01;
shapes = (
{
closed = 1;
nodes = (
(513,54,o),
(609,164,o),
(661,303,o),
(661,377,qs),
(661,458,o),
(594,583,o),
(476,653,o),
(398,653,qs),
(317,653,o),
(184,588,o),
(88,478,o),
(36,340,o),
(36,266,qs),
(36,185,o),
(102,60,o),
(221,-11,o),
(298,-11,qs),
(379,-11,o)
);
},
{
closed = 1;
nodes = (
(132,92,o),
(79,201,o),
(79,271,qs),
(79,334,o),
(125,456,o),
(209,555,o),
(325,613,o),
(395,613,qs),
(465,613,o),
(565,551,o),
(618,443,o),
(618,372,qs),
(618,309,o),
(572,187,o),
(487,88,o),
(371,30,o),
(301,30,qs),
(232,30,o)
);
},
{
closed = 1;
nodes = (
(429,154,o),
(460,176,q),
(435,215,l),
(410,199,o),
(365,176,o),
(337,176,qs),
(292,176,o),
(239,231,o),
(239,285,qs),
(239,337,o),
(283,416,o),
(349,462,o),
(381,462,qs),
(404,462,o),
(435,444,o),
(449,427,q),
(486,461,l),
(470,482,o),
(423,512,o),
(388,512,qs),
(352,512,o),
(279,479,o),
(217,418,o),
(180,331,o),
(180,276,qs),
(180,203,o),
(262,125,o),
(326,125,qs),
(366,125,o)
);
}
);
width = 665;
}
);
note = copyright;
unicode = 169;
},
{
glyphname = uni2117;
layers = (
{
layerId = m01;
shapes = (
{
closed = 1;
nodes = (
(513,54,o),
(609,164,o),
(661,303,o),
(661,377,qs),
(661,458,o),
(594,583,o),
(476,653,o),
(398,653,qs),
(317,653,o),
(184,588,o),
(88,478,o),
(36,340,o),
(36,266,qs),
(36,185,o),
(102,60,o),
(221,-11,o),
(298,-11,qs),
(379,-11,o)
);
},
{
closed = 1;
nodes = (
(132,92,o),
(79,201,o),
(79,271,qs),
(79,334,o),
(125,456,o),
(209,555,o),
(325,613,o),
(395,613,qs),
(465,613,o),
(565,551,o),
(618,443,o),
(618,372,qs),
(618,309,o),
(572,187,o),
(487,88,o),
(371,30,o),
(301,30,qs),
(232,30,o)
);
},
{
closed = 1;
nodes = (
(278,253,l),
(343,253,ls),
(389,253,o),
(468,286,o),
(517,353,o),
(517,403,qs),
(517,451,o),
(446,500,o),
(393,500,qs),
(268,500,l),
(196,137,l),
(256,137,l)
);
},
{
closed = 1;
nodes = (
(379,453,ls),
(417,453,o),
(458,421,o),
(458,392,qs),
(458,349,o),
(399,298,o),
(346,298,qs),
(288,298,l),
(318,453,l)
);
}
);
width = 665;
}
);
note = uni2117;
unicode = 8471;
},
{
glyphname = registered;
kernLeft = registered;
layers = (
{
layerId = m01;
shapes = (
{
closed = 1;
nodes = (
(382,385,o),
(435,485,o),
(435,541,qs),
(435,591,o),
(390,667,o),
(316,710,o),
(272,710,qs),
(215,710,o),
(125,647,o),
(73,548,o),
(73,492,qs),
(73,442,o),
(117,366,o),
(191,323,o),
(235,323,qs),
(292,323,o)
);
},
{
closed = 1;
nodes = (
(110,437,o),
(110,496,qs),
(110,544,o),
(152,625,o),
(224,675,o),
(269,675,qs),
(328,675,o),
(398,596,o),
(398,537,qs),
(398,489,o),
(355,407,o),
(283,357,o),
(238,357,qs),
(178,357,o)
);
},
{
closed = 1;
nodes = (
(222,487,l),
(256,487,l),
(278,417,l),
(318,417,l),
(290,496,l),
(313,504,o),
(339,539,o),
(339,561,qs),
(339,589,o),
(305,619,o),
(276,619,qs),
(210,619,l),
(169,417,l),
(207,417,l)
);
},
{
closed = 1;
nodes = (
(266,587,ls),
(299,587,o),
(299,557,qs),
(299,539,o),
(273,517,o),
(250,517,qs),
(228,517,l),
(241,587,l)
);
}
);
width = 406;
}
);
note = registered;
unicode = 174;
},
{
glyphname = trademark;
kernLeft = trademark;
layers = (
{
layerId = m01;
shapes = (
{
closed = 1;
nodes = (
(230,626,l),
(326,626,l),
(336,676,l),
(87,676,l),
(76,626,l),
(175,626,l),
(123,366,l),
(178,366,l)
);
},
{
closed = 1;
nodes = (
(402,506,l),
(413,618,l),
(417,618,l),
(455,414,l),
(490,414,l),
(608,618,l),
(612,618,l),
(580,506,l),
(552,366,l),
(607,366,l),
(668,676,l),
(599,676,l),
(528,561,l),
(488,480,l),
(484,480,l),
(473,561,l),
(450,676,l),
(382,676,l),
(320,366,l),
(373,366,l)
);
}
);
width = 611;
}
);
note = trademark;
unicode = 8482;
},
{
glyphname = uni2120;
layers = (
{
layerId = m01;
shapes = (
{
closed = 1;
nodes = (
(267,417,o),
(267,458,qs),
(267,484,o),
(242,520,o),
(222,530,qs),
(183,553,ls),
(171,559,o),
(151,580,o),
(151,596,qs),
(151,611,o),
(182,639,o),
(207,639,qs),
(223,639,o),
(250,623,o),
(265,607,q),
(301,641,l),
(282,659,o),
(239,683,o),
(212,683,qs),
(163,683,o),
(98,628,o),
(98,584,qs),
(98,556,o),
(128,521,o),
(142,512,qs),
(183,488,ls),
(197,480,o),
(213,462,o),
(213,447,qs),
(213,427,o),
(178,399,o),
(152,399,qs),
(130,399,o),
(94,421,o),
(81,440,q),
(43,409,l),
(61,383,o),
(113,354,o),
(148,354,qs),
(201,354,o)
);
},
{
closed = 1;
nodes = (
(392,506,l),
(403,618,l),
(407,618,l),
(445,414,l),
(480,414,l),
(598,618,l),
(602,618,l),
(570,506,l),
(542,366,l),
(597,366,l),
(658,676,l),
(589,676,l),
(518,561,l),
(478,480,l),
(474,480,l),
(463,561,l),
(440,676,l),
(372,676,l),
(310,366,l),
(363,366,l)
);
}
);
width = 601;
}
);
note = uni2120;
unicode = 8480;
},
{
glyphname = u1F16A;
layers = (
{
layerId = m01;
shapes = (
{
closed = 1;
nodes = (
(627,379,o),
(651,401,q),
(626,434,l),
(608,418,o),
(575,401,o),
(553,401,qs),
(524,401,o),
(486,445,o),
(486,485,qs),
(486,528,o),
(520,596,o),
(574,636,o),
(604,636,qs),
(637,636,o),
(656,609,q),
(691,641,l),
(680,658,o),
(639,683,o),
(608,683,qs),
(562,683,o),
(479,628,o),
(428,534,o),
(428,474,qs),
(428,419,o),
(491,355,o),
(543,355,qs),
(575,355,o)
);
},
{
closed = 1;
nodes = (
(131,506,l),
(143,618,l),
(147,618,l),
(185,414,l),
(219,414,l),
(337,618,l),
(341,618,l),
(310,506,l),
(282,366,l),
(336,366,l),
(398,676,l),
(328,676,l),
(258,561,l),
(217,480,l),
(213,480,l),
(202,561,l),
(180,676,l),
(111,676,l),
(50,366,l),
(103,366,l)
);
}
);
width = 625;
}
);
note = u1F16A;
unicode = 127338;
},
{
glyphname = u1F16B;
layers = (
{
layerId = m01;
shapes = (
{
closed = 1;
nodes = (
(558,366,o),
(640,415,o),
(685,502,o),
(685,557,qs),
(685,616,o),
(617,676,o),
(553,676,qs),
(475,676,l),
(412,366,l),
(503,366,ls)
);
},
{
closed = 1;
nodes = (
(552,632,ls),
(627,632,o),
(627,547,qs),
(627,510,o),
(597,448,o),
(544,411,o),
(509,411,qs),
(477,411,l),
(520,632,l)
);
},
{
closed = 1;
nodes = (
(131,506,l),
(143,618,l),
(147,618,l),
(185,414,l),
(219,414,l),
(337,618,l),
(341,618,l),
(310,506,l),
(282,366,l),
(336,366,l),
(398,676,l),
(328,676,l),
(258,561,l),
(217,480,l),
(213,480,l),
(202,561,l),
(180,676,l),
(111,676,l),
(50,366,l),
(103,366,l)
);
}
);
width = 639;
}
);
note = u1F16B;
unicode = 127339;
},
{
glyphname = at;
layers = (
{
layerId = m01;
shapes = (
{
closed = 1;
nodes = (
(516,-112,q),
(493,-66,l),
(433,-103,o),
(358,-103,qs),
(288,-103,o),
(172,-39,o),
(102,85,o),
(102,174,qs),
(102,263,o),
(166,416,o),
(273,530,o),
(405,593,o),
(473,593,qs),
(559,593,o),
(669,526,o),
(722,411,o),
(722,338,qs),
(722,262,o),
(679,155,o),
(614,100,o),
(581,100,qs),
(541,100,o),
(519,158,o),
(529,204,qs),
(579,421,l),
(528,421,l),
(515,378,l),
(513,378,l),
(487,429,o),
(440,429,qs),
(400,429,o),
(328,388,o),
(275,320,o),
(244,235,o),
(244,191,qs),
(244,127,o),
(313,56,o),
(359,56,qs),
(392,56,o),
(451,95,o),
(474,123,q),
(477,123,l),
(484,88,o),
(532,47,o),
(567,47,qs),
(621,47,o),
(717,116,o),
(777,251,o),
(777,348,qs),
(777,434,o),
(707,567,o),
(575,644,o),
(480,644,qs),
(396,644,o),
(240,571,o),
(117,441,o),
(45,266,o),
(45,163,qs),
(45,62,o),
(127,-80,o),
(266,-155,o),
(352,-155,qs),
(436,-155,o)
);
},
{
closed = 1;
nodes = (
(305,153,o),
(305,198,qs),
(305,237,o),
(340,320,o),
(401,376,o),
(440,376,qs),
(457,376,o),
(486,357,o),
(499,331,q),
(463,170,l),
(418,109,o),
(373,109,qs),
(344,109,o)
);
}
);
width = 814;
}
);
note = at;
unicode = 64;
},
{
glyphname = at.case;
layers = (
{
layerId = m01;
shapes = (
{
closed = 1;
nodes = (
(489,-2,o),
(527,20,q),
(513,63,l),
(484,46,o),
(413,29,o),
(377,29,qs),
(311,29,o),
(211,84,o),
(154,188,o),
(154,262,qs),
(154,342,o),
(212,479,o),
(309,581,o),
(430,637,o),
(493,637,qs),
(569,637,o),
(667,581,o),
(715,482,o),
(715,419,qs),
(715,350,o),
(680,252,o),
(627,201,o),
(599,201,qs),
(562,201,o),
(540,258,o),
(551,304,qs),
(596,496,l),
(546,496,l),
(532,453,l),
(530,453,l),
(506,502,o),
(460,502,qs),
(409,502,o),
(327,439,o),
(279,342,o),
(279,289,qs),
(279,225,o),
(341,157,o),
(383,157,qs),
(414,157,o),
(472,195,o),
(494,223,q),
(497,223,l),
(504,188,o),
(550,149,o),
(584,149,qs),
(633,149,o),
(716,212,o),
(768,336,o),
(768,425,qs),
(768,500,o),
(707,618,o),
(587,686,o),
(498,686,qs),
(421,686,o),
(278,622,o),
(164,506,o),
(98,347,o),
(98,251,qs),
(98,167,o),
(168,45,o),
(290,-21,o),
(368,-21,qs),
(406,-21,o)
);
},
{
closed = 1;
nodes = (
(339,252,o),
(339,296,qs),
(339,330,o),
(369,400,o),
(423,449,o),
(459,449,qs),
(475,449,o),
(502,431,o),
(515,405,q),
(485,270,l),
(463,239,o),
(419,210,o),
(398,210,qs),
(373,210,o)
);
}
);
width = 802;
}
);
note = at.case;
},
{
glyphname = numbersign;
layers = (
{
layerId = m01;
shapes = (
{
closed = 1;
nodes = (
(154,205,l),
(280,205,l),
(215,0,l),
(267,0,l),
(331,205,l),
(416,205,l),
(430,260,l),
(349,260,l),
(395,410,l),
(477,410,l),
(491,465,l),
(412,465,l),
(470,650,l),
(419,650,l),
(360,465,l),
(235,465,l),
(293,650,l),
(242,650,l),
(183,465,l),
(99,465,l),
(85,410,l),
(165,410,l),
(119,260,l),
(37,260,l),
(24,205,l),
(103,205,l),
(38,0,l),
(90,0,l)
);
},
{
closed = 1;
nodes = (
(344,410,l),
(298,260,l),
(171,260,l),
(217,410,l)
);
}
);
width = 479;
}
);
note = numbersign;
unicode = 35;
},
{
glyphname = plus.subs;
layers = (
{
layerId = m01;
shapes = (
{
closed = 1;
nodes = (
(152,-11,l),
(278,-11,l),
(278,40,l),
(152,40,l),
(152,177,l),
(96,177,l),
(96,40,l),
(-29,40,l),
(-29,-11,l),
(96,-11,l),
(96,-149,l),
(152,-149,l)
);
}
);
width = 353;
}
);
note = plus.subs;
unicode = 8330;
},
{
glyphname = minus.subs;
layers = (
{
layerId = m01;
shapes = (
{
closed = 1;
nodes = (
(278,40,l),
(-29,40,l),
(-29,-11,l),
(278,-11,l)
);
}
);
width = 353;
}
);
note = minus.subs;
unicode = 8331;
},
{
glyphname = zero.dnom;
layers = (
{
layerId = m01;
shapes = (
{
closed = 1;
nodes = (
(249,34,o),
(296,111,o),
(320,204,o),
(320,250,qs),
(320,315,o),
(255,402,o),
(197,402,qs),
(154,402,o),
(86,356,o),
(39,279,o),
(15,187,o),
(15,140,qs),
(15,75,o),
(80,-12,o),
(138,-12,qs),
(182,-12,o)
);
},
{
closed = 1;
nodes = (
(74,98,o),
(74,144,qs),
(74,180,o),
(90,253,o),
(120,315,o),
(164,352,o),
(192,352,qs),
(229,352,o),
(261,292,o),
(261,246,qs),
(261,210,o),
(245,137,o),
(215,75,o),
(171,38,o),
(143,38,qs),
(106,38,o)
);
}
);
width = 357;
}
);
note = zero.dnom;
},
{
glyphname = one.dnom;
layers = (
{
layerId = m01;
shapes = (
{
closed = 1;
nodes = (
(257,390,l),
(210,390,l),
(186,374,o),
(139,357,o),
(100,351,q),
(92,312,l),
(182,312,l),
(120,0,l),
(180,0,l)
);
}
);
width = 356;
}
);
note = one.dnom;
},
{
glyphname = two.dnom;
layers = (
{
layerId = m01;
shapes = (
{
closed = 1;
nodes = (
(268,51,l),
(105,51,l),
(202,124,o),
(300,235,o),
(300,297,qs),
(300,346,o),
(237,402,o),
(184,402,qs),
(147,402,o),
(87,366,o),
(59,339,q),
(94,303,l),
(113,323,o),
(154,350,o),
(175,350,qs),
(207,350,o),
(239,317,o),
(239,288,qs),
(239,252,o),
(191,181,o),
(90,96,o),
(8,38,q),
(1,0,l),
(258,0,l)
);
}
);
width = 353;
}
);
note = two.dnom;
},
{
glyphname = three.dnom;
layers = (
{
layerId = m01;
shapes = (
{
closed = 1;
nodes = (
(236,17,o),
(275,72,o),
(275,110,qs),
(275,136,o),
(241,186,o),
(207,198,q),
(251,212,o),
(298,270,o),
(298,307,qs),
(298,351,o),
(237,402,o),
(188,402,qs),
(123,402,o),
(67,362,q),
(94,321,l),
(136,354,o),
(177,354,qs),
(206,354,o),
(238,324,o),
(238,299,qs),
(238,281,o),
(216,245,o),
(163,221,o),
(118,221,q),
(109,180,l),
(166,180,o),
(216,138,o),
(216,109,qs),
(216,76,o),
(166,37,o),
(131,37,qs),
(98,37,o),
(55,71,o),
(41,97,q),
(0,68,l),
(17,36,o),
(85,-12,o),
(134,-12,qs),
(172,-12,o)
);
}
);
width = 351;
}
);
note = three.dnom;
},
{
glyphname = four.dnom;
layers = (
{
layerId = m01;
shapes = (
{
closed = 1;
nodes = (
(231,333,l),
(235,333,l),
(209,225,l),
(194,149,l),
(78,149,l),
(164,249,l)
);
},
{
closed = 1;
nodes = (
(239,106,l),
(295,106,l),
(304,149,l),
(247,149,l),
(295,390,l),
(230,390,l),
(16,139,l),
(9,106,l),
(185,106,l),
(164,0,l),
(218,0,l)
);
}
);
width = 354;
}
);
note = four.dnom;
},
{
glyphname = five.dnom;
layers = (
{
layerId = m01;
shapes = (
{
closed = 1;
nodes = (
(243,26,o),
(286,94,o),
(286,139,qs),
(286,192,o),
(224,253,o),
(175,253,qs),
(164,253,o),
(134,246,o),
(121,238,q),
(150,339,l),
(308,339,l),
(318,390,l),
(111,390,l),
(59,203,l),
(82,180,l),
(101,194,o),
(134,209,o),
(156,209,qs),
(188,209,o),
(226,169,o),
(226,133,qs),
(226,90,o),
(170,37,o),
(137,37,qs),
(100,37,o),
(55,71,o),
(41,97,q),
(0,68,l),
(17,36,o),
(86,-12,o),
(135,-12,qs),
(175,-12,o)
);
}
);
width = 351;
}
);
note = five.dnom;
},
{
glyphname = six.dnom;
layers = (
{
layerId = m01;
shapes = (
{
closed = 1;
nodes = (
(102,175,o),
(149,198,o),
(169,198,qs),
(198,198,o),
(232,162,o),
(232,131,qs),
(232,89,o),
(185,37,o),
(156,37,qs),
(127,37,o),
(82,86,o),
(82,143,qs),
(82,150,l)
);
},
{
closed = 1;
nodes = (
(248,24,o),
(288,91,o),
(288,136,qs),
(288,182,o),
(232,242,o),
(182,242,qs),
(154,242,o),
(103,216,o),
(86,198,q),
(97,274,o),
(173,353,o),
(219,353,qs),
(260,353,o),
(288,326,q),
(322,364,l),
(284,402,o),
(224,402,qs),
(173,402,o),
(81,342,o),
(24,225,o),
(24,140,qs),
(24,70,o),
(98,-12,o),
(151,-12,qs),
(186,-12,o)
);
}
);
width = 353;
}
);
note = six.dnom;
},
{
glyphname = seven.dnom;
layers = (
{
layerId = m01;
shapes = (
{
closed = 1;
nodes = (
(152,63,o),
(195,180,o),
(271,296,o),
(333,356,q),
(337,390,l),
(76,390,l),
(66,339,l),
(259,339,l),
(186,261,o),
(97,97,o),
(72,0,q),
(137,0,l)
);
}
);
width = 353;
}
);
note = seven.dnom;
},
{
glyphname = eight.dnom;
layers = (
{
layerId = m01;
shapes = (
{
closed = 1;
nodes = (
(239,18,o),
(278,72,o),
(278,107,qs),
(278,137,o),
(250,178,o),
(229,193,q),
(229,197,l),
(257,212,o),
(305,267,o),
(305,305,qs),
(305,349,o),
(244,402,o),
(197,402,qs),
(145,402,o),
(69,341,o),
(69,292,qs),
(69,269,o),
(93,231,o),
(109,216,q),
(108,212,l),
(73,196,o),
(13,133,o),
(13,91,qs),
(13,45,o),
(82,-12,o),
(134,-12,qs),
(174,-12,o)
);
},
{
closed = 1;
nodes = (
(124,267,o),
(124,295,qs),
(124,322,o),
(164,357,o),
(193,357,qs),
(218,357,o),
(251,326,o),
(251,298,qs),
(251,255,o),
(191,220,q),
(163,231,o)
);
},
{
closed = 1;
nodes = (
(70,68,o),
(70,99,qs),
(70,152,o),
(142,186,q),
(174,170,o),
(222,139,o),
(222,104,qs),
(222,71,o),
(172,32,o),
(139,32,qs),
(111,32,o)
);
}
);
width = 353;
}
);
note = eight.dnom;
},
{
glyphname = nine.dnom;
layers = (
{
layerId = m01;
shapes = (
{
closed = 1;
nodes = (
(143,353,o),
(172,353,qs),
(202,353,o),
(247,304,o),
(247,247,qs),
(247,241,l),
(228,216,o),
(180,192,o),
(159,192,qs),
(130,192,o),
(96,228,o),
(96,259,qs),
(96,301,o)
);
},
{
closed = 1;
nodes = (
(247,48,o),
(304,165,o),
(304,250,qs),
(304,320,o),
(230,402,o),
(177,402,qs),
(143,402,o),
(80,366,o),
(40,300,o),
(40,254,qs),
(40,208,o),
(97,148,o),
(146,148,qs),
(175,148,o),
(227,175,o),
(243,193,q),
(233,117,o),
(156,37,o),
(109,37,qs),
(69,37,o),
(40,64,q),
(6,26,l),
(44,-12,o),
(104,-12,qs),
(156,-12,o)
);
}
);
width = 353;
}
);
note = nine.dnom;
},
{
glyphname = parenleft.dnom;
layers = (
{
layerId = m01;
shapes = (
{
closed = 1;
nodes = (
(109,-23,o),
(96,72,o),
(96,112,qs),
(96,200,o),
(159,362,o),
(226,444,q),
(188,466,l),
(136,406,o),
(70,295,o),
(39,181,o),
(39,113,qs),
(39,60,o),
(62,-38,o),
(81,-79,q),
(125,-59,l)
);
}
);
width = 227;
}
);
note = parenleft.dnom;
},
{
glyphname = parenright.dnom;
layers = (
{
layerId = m01;
shapes = (
{
closed = 1;
nodes = (
(133,91,o),
(164,206,o),
(164,274,qs),
(164,327,o),
(141,425,o),
(121,466,q),
(78,445,l),
(94,409,o),
(107,315,o),
(107,274,qs),
(107,186,o),
(44,25,o),
(-24,-58,q),
(15,-79,l),
(67,-19,o)
);
}
);
width = 226;
}
);
note = parenright.dnom;
},
{
glyphname = period.dnom;
layers = (
{
layerId = m01;
shapes = (
{
closed = 1;
nodes = (
(86,23,o),
(86,46,qs),
(86,63,o),
(65,84,o),
(49,84,qs),
(27,84,o),
(-3,53,o),
(-3,30,qs),
(-3,13,o),
(17,-8,o),
(34,-8,qs),
(56,-8,o)
);
}
);
width = 170;
}
);
note = period.dnom;
},
{
glyphname = comma.dnom;
layers = (
{
layerId = m01;
shapes = (
{
closed = 1;
nodes = (
(91,-20,o),
(91,31,qs),
(91,55,o),
(68,84,o),
(49,84,qs),
(30,84,o),
(0,60,o),
(0,36,qs),
(0,19,o),
(22,-1,o),
(37,-1,qs),
(41,-1,l),
(37,-28,o),
(-3,-65,o),
(-35,-78,q),
(-24,-114,l),
(29,-94,o)
);
}
);
width = 170;
}
);
note = comma.dnom;
},
{
glyphname = a.sups;
kernRight = a.sups;
layers = (
{
layerId = m01;
shapes = (
{
closed = 1;
nodes = (
(267,417,o),
(291,442,q),
(295,442,l),
(289,395,l),
(336,395,l),
(399,716,l),
(354,716,l),
(340,677,l),
(336,677,l),
(324,701,o),
(285,724,o),
(262,724,qs),
(217,724,o),
(136,665,o),
(85,566,o),
(85,505,qs),
(85,447,o),
(137,387,o),
(179,387,qs),
(210,387,o)
);
},
{
closed = 1;
nodes = (
(144,472,o),
(144,512,qs),
(144,555,o),
(179,630,o),
(234,676,o),
(264,676,qs),
(281,676,o),
(312,656,o),
(325,631,q),
(299,497,l),
(277,468,o),
(222,435,o),
(198,435,qs),
(175,435,o)
);
}
);
width = 355;
}
);
note = a.sups;
unicode = 7491;
},
{
glyphname = b.sups;
kernLeft = b.sups;
layers = (
{
layerId = m01;
shapes = (
{
closed = 1;
nodes = (
(346,446,o),
(397,545,o),
(397,606,qs),
(397,664,o),
(346,724,o),
(303,724,qs),
(272,724,o),
(220,699,o),
(197,679,q),
(194,679,l),
(210,745,l),
(234,863,l),
(176,863,l),
(83,395,l),
(129,395,l),
(142,434,l),
(146,434,l),
(158,410,o),
(198,387,o),
(220,387,qs),
(266,387,o)
);
},
{
closed = 1;
nodes = (
(171,455,o),
(158,480,q),
(186,624,l),
(209,650,o),
(260,676,o),
(284,676,qs),
(307,676,o),
(339,639,o),
(339,599,qs),
(339,556,o),
(304,481,o),
(249,435,o),
(219,435,qs),
(203,435,o)
);
}
);
width = 360;
}
);
note = b.sups;
unicode = 7495;
},
{
glyphname = c.sups;
layers = (
{
layerId = m01;
shapes = (
{
closed = 1;
nodes = (
(292,407,o),
(308,420,q),
(288,458,l),
(274,449,o),
(241,434,o),
(221,434,qs),
(190,434,o),
(144,478,o),
(144,522,qs),
(144,558,o),
(175,629,o),
(230,677,o),
(264,677,qs),
(283,677,o),
(309,664,o),
(322,650,q),
(356,686,l),
(340,703,o),
(297,724,o),
(268,724,qs),
(215,724,o),
(133,662,o),
(86,567,o),
(86,515,qs),
(86,455,o),
(157,387,o),
(210,387,qs),
(242,387,o)
);
}
);
width = 292;
}
);
note = c.sups;
unicode = 7580;
},
{
glyphname = d.sups;
layers = (
{
layerId = m01;
shapes = (
{
closed = 1;
nodes = (
(269,417,o),
(293,442,q),
(297,442,l),
(290,395,l),
(337,395,l),
(429,860,l),
(372,860,l),
(349,744,l),
(341,679,l),
(337,679,l),
(326,702,o),
(287,724,o),
(264,724,qs),
(219,724,o),
(138,665,o),
(87,566,o),
(87,505,qs),
(87,447,o),
(138,387,o),
(181,387,qs),
(211,387,o)
);
},
{
closed = 1;
nodes = (
(145,472,o),
(145,512,qs),
(145,555,o),
(180,630,o),
(235,676,o),
(265,676,qs),
(282,676,o),
(313,656,o),
(326,631,q),
(301,497,l),
(278,468,o),
(224,435,o),
(200,435,qs),
(177,435,o)
);
}
);
width = 365;
}
);
note = d.sups;
unicode = 7496;
},
{
glyphname = e.sups;
layers = (
{
layerId = m01;
shapes = (
{
closed = 1;
nodes = (
(298,406,o),
(320,418,q),
(301,458,l),
(285,448,o),
(249,432,o),
(228,432,qs),
(182,432,o),
(137,490,o),
(143,542,q),
(352,542,l),
(357,553,o),
(365,587,o),
(365,607,qs),
(365,637,o),
(346,690,o),
(301,724,o),
(261,724,qs),
(219,724,o),
(138,673,o),
(86,583,o),
(86,523,qs),
(86,458,o),
(157,387,o),
(215,387,qs),
(244,387,o)
);
},
{
closed = 1;
nodes = (
(224,678,o),
(255,678,qs),
(288,678,o),
(315,637,o),
(315,610,qs),
(315,603,o),
(314,589,o),
(312,581,q),
(150,581,l),
(161,625,o)
);
}
);
width = 323;
}
);
note = e.sups;
unicode = 7497;
},
{
glyphname = f.sups;
layers = (
{
layerId = m01;
shapes = (
{
closed = 1;
nodes = (
(202,670,l),
(270,670,l),
(279,716,l),
(212,716,l),
(222,768,ls),
(228,796,o),
(256,827,o),
(277,827,qs),
(297,827,o),
(313,816,q),
(333,857,l),
(305,874,o),
(273,874,qs),
(229,874,o),
(174,817,o),
(165,767,qs),
(155,716,l),
(110,713,l),
(103,670,l),
(145,670,l),
(90,395,l),
(147,395,l)
);
}
);
width = 195;
}
);
note = f.sups;
unicode = 7584;
},
{
glyphname = g.sups;
layers = (
{
layerId = m01;
shapes = (
{
closed = 1;
nodes = (
(323,320,o),
(336,386,qs),
(401,716,l),
(355,716,l),
(342,677,l),
(338,677,l),
(326,701,o),
(287,724,o),
(264,724,qs),
(218,724,o),
(138,666,o),
(88,570,o),
(88,511,qs),
(88,458,o),
(139,399,o),
(182,399,qs),
(212,399,o),
(266,423,o),
(290,442,q),
(294,442,l),
(281,388,ls),
(270,344,o),
(220,291,o),
(182,291,qs),
(157,291,o),
(107,313,o),
(87,329,q),
(61,289,l),
(88,267,o),
(151,244,o),
(180,244,qs),
(242,244,o)
);
},
{
closed = 1;
nodes = (
(146,482,o),
(146,519,qs),
(146,559,o),
(181,631,o),
(235,676,o),
(265,676,qs),
(282,676,o),
(313,656,o),
(326,631,q),
(300,497,l),
(278,473,o),
(224,447,o),
(201,447,qs),
(177,447,o)
);
}
);
width = 354;
}
);
note = g.sups;
unicode = 7501;
},
{
glyphname = h.sups;
kernLeft = b.sups;
kernRight = a.sups;
layers = (
{
layerId = m01;
shapes = (
{
closed = 1;
nodes = (
(185,617,l),
(242,675,o),
(282,675,qs),
(324,675,o),
(324,627,qs),
(324,615,o),
(318,591,qs),
(279,395,l),
(336,395,l),
(377,599,ls),
(379,609,o),
(383,631,o),
(383,642,qs),
(383,681,o),
(348,724,o),
(306,724,qs),
(276,724,o),
(223,695,o),
(197,673,q),
(193,673,l),
(210,745,l),
(234,863,l),
(176,863,l),
(83,395,l),
(141,395,l)
);
}
);
width = 353;
}
);
note = h.sups;
unicode = 688;
},
{
glyphname = i.sups;
kernLeft = b.sups;
layers = (
{
layerId = m01;
shapes = (
{
closed = 1;
nodes = (
(204,716,l),
(146,716,l),
(83,395,l),
(141,395,l)
);
},
{
closed = 1;
nodes = (
(234,804,o),
(234,820,qs),
(234,837,o),
(213,854,o),
(199,854,qs),
(181,854,o),
(157,830,o),
(157,813,qs),
(157,797,o),
(178,779,o),
(192,779,qs),
(209,779,o)
);
}
);
width = 163;
}
);
note = i.sups;
unicode = 8305;
},
{
glyphname = j.sups;
layers = (
{
layerId = m01;
shapes = (
{
closed = 1;
nodes = (
(123,306,o),
(132,352,qs),
(204,716,l),
(146,716,l),
(75,355,ls),
(70,327,o),
(49,297,o),
(29,297,qs),
(19,297,o),
(4,302,o),
(-3,305,q),
(-23,264,l),
(5,250,o),
(31,250,qs),
(75,250,o)
);
},
{
closed = 1;
nodes = (
(234,804,o),
(234,820,qs),
(234,837,o),
(213,854,o),
(199,854,qs),
(181,854,o),
(157,830,o),
(157,813,qs),
(157,797,o),
(178,779,o),
(192,779,qs),
(209,779,o)
);
}
);
width = 164;
}
);
note = j.sups;
unicode = 690;
},
{
glyphname = k.sups;
kernLeft = b.sups;
layers = (
{
layerId = m01;
shapes = (
{
closed = 1;
nodes = (
(157,478,l),
(229,549,l),
(291,395,l),
(348,395,l),
(269,582,l),
(397,716,l),
(334,716,l),
(175,555,l),
(171,555,l),
(234,863,l),
(176,863,l),
(83,395,l),
(141,395,l)
);
}
);
width = 325;
}
);
note = k.sups;
unicode = 7503;
},
{
glyphname = l.sups;
kernLeft = b.sups;
layers = (
{
layerId = m01;
shapes = (
{
closed = 1;
nodes = (
(178,393,q),
(177,438,l),
(173,436,o),
(166,435,o),
(164,435,qs),
(151,435,o),
(151,447,qs),
(151,450,o),
(152,456,o),
(153,461,qs),
(234,863,l),
(176,863,l),
(98,468,ls),
(96,459,o),
(93,442,o),
(93,434,qs),
(93,412,o),
(116,387,o),
(140,387,qs),
(163,387,o)
);
}
);
width = 165;
}
);
note = l.sups;
unicode = 737;
},
{
glyphname = m.sups;
kernLeft = b.sups;
kernRight = a.sups;
layers = (
{
layerId = m01;
shapes = (
{
closed = 1;
nodes = (
(185,617,l),
(238,675,o),
(276,675,qs),
(319,675,o),
(319,626,qs),
(319,619,o),
(315,602,o),
(313,591,qs),
(274,395,l),
(331,395,l),
(375,617,l),
(400,645,o),
(449,675,o),
(466,675,qs),
(507,675,o),
(507,628,qs),
(507,620,o),
(504,602,o),
(502,591,qs),
(463,395,l),
(520,395,l),
(560,598,ls),
(566,624,o),
(566,642,qs),
(566,681,o),
(531,724,o),
(490,724,qs),
(462,724,o),
(404,690,o),
(375,664,q),
(371,689,o),
(339,724,o),
(301,724,qs),
(273,724,o),
(218,693,o),
(194,670,q),
(190,670,l),
(193,716,l),
(146,716,l),
(83,395,l),
(141,395,l)
);
}
);
width = 536;
}
);
note = m.sups;
unicode = 7504;
},
{
glyphname = n.sups;
kernLeft = b.sups;
kernRight = a.sups;
layers = (
{
layerId = m01;
shapes = (
{
closed = 1;
nodes = (
(185,617,l),
(242,675,o),
(282,675,qs),
(323,675,o),
(323,627,qs),
(323,620,o),
(321,603,o),
(318,591,qs),
(279,395,l),
(336,395,l),
(377,599,ls),
(379,611,o),
(383,631,o),
(383,642,qs),
(383,681,o),
(348,724,o),
(306,724,qs),
(275,724,o),
(220,693,o),
(194,670,q),
(190,670,l),
(193,716,l),
(146,716,l),
(83,395,l),
(141,395,l)
);
}
);
width = 355;
}
);
note = n.sups;
unicode = 8319;
},
{
glyphname = o.sups;
layers = (
{
layerId = m01;
shapes = (
{
closed = 1;
nodes = (
(331,438,o),
(383,532,o),
(383,595,qs),
(383,657,o),
(318,724,o),
(265,724,qs),
(221,724,o),
(138,673,o),
(86,579,o),
(86,516,qs),
(86,455,o),
(151,387,o),
(204,387,qs),
(249,387,o)
);
},
{
closed = 1;
nodes = (
(144,479,o),
(144,519,qs),
(144,562,o),
(176,634,o),
(229,677,o),
(260,677,qs),
(292,677,o),
(325,633,o),
(325,592,qs),
(325,549,o),
(293,477,o),
(241,434,o),
(209,434,qs),
(177,434,o)
);
}
);
width = 348;
}
);
note = o.sups;
unicode = 7506;
},
{
glyphname = p.sups;
layers = (
{
layerId = m01;
shapes = (
{
closed = 1;
nodes = (
(134,363,l),
(142,434,l),
(146,434,l),
(158,410,o),
(198,387,o),
(220,387,qs),
(266,387,o),
(346,446,o),
(397,545,o),
(397,606,qs),
(397,664,o),
(346,724,o),
(303,724,qs),
(272,724,o),
(221,699,o),
(196,678,q),
(192,678,l),
(193,716,l),
(146,716,l),
(56,257,l),
(113,257,l)
);
},
{
closed = 1;
nodes = (
(339,639,o),
(339,599,qs),
(339,556,o),
(304,481,o),
(248,434,o),
(218,434,qs),
(201,434,o),
(171,455,o),
(158,480,q),
(186,624,l),
(209,650,o),
(260,676,o),
(284,676,qs),
(307,676,o)
);
}
);
width = 359;
}
);
note = p.sups;
unicode = 7510;
},
{
glyphname = q.sups;
layers = (
{
layerId = m01;
shapes = (
{
closed = 1;
nodes = (
(340,677,l),
(336,677,l),
(324,701,o),
(285,724,o),
(262,724,qs),
(217,724,o),
(136,665,o),
(85,566,o),
(85,505,qs),
(85,447,o),
(137,387,o),
(179,387,qs),
(210,387,o),
(267,417,o),
(291,442,q),
(295,442,l),
(272,363,l),
(251,257,l),
(308,257,l),
(399,716,l),
(354,716,l)
);
},
{
closed = 1;
nodes = (
(144,472,o),
(144,512,qs),
(144,555,o),
(179,630,o),
(234,676,o),
(264,676,qs),
(281,676,o),
(312,656,o),
(325,631,q),
(299,497,l),
(277,468,o),
(222,435,o),
(198,435,qs),
(175,435,o)
);
}
);
width = 355;
}
);
note = q.sups;
},
{
glyphname = r.sups;
kernLeft = b.sups;
layers = (
{
layerId = m01;
shapes = (
{
closed = 1;
nodes = (
(182,605,l),
(204,640,o),
(247,671,o),
(271,671,qs),
(277,671,o),
(286,670,o),
(293,667,q),
(312,719,l),
(301,724,o),
(286,724,qs),
(258,724,o),
(211,692,o),
(191,665,q),
(188,665,l),
(193,716,l),
(146,716,l),
(83,395,l),
(140,395,l)
);
}
);
width = 224;
}
);
note = r.sups;
unicode = 691;
},
{
glyphname = s.sups;
layers = (
{
layerId = m01;
shapes = (
{
closed = 1;
nodes = (
(296,441,o),
(296,487,qs),
(296,517,o),
(258,558,o),
(221,578,qs),
(198,590,o),
(164,615,o),
(164,632,qs),
(164,652,o),
(195,681,o),
(220,681,qs),
(243,681,o),
(281,660,o),
(295,646,q),
(325,682,l),
(305,699,o),
(254,724,o),
(222,724,qs),
(174,724,o),
(109,670,o),
(109,626,qs),
(109,597,o),
(151,556,o),
(182,539,qs),
(214,521,o),
(241,495,o),
(241,481,qs),
(241,459,o),
(208,430,o),
(178,430,qs),
(152,430,o),
(108,457,o),
(90,475,q),
(55,442,l),
(77,418,o),
(138,387,o),
(172,387,qs),
(229,387,o)
);
}
);
width = 271;
}
);
note = s.sups;
unicode = 738;
},
{
glyphname = t.sups;
layers = (
{
layerId = m01;
shapes = (
{
closed = 1;
nodes = (
(234,395,o),
(247,399,q),
(237,442,l),
(230,439,o),
(214,433,o),
(202,433,qs),
(166,433,o),
(166,474,qs),
(166,479,o),
(167,492,o),
(168,499,qs),
(203,670,l),
(288,670,l),
(297,716,l),
(211,716,l),
(229,805,l),
(181,805,l),
(157,716,l),
(107,714,l),
(99,670,l),
(146,670,l),
(112,501,ls),
(110,491,o),
(107,473,o),
(107,464,qs),
(107,432,o),
(142,387,o),
(187,387,qs),
(201,387,o)
);
}
);
width = 222;
}
);
note = t.sups;
unicode = 7511;
},
{
glyphname = u.sups;
kernLeft = b.sups;
layers = (
{
layerId = m01;
shapes = (
{
closed = 1;
nodes = (
(260,419,o),
(286,441,q),
(290,441,l),
(286,395,l),
(333,395,l),
(397,716,l),
(339,716,l),
(295,494,l),
(267,465,o),
(221,436,o),
(198,436,qs),
(157,436,o),
(157,484,qs),
(157,496,o),
(163,520,qs),
(202,716,l),
(144,716,l),
(104,512,ls),
(102,500,o),
(98,480,o),
(98,469,qs),
(98,430,o),
(133,387,o),
(174,387,qs),
(206,387,o)
);
}
);
width = 355;
}
);
note = u.sups;
unicode = 7512;
},
{
glyphname = v.sups;
layers = (
{
layerId = m01;
shapes = (
{
closed = 1;
nodes = (
(392,716,l),
(334,716,l),
(242,536,l),
(193,439,l),
(190,439,l),
(179,536,l),
(158,716,l),
(101,716,l),
(149,395,l),
(218,395,l)
);
}
);
width = 307;
}
);
note = v.sups;
unicode = 7515;
},
{
glyphname = w.sups;
layers = (
{
layerId = m01;
shapes = (
{
closed = 1;
nodes = (
(279,561,l),
(317,653,l),
(319,653,l),
(322,562,l),
(335,395,l),
(406,395,l),
(554,716,l),
(500,716,l),
(419,534,l),
(381,442,l),
(377,442,l),
(372,534,l),
(358,716,l),
(304,716,l),
(220,534,l),
(182,442,l),
(178,442,l),
(176,534,l),
(164,716,l),
(108,716,l),
(134,395,l),
(203,395,l)
);
}
);
width = 479;
}
);
note = w.sups;
unicode = 695;
},
{
glyphname = x.sups;
layers = (
{
layerId = m01;
shapes = (
{
closed = 1;
nodes = (
(160,471,l),
(200,523,l),
(204,523,l),
(228,464,l),
(257,395,l),
(315,395,l),
(248,553,l),
(381,716,l),
(316,716,l),
(263,645,l),
(226,597,l),
(223,597,l),
(201,651,l),
(175,716,l),
(117,716,l),
(179,565,l),
(33,395,l),
(98,395,l)
);
}
);
width = 306;
}
);
note = x.sups;
unicode = 739;
},
{
glyphname = y.sups;
layers = (
{
layerId = m01;
shapes = (
{
closed = 1;
nodes = (
(152,284,o),
(191,338,o),
(207,368,qs),
(392,716,l),
(336,716,l),
(244,536,l),
(200,442,l),
(196,442,l),
(186,536,l),
(158,716,l),
(102,716,l),
(162,389,l),
(153,369,l),
(137,341,o),
(96,297,o),
(67,297,qs),
(57,297,o),
(46,301,o),
(39,304,q),
(20,263,l),
(42,250,o),
(67,250,qs),
(102,250,o)
);
}
);
width = 307;
}
);
note = y.sups;
unicode = 696;
},
{
glyphname = z.sups;
layers = (
{
layerId = m01;
shapes = (
{
closed = 1;
nodes = (
(298,441,l),
(134,441,l),
(343,683,l),
(349,716,l),
(132,716,l),
(123,670,l),
(265,670,l),
(57,427,l),
(51,395,l),
(289,395,l)
);
}
);
width = 279;
}
);
note = z.sups;
unicode = 7611;
},
{
glyphname = uni02C1;
layers = (
{
layerId = m01;
shapes = (
{
closed = 1;
nodes = (
(251,606,l),
(207,635,o),
(165,691,o),
(165,725,qs),
(165,763,o),
(219,821,o),
(266,821,qs),
(298,821,o),
(336,794,o),
(350,776,q),
(388,814,l),
(372,835,o),
(316,871,o),
(270,871,qs),
(221,871,o),
(147,830,o),
(106,760,o),
(106,717,qs),
(106,674,o),
(152,611,o),
(188,583,q),
(151,395,l),
(209,395,l)
);
}
);
width = 297;
}
);
note = uni02C1;
unicode = 705;
},
{
glyphname = uni02D0;
kernLeft = x;
kernRight = x;
layers = (
{
layerId = m01;
shapes = (
{
closed = 1;
nodes = (
(83,138,l),
(72,138,l),
(-22,0,l),
(121,0,l)
);
},
{
closed = 1;
nodes = (
(215,486,l),
(72,486,l),
(110,349,l),
(121,349,l)
);
}
);
width = 188;
}
);
note = uni02D0;
unicode = 720;
},
{
glyphname = uni02D1;
kernLeft = x;
kernRight = x;
layers = (
{
layerId = m01;
shapes = (
{
closed = 1;
nodes = (
(215,486,l),
(72,486,l),
(110,349,l),
(121,349,l)
);
}
);
width = 188;
}
);
note = uni02D1;
unicode = 721;
},
{
glyphname = uni02DE;
layers = (
{
layerId = m01;
shapes = (
{
closed = 1;
nodes = (
(163,209,o),
(176,217,q),
(162,260,l),
(153,254,o),
(134,246,o),
(122,246,qs),
(104,246,o),
(85,265,o),
(85,292,qs),
(85,311,o),
(95,365,o),
(106,404,q),
(-68,340,l),
(-75,284,l),
(43,327,l),
(38,310,o),
(34,280,o),
(34,266,qs),
(34,228,o),
(76,194,o),
(103,194,qs),
(126,194,o)
);
}
);
width = 185;
}
);
note = uni02DE;
unicode = 734;
},
{
glyphname = uni02E0;
layers = (
{
layerId = m01;
shapes = (
{
closed = 1;
nodes = (
(142,311,qs),
(142,328,o),
(164,375,o),
(183,403,q),
(186,403,l),
(191,388,o),
(197,358,o),
(197,344,qs),
(197,322,o),
(179,289,o),
(162,289,qs),
(142,289,o)
);
},
{
closed = 1;
nodes = (
(247,310,o),
(247,348,qs),
(247,366,o),
(237,406,o),
(229,432,q),
(391,716,l),
(334,716,l),
(244,550,ls),
(233,528,o),
(210,491,o),
(199,469,q),
(196,469,l),
(195,491,o),
(187,528,o),
(185,550,qs),
(161,716,l),
(101,716,l),
(152,433,l),
(123,391,o),
(92,335,o),
(92,306,qs),
(92,280,o),
(126,248,o),
(153,248,qs),
(197,248,o)
);
}
);
width = 307;
}
);
note = uni02E0;
unicode = 736;
},
{
glyphname = egrave.sups;
layers = (
{
layerId = m01;
shapes = (
{
closed = 1;
nodes = (
(256,913,l),
(208,877,l),
(299,769,l),
(335,793,l)
);
},
{
closed = 1;
nodes = (
(298,406,o),
(320,418,q),
(301,458,l),
(285,448,o),
(249,432,o),
(228,432,qs),
(182,432,o),
(137,490,o),
(143,542,q),
(352,542,l),
(357,553,o),
(365,587,o),
(365,607,qs),
(365,637,o),
(346,690,o),
(301,724,o),
(261,724,qs),
(219,724,o),
(138,673,o),
(86,583,o),
(86,523,qs),
(86,458,o),
(157,387,o),
(215,387,qs),
(244,387,o)
);
},
{
closed = 1;
nodes = (
(224,678,o),
(255,678,qs),
(288,678,o),
(315,637,o),
(315,610,qs),
(315,603,o),
(314,589,o),
(312,581,q),
(150,581,l),
(161,625,o)
);
}
);
width = 323;
}
);
note = egrave.sups;
},
{
glyphname = eacute.sups;
layers = (
{
layerId = m01;
shapes = (
{
closed = 1;
nodes = (
(341,907,l),
(226,804,l),
(252,773,l),
(377,865,l)
);
},
{
closed = 1;
nodes = (
(298,406,o),
(320,418,q),
(301,458,l),
(285,448,o),
(249,432,o),
(228,432,qs),
(182,432,o),
(137,490,o),
(143,542,q),
(352,542,l),
(357,553,o),
(365,587,o),
(365,607,qs),
(365,637,o),
(346,690,o),
(301,724,o),
(261,724,qs),
(219,724,o),
(138,673,o),
(86,583,o),
(86,523,qs),
(86,458,o),
(157,387,o),
(215,387,qs),
(244,387,o)
);
},
{
closed = 1;
nodes = (
(224,678,o),
(255,678,qs),
(288,678,o),
(315,637,o),
(315,610,qs),
(315,603,o),
(314,589,o),
(312,581,q),
(150,581,l),
(161,625,o)
);
}
);
width = 323;
}
);
note = eacute.sups;
},
{
glyphname = uni0259.sups;
layers = (
{
layerId = m01;
shapes = (
{
closed = 1;
nodes = (
(307,438,o),
(360,529,o),
(360,589,qs),
(360,655,o),
(295,724,o),
(242,724,qs),
(213,724,o),
(160,707,o),
(137,695,q),
(155,656,l),
(173,666,o),
(207,679,o),
(229,679,qs),
(267,679,o),
(309,628,o),
(304,572,q),
(94,572,l),
(90,562,o),
(81,521,o),
(81,504,qs),
(81,458,o),
(129,387,o),
(187,387,qs),
(228,387,o)
);
},
{
closed = 1;
nodes = (
(225,432,o),
(193,432,qs),
(159,432,o),
(131,472,o),
(131,499,qs),
(131,508,o),
(133,525,o),
(134,533,q),
(298,533,l),
(286,486,o)
);
}
);
width = 321;
}
);
note = uni0259.sups;
unicode = 8340;
},
{
glyphname = a.supa;
layers = (
{
layerId = m01;
shapes = (
{
closed = 1;
nodes = (
(133,387,o),
(167,387,qs),
(193,387,o),
(250,414,o),
(269,433,q),
(273,433,l),
(269,395,l),
(316,395,l),
(353,582,ls),
(355,593,o),
(358,617,o),
(358,627,qs),
(358,679,o),
(305,724,o),
(255,724,qs),
(225,724,o),
(164,706,o),
(138,692,q),
(156,651,l),
(180,662,o),
(223,678,o),
(244,678,qs),
(301,678,o),
(301,621,qs),
(301,611,o),
(297,596,q),
(237,594,o),
(141,567,o),
(86,511,o),
(86,465,qs),
(86,428,o)
);
},
{
closed = 1;
nodes = (
(252,456,o),
(209,432,o),
(187,432,qs),
(168,432,o),
(142,454,o),
(142,476,qs),
(142,515,o),
(223,556,o),
(291,558,q),
(274,476,l)
);
}
);
width = 333;
}
);
note = a.supa;
},
{
glyphname = g.supa;
layers = (
{
layerId = m01;
shapes = (
{
closed = 1;
nodes = (
(129,529,o),
(144,516,q),
(144,512,l),
(126,500,o),
(106,472,o),
(106,453,qs),
(106,423,o),
(124,412,q),
(124,408,l),
(97,396,o),
(49,356,o),
(49,324,qs),
(49,293,o),
(86,260,o),
(140,248,o),
(163,248,qs),
(205,248,o),
(281,272,o),
(330,320,o),
(330,356,qs),
(330,388,o),
(282,421,o),
(215,430,qs),
(177,436,o),
(155,451,o),
(155,467,qs),
(155,476,o),
(168,493,o),
(176,499,q),
(182,496,o),
(198,494,o),
(208,494,qs),
(268,494,o),
(344,571,o),
(344,628,qs),
(344,639,o),
(339,662,o),
(333,671,q),
(392,671,l),
(400,716,l),
(290,716,l),
(273,724,o),
(247,724,qs),
(209,724,o),
(148,688,o),
(112,626,o),
(112,587,qs),
(112,564,o)
);
},
{
closed = 1;
nodes = (
(189,386,o),
(198,385,qs),
(236,381,o),
(273,363,o),
(273,343,qs),
(273,320,o),
(213,288,o),
(168,288,qs),
(139,288,o),
(100,309,o),
(100,333,qs),
(100,353,o),
(136,384,o),
(158,393,q),
(171,390,o)
);
},
{
closed = 1;
nodes = (
(294,651,o),
(294,625,qs),
(294,591,o),
(249,533,o),
(214,533,qs),
(165,533,o),
(165,590,qs),
(165,625,o),
(211,682,o),
(245,682,qs),
(269,682,o)
);
}
);
width = 324;
}
);
note = g.supa;
},
{
glyphname = l.supa;
kernLeft = b.sups;
layers = (
{
layerId = m01;
shapes = (
{
closed = 1;
nodes = (
(234,863,l),
(176,863,l),
(83,395,l),
(141,395,l)
);
}
);
width = 164;
}
);
note = l.supa;
},
{
glyphname = hyphen.sups;
layers = (
{
layerId = m01;
shapes = (
{
closed = 1;
nodes = (
(263,594,l),
(111,594,l),
(105,549,l),
(258,549,l)
);
}
);
width = 233;
}
);
note = hyphen.sups;
},
{
glyphname = endash.sups;
layers = (
{
layerId = m01;
shapes = (
{
closed = 1;
nodes = (
(372,592,l),
(110,592,l),
(105,551,l),
(367,551,l)
);
}
);
width = 343;
}
);
note = endash.sups;
},
{
glyphname = emdash.sups;
layers = (
{
layerId = m01;
shapes = (
{
closed = 1;
nodes = (
(583,592,l),
(110,592,l),
(105,551,l),
(578,551,l)
);
}
);
width = 553;
}
);
note = emdash.sups;
},
{
glyphname = degree;
layers = (
{
layerId = m01;
shapes = (
{
closed = 1;
nodes = (
(303,471,o),
(338,536,o),
(338,574,qs),
(338,624,o),
(278,685,o),
(232,685,qs),
(196,685,o),
(137,646,o),
(101,582,o),
(101,543,qs),
(101,494,o),
(162,432,o),
(208,432,qs),
(244,432,o)
);
},
{
closed = 1;
nodes = (
(148,517,o),
(148,545,qs),
(148,582,o),
(192,642,o),
(228,642,qs),
(258,642,o),
(291,601,o),
(291,572,qs),
(291,535,o),
(247,476,o),
(211,476,qs),
(181,476,o)
);
}
);
width = 313;
}
);
note = degree;
unicode = 176;
},
{
glyphname = currency;
layers = (
{
layerId = m01;
shapes = (
{
closed = 1;
nodes = (
(154,139,o),
(218,139,qs),
(250,139,o),
(311,162,o),
(337,181,q),
(391,113,l),
(434,149,l),
(381,217,l),
(407,246,o),
(438,324,o),
(438,368,qs),
(438,410,o),
(422,444,q),
(495,507,l),
(460,549,l),
(387,486,l),
(368,503,o),
(318,523,o),
(287,523,qs),
(256,523,o),
(198,503,o),
(172,485,q),
(124,548,l),
(80,511,l),
(127,450,l),
(99,420,o),
(67,340,o),
(67,295,qs),
(67,273,o),
(75,235,o),
(82,219,q),
(11,157,l),
(46,115,l),
(118,178,l)
);
},
{
closed = 1;
nodes = (
(139,252,o),
(139,303,qs),
(139,349,o),
(180,423,o),
(245,466,o),
(279,466,qs),
(321,466,o),
(366,411,o),
(366,360,qs),
(366,314,o),
(325,240,o),
(261,197,o),
(226,197,qs),
(184,197,o)
);
}
);
width = 480;
}
);
note = currency;
unicode = 164;
},
{
glyphname = dollar;
layers = (
{
layerId = m01;
shapes = (
{
closed = 1;
nodes = (
(218,-12,l),
(275,-8,o),
(358,44,o),
(404,128,o),
(404,180,qs),
(404,232,o),
(361,302,o),
(298,354,o),
(234,399,o),
(191,451,o),
(191,488,qs),
(191,533,o),
(253,590,o),
(301,590,qs),
(336,590,o),
(394,550,o),
(414,521,q),
(464,566,l),
(442,595,o),
(381,639,o),
(346,648,q),
(367,751,l),
(311,751,l),
(291,653,l),
(240,650,o),
(160,604,o),
(115,527,o),
(115,478,qs),
(115,440,o),
(146,384,o),
(195,339,o),
(249,300,o),
(298,257,o),
(329,204,o),
(329,168,qs),
(329,116,o),
(259,52,o),
(204,52,qs),
(159,52,o),
(89,100,o),
(66,130,q),
(17,82,l),
(43,51,o),
(118,1,o),
(162,-8,q),
(142,-110,l),
(198,-110,l)
);
}
);
width = 480;
}
);
note = dollar;
unicode = 36;
},
{
glyphname = sterling;
layers = (
{
layerId = m01;
shapes = (
{
closed = 1;
nodes = (
(398,66,l),
(139,66,l),
(139,70,l),
(184,113,o),
(228,214,o),
(228,282,qs),
(228,283,l),
(368,283,l),
(380,342,l),
(224,342,l),
(222,364,o),
(218,405,o),
(218,424,qs),
(218,501,o),
(291,586,o),
(346,586,qs),
(377,586,o),
(422,552,o),
(438,525,q),
(491,566,l),
(469,600,o),
(401,650,o),
(351,650,qs),
(292,650,o),
(199,596,o),
(146,497,o),
(146,429,qs),
(146,410,o),
(150,365,o),
(152,342,q),
(72,337,l),
(61,283,l),
(157,283,l),
(157,280,o),
(157,275,o),
(157,272,qs),
(157,200,o),
(84,81,o),
(13,46,q),
(4,0,l),
(386,0,l)
);
}
);
width = 480;
}
);
note = sterling;
unicode = 163;
},
